<svg xmlns="http://www.w3.org/2000/svg" width="135" height="95" xmlns:v="https://vecta.io/nano"><path fill-rule="evenodd" fill="#64b4f5" d="M134.977 49.082c-.305-6.646-1.643-13.062-4.214-19.231-1.786-4.285-4.016-8.324-6.871-12.025C115.299 6.688 103.713 1.034 89.615.131c-4.957-.316-9.932-.014-14.882.414-8.631.748-17.144 2.186-25.515 4.385C40.016 7.345 31.1 10.476 22.81 15.137c-4.225 2.373-8.169 5.117-11.449 8.679-2.467 2.678-4.417 5.676-5.145 9.246-.465 2.264-.617 4.595-.852 6.899-.383 3.726-.482 7.45.066 11.175.808 5.483 3.154 10.179 7.364 13.948 3.13 2.802 6.784 4.766 10.663 6.364.983.405 1.979.776 3.04 1.189C20.394 83.188 11.675 90.654 0 94.82c.142.127.179.182.206.18.271-.031.543-.06.812-.111 9.693-1.759 18.907-4.878 27.666-9.303 5.34-2.695 10.388-5.84 15.07-9.526.423-.334.832-.452 1.368-.421 3.313.178 6.627.415 9.942.467 13.399.193 26.769-.394 40.09-1.856 5.984-.659 11.92-1.616 17.731-3.196 4.804-1.308 9.452-2.979 13.596-5.767 5.812-3.905 8.82-9.204 8.496-16.205z"/><g fill="#fff"><path d="M58.1 47.328c-.051.105.208 0 .156-.052s-.156.052-.156.052zm-19.172 1.896c.052-.051.104 0 .155-.051-.103-.001-.155-.053-.155.051zm-2.289.052c.729-.156 1.561-.208 2.393-.26.417-.52 1.145 0 1.666-.572-.364-.104-.104-.416-.364-.52-.521-.155-1.145-.103-1.562-.208-1.873-.52-4.787 0-6.659.052.15-.1.11-.438.339-.51-.05.034-.1.145.078.145.052-.207-.052-.155-.052-.311.624-.624 1.041-1.404 1.508-2.183.313-.208.468-.571.729-.832.312-.209.52-.415.624-.833.365-.259.521-.674.833-.935 0 .104-.104.104-.053.261.105-.157.261-.261.313-.47h-.052c0 .052-.156.052-.156 0 .052-.103.208-.312.208 0 .988-.882 1.405-2.338 2.392-3.171.157-.415.417-.728.625-1.091.052-.052.104.053.208.053l.885-1.559c.157-1.664-1.301-2.079-1.717-3.223-.26-.053-.26-.261-.364-.366-.208 0-.156-.154-.364-.103-2.237.623-3.485 2.235-5.254 3.328-.26.311-.573.518-.521 1.194.261.259.469.675 1.092.675.052.469.625.52.78 1.04-1.925 3.066-4.005 5.925-5.461 9.46-.209.052-.261.208-.417.26-1.458.26-2.757.676-4.006 1.144-.521-.104-1.04.259-1.301.623-.103.833.78 1.249 1.249 1.873.417 0 4.942-1.612 8.011-2.131.313.051.364-.105.781 0 .157-.156.364-.208.676-.156.053-.052 0-.156.104-.156.78-.052 1.716-.416 2.81-.311.051-.103-.156-.207-.001-.207zm25.675 1.291c-.105 0-.105.104-.26.052.052.104.26.104.26-.052zm-27.652-.772c.052-.052.104 0 .156-.052-.104 0-.156-.052-.156.052zm41.44-13.274c0-.051.21-.156.052-.209-.001.053-.21.157-.052.209zM48.194 50.057c.052-.053.104 0 .157-.053-.105 0-.157-.051-.157.053zm5.671-1.872c-.52-.155-1.144-.104-1.561-.208-1.873-.521-4.787 0-6.659.052.15-.1.11-.439.337-.51-.05.033-.1.146.078.146.053-.209-.052-.156-.052-.312.625-.623 1.04-1.404 1.508-2.184.312-.208.468-.572.728-.832.314-.208.521-.416.625-.833.364-.259.52-.674.833-.935 0 .104-.105.104-.053.261.104-.156.26-.261.312-.467h-.053c0 .05-.156.05-.156 0 .052-.104.208-.313.208 0 .987-.885 1.404-2.34 2.393-3.171.156-.417.417-.728.625-1.092.052-.053.104.051.208.051.311-.521.571-1.092.883-1.559.157-1.664-1.3-2.08-1.717-3.223-.261-.053-.261-.261-.364-.366-.208 0-.157-.154-.364-.103-2.238.623-3.486 2.235-5.254 3.328-.26.311-.572.519-.52 1.195.26.259.467.677 1.091.677.053.467.625.52.78 1.039-1.924 3.066-4.005 5.927-5.462 9.461-.208.052-.26.208-.416.26-1.458.26-2.757.675-4.006 1.143-.52-.104-1.041.26-1.301.624-.104.833.781 1.249 1.249 1.872.416 0 4.942-1.611 8.012-2.131.312.052.364-.104.78 0 .156-.155.364-.208.676-.155.052-.052 0-.156.104-.156.78-.053 1.717-.416 2.809-.312.053-.104-.155-.208 0-.208.729-.155 1.561-.207 2.395-.259.416-.521 1.144 0 1.665-.573-.361-.103-.101-.416-.361-.52zm-1.404 1.3c.052-.052.104 0 .156-.052-.104.001-.156-.052-.156.052zm7.303 1.551h.104v-.104h-.104v.104zm16.494-15.037h-.156c0 .105-.053.105-.157.105 0 .156-.051.208-.259.208.104-.103.104-.208.259-.208.053-.053.104-.105.157-.105 0-.156.156-.104.104-.261-.157-.051-.053.208-.262.156 0-.261.209-.314.313-.47-.052-.261 0-.312 0-.573-.052 0-.052 0-.104-.053.104-.259.207-.523.053-.835.052.104 0 .104-.104.104.052-.104.052-.575-.157-.312.053-.263.157-.524 0-.731-.467.468-1.145.783-1.717 1.148-.155-.104-.155-.365-.312-.47 0 .053 0 .156-.052.156l-.262-.261c-1.144-.365-2.653-.312-3.797-.312-.104.051-.209.051-.363.104-1.926-.053-4.58.783-6.607 1.096-.105.157-.469.157-.625.313-1.353.209-3.017.783-3.954 1.775-.156 2.402.78 4.125 2.341 4.96-2.027 1.566-4.266 2.976-5.774 5.118 0 .103.104.103.051.208-.884.941 0 2.09.26 3.081.521.575 1.561 1.254 2.394.993.469.209.833.051 1.197-.052 0 .104-.052.104-.052.209.417-.053.521-.105.78 0 0-.105-.053-.105-.053-.209.261.261.469-.261.677.104 0-.104.053-.157.103-.157 0 .053 0 .157.053.157.208-.051.521-.157.728-.051.104-.105.157-.157.208-.262.105.313.729.105.729-.104.104 0 .104.052.157.052.051-.263.415-.105.52-.157.052.105-.053.105-.053.157.313-.21.417-.366.78-.157 0-.105-.052-.105-.052-.209.261.052.52-.053.729-.157.103.26.156 0 .364.104.208-.417.936-.365 1.249-.678 0 .052.052.105.052.105 0-.157.104-.157.157-.21.987-.417 1.664-.887 2.028-1.775.053-.156-.104-.104-.104-.208.104 0 .104-.157.156-.208-.209-1.566-.365-2.506-.884-3.864-.313-.47-.78-.834-1.093-1.357.26.051.313-.156.364-.263.884-.208 1.3-.625 1.977-.991.677-.104 1.457-.782 2.08-.887.053-.053.053-.157.104-.157.469 0 .573-.521.989-.365v-.104c-.053 0 0-.105 0 0 .781-.366 1.509-.731 2.342-1.149.104-.156-.158-.209 0-.261.104 0 .051.158.155.158l1.978-1.256c-.053-.366.26-.419.365-.732zm-15.662 6.212c.104.053 0 .104 0 .157-.052-.053 0-.104 0-.157zm.468.627c.156.052-.052.105 0 .209-.52.105-.885.625-1.249.729.365-.467.885-.623 1.249-.938zm-.311-.155c0-.156.157-.156.26-.156-.053.104-.103.156-.26.156zm.572-.368c-.051-.209.26-.051.208-.209.157.054-.053.262-.208.209 0 .105-.156.105-.208.211-.104 0 0-.211-.052-.262.156 0 .103.104.26.051zm-.261-.26c0-.104.104-.104.156-.104.001.052-.052.104-.156.104zm.157 2.349c0 .209-.208 0 0 0 .156-.209.417-.261.47-.573.155.051.259.051.259-.104.156 0 .105.104.26.051 0-.051 0-.051.052-.051.053-.156.208.051 0 0 0 .051 0 .051-.052.051-.312.209-.573.47-.989.626zm.208.105c0 .053-.053.053-.104.053 0-.053.104-.053.104-.053zm-.416-1.304c.052-.052.104-.105.156-.105-.001.053-.052.105-.156.105zm.104 1.513c0 .052-.052.052-.104.052 0-.052.104-.052.104-.052zm.363-2.192c.157.051 0 .208-.156.156.001-.104.209-.051.156-.156zm-.52 2.036c-.103.156-.207.312-.467.364.156-.156.26-.313.467-.364zm-.467.574v.104h-.104c0 .052-.053.052 0 0 0-.052.051-.104.104-.104zm-.624.21c.104-.105.261-.158.261-.366.155 0 .155.104.207-.053.103.157-.208.365-.468.419zm.675-2.925c-.051.105-.104.21-.208.105.053-.053.104-.105.208-.105zm-.26.157c-.052.156-.364.366-.52.312.156-.103.26-.207.52-.312zm-.468.575c.313.156.261-.263.521-.263-.104.366-.468.47-.78.68 0 .103-.052.103-.207.103.05-.103.103-.103.207-.103-.001-.21.259-.21.259-.417zm-.417.052c.104-.105.104-.21.261-.21 0 .158-.104.158-.261.21-.05.104-.155.209-.311.209.104-.105.208-.158.311-.209zm-.466.312s.103-.103.156-.051c.103.051-.313.207-.156.051zm.155.209c.104-.053.104-.209.208-.209-.052.209.103.314-.208.365v-.051c-.104 0-.156.051-.208.105-.156-.105.104-.21.208-.21zm-.259.313h.104v.104h-.104v-.104zm-.105-.366c.156.104-.104.209-.208.209 0-.156.208-.105.208-.209zm.052.263c0 .052-.052.052-.104.052 0-.052.104-.052.104-.052zm-.104.103c-.053.104-.103.156-.26.156.104-.052.157-.156.26-.156zm-.312-.052c0 .104-.052.208-.208.208.103-.103.052-.259.208-.208zm-.156-.21c0 .053-.051 0-.104 0 .052-.051.104-.051.104 0zm-.26.888h.104c0 .054 0 .054.051.054 0-.105.053-.156.156-.156.053.103 0 .156-.156.156.053.102-.207.051-.155-.054zm.156.419c.208-.209.364-.419.624-.522.26-.367.676-.575 1.041-.785-.26.314-.625.575-1.041.785-.105.259-.364.417-.624.522 0 .104-.051.208-.208.208 0-.156.156-.156.208-.208zm1.509.47c-.105.209-.365.314-.573.47.053-.105.104-.209.104-.314.259.053.259-.156.469-.156zm-.313-1.097c.053-.053.053-.053.053-.104h.103c.052.104-.053.104-.156.104zm-.832.731c-.052-.157.208-.366.365-.417 0 .208-.26.26-.365.417zm.052 1.097c.156 0 .103-.105.26-.052.053.103-.26.261-.26.052zm-.728.783c0 .208-.209 0 0 0 .156-.157.156-.417.364-.471.051.053 0 .104.051.104-.051.157-.155.315-.415.367zm0 .47c0 .052-.053.052 0 0 .051-.21.26 0 0 0zm-.417-2.82c.051 0 .051 0 .051-.054h.104v.105c-.053 0-.053 0-.053.051h-.103l.001-.102zm-.052.47c0 .053-.052 0-.104 0 .052-.052.104-.052.104 0zm-.832.783c0-.052.104-.052.104-.052 0 .052-.052.052-.104.052zm1.352-1.15c.053.419-.52.681-.832.941.051-.365.676-.574.832-.941zm-.625 1.15h-.104v-.103h.104v.103zm.053 1.619c-.157-.157.207-.208.207-.365.157.156-.155.208-.207.365zm.364-2.088c-.052.156-.157.207-.312.26.052-.155.208-.208.312-.26 0-.054.052-.105.052-.157.105.001.105.209-.052.157zm2.082 5.168c0-.051.103-.051.103-.051 0 .051-.052.051-.103.051zm1.612.053c-.051 0-.051-.104-.051-.208-.053 0 0-.105 0 0 .102.052.155.155.051.208zm.155-.053c.053-.104.104-.104.21-.104.051.157-.105.104-.21.104zm.053-.261c.052-.052.052-.052.052-.104.156 0 .052.262-.052.104zm.208 0c0-.052.104-.052.104-.052.001.052-.051.052-.104.052zm.365-.053h-.104v-.104h.104v.104zm.676-.103c-.052 0-.052-.105-.052-.157h.156c.052.104-.104.051-.104.157zm.833-.21v-.104c.051 0 .051 0 .051-.052.104 0 .104.209-.051.156zm.467-.156c.053-.052.104-.104.157-.104 0 .051-.052.104-.157.104zm.468-.156c-.052-.209.209-.053.156-.157.156.053-.05.157-.156.157zm.573-.261c0-.053.103-.053.103-.053 0 .053-.05.053-.103.053zm.364-.157c0 .157-.208-.052 0 0 0-.052.104-.052 0 0zm.678-4.177c-.468 1.043-1.925 1.461-3.278 1.826-1.822.523-3.277.784-5.204.784.209-.104.366-.261.366-.521 1.82-1.306 3.328-2.611 5.253-3.655 0-.053 0-.156-.052-.156 0-.053.052-.053.052-.053.104.209.313-.051.521 0 .78.575 1.56 1.148 2.342 1.775zm-3.591-1.566h-.053c0 .156-.207-.053 0 0v-.21c.157 0 .157.157.053.21zm.052-.21c.052-.051.104-.104.104-.156.052 0 .052.104.052.156h-.156zm.573-.261c.051.157-.157.054-.157.21-.104-.053.053-.21.157-.21zm1.144-2.766c-.052.208-.261.208-.417.312-.103-.156.261-.26.417-.312zm-.104-.209v-.104h.104v.104h-.104zm.417.051c-.053.053-.053.158-.209.158.052-.104.103-.158.209-.158 0-.051.051-.103.051-.156.053 0 .104.053.104.053v.103h-.155zm.103.417v.104h-.104v-.104h.104zm.52-.782c0 .053-.053.104-.053.158-.05 0-.155-.054-.207.052-.104-.106.104-.21.26-.21zm.261-.104c-.052.104-.104.208-.209.104.052-.104.105-.104.209-.104.052-.104.157-.104.208-.209.156.104-.104.209-.208.209zm.104 2.035c0 .053-.052.053-.052.106 0 0-.052-.053-.104-.053.052-.053.052-.053.052-.104.051-.001.051.051.104.051zm.157-.103v-.21c.104.053.156.053.156.21h-.156zm.364-.105h-.104v-.104h.104v.104zm-.105-2.088c.052-.053.104-.104.104-.156.157 0 .001.208-.104.156zm.364 1.932h-.103v-.105h.103v.105zm-.103-2.402c.051-.052.103-.105.208-.105-.052.105-.105.209-.208.105zm.312.209c0 .052-.052.052-.104.052-.001-.052.104-.052.104-.052zm-.105 2.454c-.104 0 0-.157 0-.21.157 0 .053.157 0 .21zm-.051-.366c.261-.314.885-.261.988-.68.051 0 .051.053.051.104-.207.315-.571.471-1.039.576zm.26-2.088v-.105h.103v.105c0 0-.052 0-.103 0zm1.299 1.671h-.104v-.105h.104v.105zm0-.366c-.052.156-.258.103-.364.261-.104-.104.157-.314.364-.261 0-.209.209 0 0 0zm-.207-1.463v-.103h.103v.103c0 0-.051 0-.103 0zm.363-.522c-.051 0-.156 0-.156.053-.104 0 0-.156 0-.21.053.054.209.001.156.157zm-5.15 1.62c-.78-.523-1.717-.888-2.393-1.515 1.042-.417 1.821-.783 3.018-.992.104 0 .104-.157.156-.208.259.051.52-.053.676.051.104-.156.364-.208.521-.313.156.105.156.052.259.105.104 0 .052-.159.157-.159.312.159.676 0 .885-.208.051 0 .051.104.051.156.884-.208 1.457-.156 2.134-.47.416.156.623-.052 1.091 0-2.184 1.204-4.526 2.196-6.555 3.553zm5.411.522h-.104c.053-.053 0-.053-.052-.053-.001-.104.261-.104.156.053zm.053-.417c0 .208-.105.052-.261.156 0-.156.103-.156.261-.156 0-.054.103-.054 0 0zm.259 0h-.103v-.104h.103v.104zm.104-.105c0-.261.26-.261.417-.367-.053.211-.209.263-.417.367zm.313-2.193v-.105h.104c.052-.104.156-.156.311-.156-.051.104-.104.156-.311.156 0 .052 0 .105-.104.105zm.208 1.932c0-.21.261-.105.261-.262.155.105-.105.262-.261.262zm.573-.366v-.105h.207c.052.158-.103.105-.207.105zm.31-.208h-.104v-.105h.104v.105zm.052.156c.104-.209.312-.261.521-.314-.104.158-.363.209-.521.314zm.781-.47c.051-.052.156-.052.104-.156.104 0 .104.051.155.051.001.105-.102.105-.259.105zm.208-2.14c0-.054.104-.054.104-.054.001.054-.052.054-.104.054zm.209 1.932c0 .208-.209 0 0 0 0-.053.105-.053 0 0zm-.052-1.986c0-.156.157-.209.313-.209 0 .156-.156.156-.313.209zm.313 1.88c.05-.103.154-.208.311-.208-.053.105-.157.208-.311.208zm.52-.208c-.053-.052 0-.105 0-.157.105.052 0 .105 0 .157zm.363-.21c-.155-.103.104-.208.207-.208.054.157-.154.105-.207.208zm.624-.312h-.103v-.105h.103v.105zm.416-.209c-.155-.104.104-.208.209-.208 0 .156-.209.051-.209.208zm1.509-1.045c0-.156.104-.208.209-.208-.052.052-.052.208-.209.208zm.262-.208c0-.053.104-.053.104-.053-.001.053-.052.053-.104.053zm.208-2.507c.104 0 .104.051.051.156h-.104c.053-.051.053-.104.053-.156zm-16.598 9.764v.104c.104.001.052-.104 0-.104zm58.016.962c.052 0 .052.053.104 0-.001-.051-.104-.051-.104 0zm11.443-12.164s-.052 0-.105.052c.053 0 .105 0 .105-.052zm2.296.63h-.105v.107h.105v-.107zM96.69 36.781c0-.104.157-.104.104-.211-.104.054-.26.158-.104.211zm.208-.628c-.104-.107-.104.052-.26.052.001.262.156 0 .26-.052zm-2.963-3.368s-.051 0-.104.053c.053 0 .104 0 .104-.053zm6.307 10.227c.052 0 .052-.052.105-.105-.105 0-.105.053-.105.105zm-4.01-9.594h-.104v.104h.104v-.104zm15.494 12.055c0 .053.21.209.261.106-.156 0-.156-.158 0-.158 0 .052.053.105 0 .158.053 0 .053 0 .104.051.104-.104.366-.051.47-.158-.104 0-.209.053-.157-.105.522-.051.731-.103 1.356-.051.421-.419 1.256 0 1.62-.472-.261.106-.628.106-.731 0 .313-.052.784.053.992-.156-.208.053-.312-.051-.416.053-.054-.158-.054-.104-.157-.211.104-.052.416 0 .521-.261-.105-.105-.418.105-.47-.105.418.052.782-.209 1.096-.418-.209 0-.155.053-.104-.21-.209 0-.314.053-.364 0 .05-.158.209-.051.417-.104-.522-.366-1.201 0-1.932-.157-.051-.053-.051-.053-.051-.104.051 0 .104-.053.155-.104-.261 0-.209.051-.366 0-.052.104.053.104 0 .156-.156 0-.052-.261-.21-.209-.05.262-.312-.052-.417.104 0-.156 0-.209-.155-.209.051.105.155.314-.053.263.053-.053 0-.263-.105-.263.054.105 0 .158-.05.209-.158-.104.05-.209-.158-.156-.157 0-.052.156-.105.156-.052.053-.052.104-.104.104 0-.051 0-.104.104-.104v-.104c-.312-.052-.521-.105-.677.104-.262-.314-.367 0-.68-.051 0 .104.054.313-.104.313-.052-.157.053-.157.053-.262a14.84 14.84 0 0 0-3.864.473c-.156 0-.626-.158-.573.21.155 0 .104-.21.26-.158-.051.104.053.104.053.158a3.14 3.14 0 0 1-.521.104c-.103-.211.104-.104.156-.211-1.044-.104-1.514.263-2.347.211-1.621.417-2.822.366-4.492.941 0-.052-.052-.103-.052-.103-.889.051-1.881.471-2.558.524.364-.368.782-.577 1.306-.996-.054 0-.054-.053-.104-.105.051-.051.312.052.26-.051-.051-.053.053-.209.053-.263.052 0 .104-.051.209-.051v.156c.365-.314.678-.629 1.149-.943-.105-.052-.105-.052-.105-.159.052 0 .105-.051.157-.051 0 0 .054.051.054.105 1.355-.89 2.712-1.78 3.756-2.933.939-.524 1.62-1.308 2.192-2.144-.104 0-.104 0-.104-.053.054-.263.314-.156.418-.314-.05-.053-.104-.053-.104-.105.156 0 .156-.158.312-.263-.052-.052-.052-.052-.052-.103-.104.103-.157-.106-.053-.158.104 0-.104.104.053.158h.052c.053-.106-.052-.21 0-.421.208 0 .053-.314.208-.417-.364-1.571-1.461-2.986-3.183-2.933-.104.104-.209.104-.314 0 .105.156-.47.261-.418.104-.209 0-.521.419-.676.105v.158c-.732.103-1.149.314-1.621.471 0 .315.157.052.209.262-.313-.105-.313.106-.418.209-.051-.261-.258.212-.363 0 0 .105-.054.212-.105.212-.209-.263-.521.365-.783.208-.678.577-1.516.733-2.191 1.415.154.051.26-.263.363-.106a.63.63 0 0 0-.26.263c-.052-.105-.157-.052-.104-.156-.21-.053-.105.156-.105.261.052 0 .052.053 0 0-.054 0-.054-.053-.104-.053-.158.263-.521.524-.68.524 0-.156.209-.103.262-.261-.416.209-.783.419-.939.787 0 0 .104 0 .104.051-.053 0-.104 0-.104-.051-.208 0-.261.156-.312.365.104-.053 0 .158-.054.158 0-.053 0-.106.054-.158-.208-.053-.104.158-.208.158.208-.577.677-.891 1.044-1.416-.576.314-.89.893-1.307 1.258.104.209-.052.209-.104.314.104.105.208-.104.313-.156 0 .051.054.051.105.103-.523.473-.523 1.152-.105 1.728.471-.208 1.149.421 1.566-.157.575 0 .992-.47 1.251-.942.158.053.104.105.314.053-.052-.262-.21.052-.21-.106 0-.103.104-.103.21-.156-.052.156.105.104.157.156 0-.103.104-.103.104-.261-.052-.051-.104.105-.104 0 .157-.104.312-.417.471-.314-.054.105-.209.053-.158.159.731-.314 1.62-1.099 2.401-1.311.053-.156-.104-.209.053-.261.104-.052.051.051.104.158.887-.314 1.617-.682 2.401-.735-1.775 1.676-3.707 3.247-5.744 4.61-.155.209-.259.418-.521.418-.782.838-1.879 1.361-2.661 2.147a7.39 7.39 0 0 0-1.409 1.099c-.627.472-1.462.891-1.41 1.78.104.473.47.892.729 1.415.209-.051.209.157.263.42.939.732 2.246.47 3.026.366.104-.052.104.104.264.052 0-.104-.054-.208.052-.208.364-.157.469.208.782.051 0-.104-.104-.104-.054-.208 1.044-.209 2.246-.263 3.344-.733 0-.053 0-.053.105-.053-.054.053-.054.053-.105.053v.052c.677-.21 1.721-.052 2.505-.523 0 .104.312.157.364.052.053.051.104.208.209.157.105-.262.628-.472.837-.157.209-.052.469-.105.626-.315-.053.104-.053.158-.053.209.157-.156.312-.209.521-.105-.052-.104 0-.104.104-.104 0-.052.054-.105.105-.052-.052.052-.052.052-.105.052s0 .104 0 .104c.835-.471 1.983-.261 2.768-.786.051.052.051.209.155.209.157-.158.628-.263 1.098-.158.053-.105.157-.156.261-.261-.157 0 .052-.209 0 0 .572.099 1.46-.11 2.086-.373zm3.549-1.674c0-.053.104-.106.208-.106-.05.106-.155.158-.208.106zm.575.105c0 .052-.104.052-.104.052 0-.052.05-.052.104-.052zm-.209-.472v.158c-.208 0-.261-.104-.416 0 .103-.264.208-.054.416-.158zm-1.723 1.57c-.053-.104.052-.104.157-.104-.053.053-.105.104-.157.104zm.157-.209h-.157v-.104s.052 0 .052-.051h.105v.155zm.261.209h-.104c0-.051-.051-.051-.051-.051-.054-.106.208-.106.155.051zm.416-.471c0 .211.367 0 .367.211-.313 0-.626 0-.783.051-.209-.209.416-.051.416-.262zm-.259-.995c.052 0 .104-.051.209-.051.05.157-.157.104-.209.157v-.106zm.052.943c.157 0-.156.209-.209.105-.105-.156.209.053.209-.105zm-.261-.314c.155.105-.157.156-.262.156-.052-.208.209-.105.262-.156zm-.366-.576c0-.053 0-.053.052 0 .053 0 0 .052 0 0h-.052c-.053.157-.208-.104 0 0zm-.053-.315c0 .052-.105.104-.105.104 0-.052.053-.104.105-.104zm-.364 1.519c0 .105-.313.105-.209-.051.051 0 .155 0 .209.051.051-.209.155.158 0 0zm-.054-1.151c0-.052.054-.052.104-.052.001.052-.104.052-.104.052zm.157-.368c-.157.157-.366.104-.521.052a.47.47 0 0 1 .521-.052zm-.678 1.519c.054 0 .054.052.157.052 0 .053-.262.053-.157-.052zm-.418-1.728c0 .156-.156.104-.208.156-.052-.104.103-.156.208-.156zm-.208.261c.052.159-.156.159-.209.159v-.106c.053-.001.103-.001.209-.053-.052 0 .052-.052 0 0zm-.314-.105c0-.051.104-.104.208-.051.106 0-.312.156-.208.051zm.208.525c0 .104-.259 0-.259 0 .051-.104.156 0 .259 0zm0 1.152c0 .104-.208 0-.259.053.001-.106.156-.158.259-.053zm-.522-.053c.054 0 .054.053.158.053 0 .104-.262.053-.158-.053zm-.208-1.624c.104-.051.208-.051.366-.051 0 .208-.262.051-.366.156v-.105zm-.26.053c-.054.052-.157 0-.157.104-.155-.052.103-.208.157-.104zm-.471-.053c.054-.051.104 0 .104.105-.104.052-.104 0-.156 0 .001-.052.052-.052.052-.105zm-.26.053h.105c0 .104-.105.104-.158.104 0-.052.053-.052.053-.104zm-.313.052c0 .159-.209.105-.209.21-.157-.104.052-.262.209-.21zm-14.409-5.759c0-.053.053-.053.053-.104h.104c0 .104-.104.104-.157.104zm.313-.314c0 .261-.26.053 0 0-.051 0 .054-.053 0 0zm5.117-3.038c0-.157.261-.157.313 0-.156-.105-.156.053-.313 0zm.365 0c-.052-.051-.052-.157-.052-.209.209.053.209-.104.418-.104-.054.051 0 .104.051.104-.26.104-.314.052-.417.209zm.679-.366c0-.054.052-.105.052-.158.105-.052.054.053.105.158h-.157zm.522.053c0-.158.155-.158.312-.158.052.209-.208.051-.312.158zm.417-.053c-.053 0-.053 0-.053-.054v-.104s.053.053.157.053c-.053.051-.104.051-.104.105zm.156-.054c0-.051.054-.051.054-.104h.104c0 .104-.104.104-.158.104zm-3.026 8.798c.054.053-.052.053-.052.053-.054-.053 0-.053.052-.053zm-.574.367c.051 0 .051.052.104.052 0-.052 0-.052.051-.052-.051-.053.053-.053 0 0 0 .052-.051.052-.051.052 0 .053.051.053.051.158-.104.156-.209-.158-.209 0-.155-.053.054-.158.054-.21zm-.784.682c-.052.051-.052 0-.104 0-.001-.053.104-.053.104 0zm-.469.262c0 .052-.104.052-.104.052-.001-.052.051-.052.104-.052zm-1.569 1.308c-.051 0-.051-.053-.051-.105s.051 0 .155 0c-.05.052-.104.052-.104.105zm.264-.314c0-.053.052-.053.104-.053 0 .053-.104.053-.104.053zm1.356 2.776c0-.209.418-.105.521-.209.054.209-.363.366-.521.209zm1.357-.314h-.104v-.106h.104v.106zm4.855-3.195c-.104-.051-.052-.209.104-.209.054.157.001.209-.104.209zm.786 0c0 .051-.106.105 0 0-.054-.052.049-.052 0 0zm2.088-.366c-.054-.106.05-.106.154-.158-.052.052-.105.158-.154.158zm.416-.157c0-.157.208-.157.208.051-.104-.104-.104.053-.208-.051zm.312-.106s.052.053.104.053c-.052.104-.261.053-.104-.053zm.314-.051c0-.053.104-.053.156 0 0 .104-.21.104-.156 0zm.679-.107c.104-.052.155.263.209 0 .052-.052.155.158.209 0 .208.158-.522.264-.418 0zm5.586-.157c0-.051 0-.104.051-.156-.104 0-.26 0-.26.104.104.105.104-.052.209.052zm-15.872.892c-.051-.106.054-.106.054-.158-.209-.051-.209.158-.054.158zm1.566-9.793c-.208-.052.263-.052.158-.262-1.253.524-2.558.995-3.447 1.781-.103.052-.418.105-.26.261.626-.523 1.461-.943 2.247-1.308 0 .051.05.104.05.156.262-.419.941-.575 1.252-.628zm-2.399 1.257s.104-.052.104-.105c-.052.053-.104.053-.104.105zm-1.358.89c-.054.103 0 .103.104.103v-.103h-.104zm-4.947 6.996c-.366-1.736-1.356-3.524-3.078-4.261-.835-.263-1.932-.421-3.13-.63 0 .105-.157.105-.262.156-.834-.367-2.19.053-2.973-.051 1.042-1 2.296-2 3.965-2.158 2.607-.841 5.165-1.367 7.826-1.629.887-.209 1.616-.158 2.138-.579-.051-.158-.051-.262 0-.421l-.312-.158c.054-.051.105-.051.105-.104-.211-.052-.105-.105-.262-.263a.86.86 0 0 1-.626-.053c.156 0 .261-.052.261-.106-.104-.053-.574 0-.363-.263-.523.051-1.046.104-1.516-.158.052.104 0 .209-.104.209 0-.104.051-.156-.104-.156-.053 0 0 .104-.104.104-.575-.263-1.461.21-2.139 0-.156.158-.104 0-.418 0 0-.472-.887.158-1.303-.104.104.209-.105.156-.21.209-.99-.42-3.078 1.001-3.704-.053-.784.582-1.775 1.107-2.661 1.475-.209.683-.939.788-1.409 1.262 0-.053 0-.105-.104-.105-.938.684-1.93 1.367-2.767 2.156-.418.841-1.146 1.315-1.929 1.84-.054.158-.105.263-.208.368.052.632.312 1.052.259 1.684.417.37.575.946.991 1.262.052-.053.105-.053.105 0 .208 0 .363-.158.521-.263 1.2-.579 2.712-1 3.914-1.105.833-.105 1.563 0 2.189-.158v.105c.105 0 .105-.052.158-.105 2.137.264 3.755.158 5.215 1.316-.521 1.525-2.189 2.26-3.599 2.945-.73.58-1.825.945-2.713 1.261-.418-.21-1.095.316-1.251.474-.105 0 .051-.263-.159-.157 0 .053.054.157-.051.157-.574.21-1.201.422-1.931.474.053-.105-.052-.158-.105-.052 0 .262-.677.052-.938.315-.782-.157-2.14.263-2.921-.157a.79.79 0 0 0 0-.684c-.157.053-.054.42-.262.526-.208-.316.313-1.159-.051-1.421-.054-.052-.209.315-.47.262 0-.104.104-.104.053-.209-.472.736-.575 1.999-.158 2.734.366.525.939.737 1.202 1.211.467.157 1.044.157 1.25.419.627-.315.835.316 1.253-.051.155 0-.054.157.104.157.73-.21 1.618 0 2.245-.42.105 0 .052.105.105.105.154-.105.258-.053.415-.053 2.662-.684 5.217-1.999 7.514-3.366.888-.79 1.88-1.421 2.4-2.579 0-.263.104-.314.104-.472-.05-.209.054-.368.003-.682zm6.93 4.578s.104 0 .053-.052c-.053-.001-.104-.001-.053.052zm-2.609-11.313c.104-.104.209-.209.365-.314-.21 0-.417.105-.365.314zm19.993 6.861c.104 0 .054.261.262.21 0-.106 0-.158-.053-.263-.106 0-.209 0-.209.053zm-.469.627c0 .053-.054.104-.054.158.104 0 .209.053.313.104-.104-.157-.259-.157-.259-.262zm-2.925 1.31l.158.053c.104-.106-.209-.158-.158-.053zm3.134-.942c0 .261-.314-.105-.263.209.263-.104.522.052.731-.156-.208 0-.417.051-.468-.053zM131 33.629l-.312-.158c.05-.053.104-.053.104-.105-.209-.054-.104-.105-.262-.264-.209.051-.418.051-.625-.053.157 0 .261-.053.261-.104-.104-.053-.575 0-.366-.263-.522.051-1.042.104-1.513-.158.052.105 0 .209-.104.209 0-.104.052-.158-.104-.158-.054 0 0 .106-.105.106-.574-.263-1.461.209-2.14 0-.157.158-.104 0-.417 0 0-.474-.887.158-1.305-.106.104.211-.104.158-.209.211-.99-.421-3.078.999-3.704-.053-.781.579-1.773 1.105-2.66 1.475-.208.683-.938.788-1.408 1.262 0-.053 0-.105-.104-.105-.939.681-1.932 1.365-2.767 2.155-.417.842-1.147 1.314-1.929 1.841-.053.158-.104.263-.209.368.052.632.313 1.051.261 1.683.416.369.574.947.992 1.263.051-.053.104-.053.104 0 .209 0 .364-.158.522-.263 1.198-.578 2.711-1 3.913-1.104.834-.105 1.564 0 2.19-.158v.105c.104 0 .104-.052.156-.105 2.14.263 3.758.158 5.218 1.315-.521 1.524-2.191 2.261-3.6 2.946-.731.578-1.827.945-2.713 1.261-.418-.209-1.097.316-1.252.474-.104 0 .052-.263-.158-.158 0 .053.054.158-.052.158-.573.21-1.199.421-1.931.473.052-.104-.054-.157-.104-.052 0 .262-.679.052-.938.315-.784-.157-2.141.264-2.925-.157a.78.78 0 0 0 0-.684c-.155.053-.05.421-.259.526-.209-.316.312-1.158-.054-1.42-.051-.053-.208.316-.468.263 0-.104.104-.104.052-.209-.47.735-.574 1.999-.156 2.735.364.525.938.736 1.2 1.209.469.158 1.044.158 1.253.421.626-.316.835.316 1.251-.052.155 0-.053.157.105.157.729-.209 1.615 0 2.242-.421.105 0 .053.106.105.106.155-.106.26-.052.417-.052 2.66-.684 5.217-1.999 7.513-3.368.887-.788 1.877-1.419 2.4-2.577 0-.263.104-.316.104-.474-.052-.211.052-.367 0-.683-.366-1.735-1.356-3.524-3.078-4.259-.835-.263-1.931-.421-3.132-.63 0 .105-.155.105-.259.156-.835-.368-2.19.053-2.975-.051 1.044-1.001 2.295-2 3.965-2.158a37.07 37.07 0 0 1 7.826-1.63c.889-.211 1.617-.158 2.14-.579-.05-.159-.05-.266.003-.422zm-15.725 9.383c-.051.158-.208-.105-.208.104.104.105.313-.051.208-.104zm1.043 1.519c.054 0 .054.053.105.053.104-.105-.105-.156-.105-.053zm.159-1.257h-.158v.157h.105c0-.053.053-.053.053-.157z"/><path d="M27.886 61.758c-.153.076-.326.113-.521.113-.18 0-.343-.035-.491-.102s-.276-.164-.382-.281-.188-.258-.25-.418-.089-.332-.089-.517c0-.173.03-.34.089-.5a1.35 1.35 0 0 1 .252-.421c.107-.122.235-.218.383-.289s.31-.108.487-.108c.153 0 .3.032.44.096s.259.161.354.289l.328-.238c-.134-.176-.301-.303-.5-.381s-.406-.116-.623-.116c-.236 0-.453.043-.651.129s-.368.206-.512.354a1.58 1.58 0 0 0-.333.529 1.77 1.77 0 0 0-.119.655c0 .242.041.464.123.667a1.6 1.6 0 0 0 .341.527 1.57 1.57 0 0 0 .514.348c.198.084.41.125.637.125.255 0 .483-.045.685-.133a1.31 1.31 0 0 0 .518-.422l-.282-.238c-.113.144-.245.256-.398.332zm2.72.019v-.901c0-.3-.069-.521-.207-.668s-.362-.22-.674-.22a1.33 1.33 0 0 0-.451.079.98.98 0 0 0-.383.244l.22.229a.78.78 0 0 1 .29-.172 1.01 1.01 0 0 1 .334-.056c.165 0 .292.039.384.117s.136.193.136.346v.062h-.134l-.425.019a1.71 1.71 0 0 0-.431.089c-.133.048-.244.121-.333.219s-.134.236-.134.408c0 .102.021.191.062.27s.099.143.168.195a.75.75 0 0 0 .246.119c.095.025.196.039.303.039.162 0 .3-.033.416-.102s.207-.158.275-.266h.009l.003.154a.7.7 0 0 0 .02.16h.337l-.022-.178-.009-.186zm-.351-.511c-.003.088-.017.168-.044.246a.62.62 0 0 1-.117.199c-.051.057-.114.102-.191.135s-.165.053-.267.053a.61.61 0 0 1-.329-.082c-.089-.057-.133-.15-.133-.281 0-.145.065-.248.197-.309s.31-.096.535-.096h.349v.135zm1.262-2.516h-.351v3.391h.351V58.75zm.97 0h-.351v3.391h.351V58.75zm1.804 2.342c-.062-.049-.135-.087-.219-.115a1.9 1.9 0 0 0-.265-.069l-.199-.045c-.064-.019-.122-.039-.17-.063s-.089-.051-.117-.083-.043-.069-.043-.115.013-.09.038-.127.058-.068.097-.092.083-.042.132-.054a.62.62 0 0 1 .146-.018c.104 0 .194.023.267.069a.55.55 0 0 1 .177.182l.292-.193a.66.66 0 0 0-.299-.292c-.126-.06-.265-.09-.415-.09-.099 0-.195.014-.287.041s-.177.065-.251.116-.134.116-.179.194-.067.167-.067.269c0 .108.02.195.061.265a.48.48 0 0 0 .162.168.95.95 0 0 0 .236.104l.282.072.166.041a.57.57 0 0 1 .144.059c.042.027.075.057.1.094s.039.082.039.139-.014.105-.041.146-.062.074-.107.1a.49.49 0 0 1-.151.059c-.056.012-.11.018-.164.018-.125 0-.229-.025-.312-.076a.86.86 0 0 1-.227-.207l-.278.217c.105.148.222.252.353.307s.285.082.464.082a1.37 1.37 0 0 0 .308-.035.82.82 0 0 0 .269-.113c.08-.053.144-.121.191-.205s.072-.186.072-.305c0-.105-.019-.193-.054-.264s-.088-.134-.151-.181zm3.474.765l-.26-.246c-.125.174-.304.26-.534.26a.67.67 0 0 1-.292-.061c-.087-.039-.161-.096-.222-.168s-.109-.154-.144-.248a.87.87 0 0 1-.051-.303c0-.108.015-.209.044-.303s.075-.177.133-.249.132-.127.222-.168a.75.75 0 0 1 .31-.06.7.7 0 0 1 .287.06c.086.041.167.105.242.196l.278-.247c-.104-.114-.227-.198-.365-.251a1.22 1.22 0 0 0-.442-.081 1.14 1.14 0 0 0-.442.083 1.01 1.01 0 0 0-.344.231 1.05 1.05 0 0 0-.222.349c-.053.134-.078.281-.078.44a1.19 1.19 0 0 0 .078.443c.052.135.125.252.22.35a.94.94 0 0 0 .344.229c.134.055.282.08.444.08a1.17 1.17 0 0 0 .435-.08c.138-.052.258-.138.359-.256zm2.415-.765a1.14 1.14 0 0 0-.086-.449c-.056-.135-.134-.25-.234-.348a1.03 1.03 0 0 0-.354-.227c-.138-.054-.287-.081-.448-.081s-.312.027-.449.081-.256.129-.355.227a1.04 1.04 0 0 0-.233.348c-.057.134-.084.284-.084.449a1.17 1.17 0 0 0 .084.449c.057.133.134.25.233.346s.217.174.355.227a1.2 1.2 0 0 0 .449.08c.161 0 .31-.025.448-.08s.256-.129.354-.227.178-.213.234-.346a1.15 1.15 0 0 0 .086-.449zm-.429.306a.72.72 0 0 1-.151.246c-.065.07-.144.127-.236.166s-.194.061-.307.061-.217-.02-.308-.061a.7.7 0 0 1-.385-.412c-.035-.094-.052-.197-.052-.307a.88.88 0 0 1 .052-.308.7.7 0 0 1 .15-.246c.066-.071.144-.125.235-.167a.76.76 0 0 1 .308-.06.78.78 0 0 1 .307.06c.092.041.17.096.236.167a.72.72 0 0 1 .151.246c.034.095.051.197.051.308a.87.87 0 0 1-.051.307zm1.758.397a.49.49 0 0 1-.151.059.77.77 0 0 1-.164.018c-.125 0-.229-.025-.312-.076a.86.86 0 0 1-.227-.207l-.279.217c.106.148.223.252.353.307a1.19 1.19 0 0 0 .464.082 1.37 1.37 0 0 0 .308-.035.82.82 0 0 0 .269-.113c.08-.053.143-.121.191-.205s.072-.186.072-.305a.58.58 0 0 0-.054-.264.49.49 0 0 0-.148-.18c-.062-.049-.135-.087-.219-.115a1.9 1.9 0 0 0-.265-.069l-.199-.045c-.064-.019-.122-.039-.17-.063s-.089-.051-.117-.083-.043-.069-.043-.115.013-.09.038-.127.057-.068.097-.092.083-.042.132-.054.099-.018.146-.018c.104 0 .194.023.267.069a.55.55 0 0 1 .177.182l.292-.193c-.073-.134-.172-.231-.299-.292s-.265-.09-.415-.09a1.02 1.02 0 0 0-.287.041c-.093.026-.177.065-.251.116s-.134.116-.179.194-.067.167-.067.269c0 .108.02.195.06.265a.49.49 0 0 0 .162.168.95.95 0 0 0 .236.104l.282.072.166.041a.58.58 0 0 1 .145.059c.042.027.075.057.1.094s.039.082.039.139-.014.105-.041.146-.064.074-.109.099zm1.081-.305c0 .107.006.205.02.295s.041.16.083.221.1.107.175.139a.76.76 0 0 0 .301.049 1.29 1.29 0 0 0 .208-.018c.073-.012.141-.031.2-.059l-.013-.316a.72.72 0 0 1-.152.053c-.055.012-.107.018-.158.018-.078 0-.137-.014-.179-.037s-.073-.061-.094-.104a.39.39 0 0 1-.036-.152l-.004-.191V60.34h.62v-.297h-.62v-.596h-.351v.596h-.458v.297h.458v1.15zm3.237-1.793c.018-.096.05-.178.095-.247a.45.45 0 0 1 .178-.159c.073-.038.165-.056.275-.056.099 0 .187.019.265.058s.151.092.22.162l.247-.265c-.095-.095-.207-.167-.332-.211a1.17 1.17 0 0 0-.391-.067c-.134 0-.261.021-.378.06a.76.76 0 0 0-.305.194.92.92 0 0 0-.202.341c-.049.139-.075.305-.075.5v.358h-.43v.296h.43v1.131h-.484v.35h1.966v-.35H45.8V60.66h.728v-.296H45.8v-.349c0-.117.01-.223.027-.318zm1.89 2.084l.979-.918.23-.227a1.83 1.83 0 0 0 .198-.243 1.11 1.11 0 0 0 .139-.28c.034-.101.052-.215.052-.34a.83.83 0 0 0-.079-.372c-.052-.108-.123-.197-.211-.27s-.19-.126-.307-.164-.242-.056-.374-.056-.248.018-.358.051a1 1 0 0 0-.299.151c-.087.065-.162.148-.22.249s-.098.215-.119.343l.409.036a.63.63 0 0 1 .201-.368c.104-.093.238-.139.399-.139.081 0 .157.012.228.038s.131.062.184.108a.49.49 0 0 1 .123.168.53.53 0 0 1 .045.224c0 .078-.01.148-.027.211a.67.67 0 0 1-.083.181c-.038.058-.084.119-.142.179l-.197.2-1.199 1.167v.43h2.047v-.35h-1.621v-.009zm2.542.309c.055-.053.083-.117.083-.191s-.026-.139-.079-.191-.116-.078-.19-.078-.14.027-.191.078a.26.26 0 0 0-.079.191c0 .074.027.139.083.191s.118.078.188.078.13-.027.185-.078zm2.606-.977a3.67 3.67 0 0 0 .045-.56 3.67 3.67 0 0 0-.045-.561 1.73 1.73 0 0 0-.167-.531c-.081-.161-.19-.292-.329-.395s-.318-.155-.537-.155-.398.051-.537.155-.248.234-.329.395-.136.337-.167.531a3.66 3.66 0 0 0-.045.561 3.67 3.67 0 0 0 .045.56 1.73 1.73 0 0 0 .167.531 1.12 1.12 0 0 0 .329.395c.139.104.319.154.537.154s.397-.051.537-.154.249-.234.329-.395.136-.337.167-.531zm-.341-.3l-.034.289a1.8 1.8 0 0 1-.072.285c-.031.094-.073.176-.125.246s-.116.131-.189.174-.165.064-.27.064-.195-.021-.269-.064a.59.59 0 0 1-.191-.174c-.053-.07-.094-.152-.125-.246s-.056-.188-.072-.285-.027-.193-.034-.289l-.009-.26.009-.26.034-.29c.017-.097.04-.192.072-.284a.91.91 0 0 1 .125-.247c.052-.071.116-.129.191-.172s.163-.065.269-.065.194.021.27.065a.61.61 0 0 1 .189.172c.053.072.095.154.125.247s.056.187.072.284l.034.29.009.26-.009.26zm2.628.841c.053-.115.078-.244.078-.389a.9.9 0 0 0-.044-.284c-.029-.091-.071-.173-.126-.244a.76.76 0 0 0-.197-.182.79.79 0 0 0-.261-.105v-.009c.081-.021.154-.056.218-.103s.119-.104.164-.167.079-.131.104-.207a.73.73 0 0 0 .036-.224c0-.125-.023-.239-.07-.341s-.109-.188-.19-.261-.177-.127-.287-.168-.231-.06-.359-.06-.249.021-.36.06-.206.098-.287.168-.145.159-.19.261-.07.215-.07.341a.73.73 0 0 0 .036.224c.024.075.058.144.103.207s.099.118.164.167.137.082.218.103v.009a.79.79 0 0 0-.261.105c-.077.05-.144.11-.197.182a.76.76 0 0 0-.125.244c-.03.091-.045.187-.045.284a.92.92 0 0 0 .078.389.88.88 0 0 0 .215.293c.092.082.2.143.323.184s.258.062.398.062.272-.02.397-.062.231-.102.323-.184a.87.87 0 0 0 .214-.293zm-1.466-1.895c0-.153.049-.278.146-.377a.52.52 0 0 1 .384-.147.52.52 0 0 1 .384.147c.097.099.146.224.146.377a.51.51 0 0 1-.146.376c-.098.099-.225.148-.384.148s-.287-.049-.384-.148a.51.51 0 0 1-.146-.376zm1.118 1.735c-.033.078-.079.145-.137.201s-.126.098-.202.129a.66.66 0 0 1-.249.047.66.66 0 0 1-.25-.047.64.64 0 0 1-.201-.129.6.6 0 0 1-.137-.201c-.032-.076-.049-.162-.049-.254s.017-.18.049-.257a.6.6 0 0 1 .137-.2.66.66 0 0 1 .451-.176.68.68 0 0 1 .249.046c.076.032.144.075.202.13s.104.122.137.2.049.163.049.257-.017.178-.049.254zm3.578.617a1.03 1.03 0 0 0 .334-.23 1.1 1.1 0 0 0 .222-.35 1.17 1.17 0 0 0 .081-.439c0-.159-.027-.306-.081-.44s-.128-.251-.224-.349-.213-.176-.349-.231a1.19 1.19 0 0 0-.451-.083c-.152 0-.292.031-.42.095s-.238.15-.333.265h-.009v-.306h-.35v3.123h.35V61.77h.009a.84.84 0 0 0 .311.303 1 1 0 0 0 .497.121c.147-.001.284-.028.413-.083zm-.793-.3c-.091-.039-.169-.096-.236-.166s-.116-.152-.15-.246a.9.9 0 0 1-.051-.307.93.93 0 0 1 .051-.308c.034-.094.085-.176.15-.246a.74.74 0 0 1 .236-.167c.092-.04.194-.06.308-.06s.217.021.308.06a.72.72 0 0 1 .235.167.7.7 0 0 1 .15.246.88.88 0 0 1 .052.308c0 .109-.018.213-.052.307a.7.7 0 0 1-.15.246.69.69 0 0 1-.235.166c-.091.041-.194.061-.308.061s-.216-.02-.308-.061zm2.804.382c.196 0 .371-.031.52-.096s.288-.178.413-.338l-.265-.207c-.084.105-.178.184-.282.238a.85.85 0 0 1-.386.08c-.097 0-.184-.018-.265-.053s-.151-.086-.211-.146-.108-.133-.146-.215a.73.73 0 0 1-.064-.258h1.696v-.113a1.39 1.39 0 0 0-.071-.463.97.97 0 0 0-.205-.346.88.88 0 0 0-.316-.215c-.123-.049-.258-.074-.404-.074a1.13 1.13 0 0 0-.431.081c-.131.053-.246.129-.341.227a1.01 1.01 0 0 0-.224.349c-.055.137-.081.285-.081.447 0 .152.024.295.074.43s.119.252.21.35a.99.99 0 0 0 .334.236c.132.057.281.086.445.086zm-.472-1.72c.12-.108.277-.162.472-.162s.347.053.458.162.168.251.174.43h-1.319c.023-.179.096-.323.215-.43zm2.945-.485a.87.87 0 0 0-.243.034c-.076.022-.142.053-.202.089s-.112.08-.155.127a.64.64 0 0 0-.101.148h-.009l-.005-.174-.004-.171h-.333l.009.229.009.27v1.601h.35v-1.023c0-.241.048-.432.146-.571s.254-.208.469-.208c.065 0 .129.009.188.026l.022-.354a.31.31 0 0 0-.071-.018c-.022-.003-.046-.005-.07-.005zm1.748 1.897a.93.93 0 0 0 .344.229 1.16 1.16 0 0 0 .444.08 1.17 1.17 0 0 0 .436-.08.9.9 0 0 0 .358-.256l-.26-.246c-.125.174-.304.26-.534.26-.108 0-.206-.02-.292-.061a.63.63 0 0 1-.222-.168.78.78 0 0 1-.143-.248.87.87 0 0 1-.052-.303.99.99 0 0 1 .045-.303c.029-.094.074-.177.132-.249s.132-.127.222-.168.193-.06.31-.06c.104 0 .199.021.288.06a.7.7 0 0 1 .241.196l.279-.247c-.104-.114-.227-.198-.365-.251s-.288-.081-.442-.081a1.14 1.14 0 0 0-.442.083 1.02 1.02 0 0 0-.344.231c-.096.098-.169.215-.222.349s-.078.281-.078.44a1.19 1.19 0 0 0 .078.443 1.05 1.05 0 0 0 .219.35zm3.571.078l-.009-.186v-.901c0-.3-.069-.521-.206-.668s-.363-.22-.674-.22a1.33 1.33 0 0 0-.451.079.98.98 0 0 0-.384.244l.22.229a.8.8 0 0 1 .29-.172 1.01 1.01 0 0 1 .335-.056c.165 0 .292.039.384.117s.137.193.137.346v.062h-.135l-.424.019a1.69 1.69 0 0 0-.431.089.82.82 0 0 0-.334.219c-.089.1-.134.236-.134.408 0 .102.021.191.062.27s.098.143.168.195.153.092.247.119a1.17 1.17 0 0 0 .302.039c.162 0 .3-.033.416-.102a.82.82 0 0 0 .276-.266h.008l.003.154a.7.7 0 0 0 .02.16h.337c-.01-.053-.018-.114-.023-.178zm-.359-.697c-.003.088-.018.168-.045.246a.62.62 0 0 1-.117.199c-.051.057-.114.102-.191.135s-.165.053-.267.053c-.132 0-.242-.027-.33-.082s-.132-.15-.132-.281c0-.145.065-.248.197-.309s.31-.096.535-.096h.35v.135zm1.262-2.516h-.351v3.391h.351V58.75zm.969 0h-.35v3.391h.35V58.75zm.486 4.01h.344l.368-1.076h-.407l-.305 1.076zm3.37-.906c-.055.012-.107.018-.158.018-.078 0-.137-.014-.179-.037s-.074-.061-.096-.104a.39.39 0 0 1-.036-.152l-.004-.191V60.34h.62v-.297h-.62v-.596h-.35v.596h-.458v.297h.458v1.152c0 .107.007.205.02.295s.041.16.083.221.101.107.176.139a.76.76 0 0 0 .301.049 1.3 1.3 0 0 0 .209-.018c.072-.012.14-.031.199-.059l-.014-.316a.81.81 0 0 1-.151.051zm2.109-1.629c-.066-.074-.148-.132-.249-.174s-.219-.063-.357-.063a.86.86 0 0 0-.229.031.96.96 0 0 0-.195.081c-.059.033-.108.07-.15.11s-.074.082-.098.124h-.01V58.75h-.351v3.391h.351v-1.023a1.29 1.29 0 0 1 .039-.327.73.73 0 0 1 .115-.256c.053-.071.12-.126.202-.166s.181-.058.294-.058c.165 0 .286.051.364.153s.117.24.117.417v1.26h.349v-1.296a1.27 1.27 0 0 0-.046-.347c-.031-.107-.08-.198-.146-.273zm2.074 1.566c-.105.053-.233.08-.386.08a.66.66 0 0 1-.266-.053.73.73 0 0 1-.211-.146c-.06-.061-.108-.133-.146-.215a.73.73 0 0 1-.063-.258h1.695v-.113a1.39 1.39 0 0 0-.07-.463.97.97 0 0 0-.206-.346c-.088-.093-.193-.166-.315-.215a1.08 1.08 0 0 0-.404-.074c-.155 0-.3.027-.431.081s-.246.129-.341.227a1.01 1.01 0 0 0-.224.349c-.055.137-.081.285-.081.447 0 .152.024.295.074.43a.99.99 0 0 0 .21.35.98.98 0 0 0 .334.236 1.11 1.11 0 0 0 .445.086c.196 0 .371-.031.52-.096s.287-.178.414-.338l-.266-.207c-.084.105-.179.183-.282.238zm-.858-1.318c.119-.108.276-.162.472-.162s.347.053.457.162.169.251.175.43h-1.318c.022-.179.094-.323.214-.43zm1.912.067v1.601h.35v-1.023a1.29 1.29 0 0 1 .039-.327c.024-.098.064-.184.116-.256s.12-.126.202-.166.181-.058.294-.058c.164 0 .285.051.363.153s.118.24.118.417v1.26h.349v-1.296a1.27 1.27 0 0 0-.046-.347c-.032-.106-.081-.197-.146-.272a.67.67 0 0 0-.25-.174.92.92 0 0 0-.356-.063.86.86 0 0 0-.242.034.84.84 0 0 0-.201.089c-.061.037-.112.08-.156.127a.67.67 0 0 0-.101.148h-.009l-.005-.174-.004-.171h-.332l.009.229.008.269zm5.427.255c-.048-.123-.114-.229-.2-.316a.86.86 0 0 0-.305-.205c-.117-.048-.246-.072-.383-.072a1.25 1.25 0 0 0-.218.022.74.74 0 0 0-.21.072l-.009-.009.854-1.323h-.439l-.844 1.34a2.83 2.83 0 0 0-.217.413 1.25 1.25 0 0 0-.085.48 1.02 1.02 0 0 0 .081.416c.054.123.129.227.225.312s.209.15.339.197.27.068.419.068a1.28 1.28 0 0 0 .421-.068c.13-.047.242-.111.338-.197s.171-.189.225-.312.081-.262.081-.416c-.001-.144-.026-.279-.073-.402zm-.358.684a.66.66 0 0 1-.146.211.62.62 0 0 1-.217.135.78.78 0 0 1-.271.047.77.77 0 0 1-.269-.047c-.084-.031-.156-.076-.218-.135s-.11-.129-.146-.211a.71.71 0 0 1-.053-.279c0-.102.018-.194.053-.278s.085-.155.146-.213a.63.63 0 0 1 .218-.134c.084-.032.173-.048.269-.048s.186.016.271.048.156.076.217.134a.63.63 0 0 1 .146.213c.036.083.054.176.054.278a.71.71 0 0 1-.054.279zm2.774.312h-1.621v-.01l.979-.918.23-.227c.073-.076.141-.157.199-.243a1.11 1.11 0 0 0 .139-.28c.034-.101.052-.215.052-.34a.83.83 0 0 0-.079-.372.78.78 0 0 0-.211-.27.94.94 0 0 0-.308-.164 1.19 1.19 0 0 0-.372-.056c-.129 0-.249.018-.359.051a1 1 0 0 0-.299.151c-.088.065-.162.148-.22.249s-.098.215-.119.343l.409.036a.63.63 0 0 1 .201-.368.58.58 0 0 1 .399-.139c.081 0 .157.012.228.038s.131.062.184.108a.49.49 0 0 1 .123.168c.029.065.045.14.045.224a.85.85 0 0 1-.026.211c-.019.062-.046.123-.083.181s-.085.119-.143.179l-.196.2-1.199 1.167v.43h2.048v-.349zm.736.377c.068 0 .131-.027.187-.078s.082-.117.082-.191-.025-.139-.078-.191-.116-.078-.19-.078-.14.027-.191.078a.26.26 0 0 0-.079.191c0 .074.027.139.083.191s.117.078.186.078zm2.093-.051a1.01 1.01 0 0 0 .346-.213.96.96 0 0 0 .229-.332c.056-.129.083-.273.083-.432 0-.149-.023-.288-.071-.415a1.02 1.02 0 0 0-.206-.332.96.96 0 0 0-.321-.22c-.124-.052-.263-.078-.416-.078a1.39 1.39 0 0 0-.208.016.61.61 0 0 0-.199.061l.013-.856h1.297v-.35h-1.664l-.033 1.65c.098-.057.201-.104.315-.141s.224-.056.332-.056.214.016.31.047a.72.72 0 0 1 .25.139.65.65 0 0 1 .165.226c.041.091.061.194.061.31 0 .111-.018.211-.054.301a.71.71 0 0 1-.146.23.64.64 0 0 1-.217.148c-.081.033-.171.051-.267.051a.6.6 0 0 1-.355-.109c-.104-.074-.183-.17-.236-.289l-.377.143c.086.178.203.318.353.422s.343.156.585.156c.153-.001.297-.026.431-.077zm3.029-1.815a1.01 1.01 0 0 0-.35-.231c-.135-.055-.286-.083-.45-.083-.151 0-.292.031-.421.095s-.238.15-.333.265h-.009v-.306h-.35v3.123h.35V61.77h.009c.065.117.17.219.312.303a1 1 0 0 0 .497.121 1.04 1.04 0 0 0 .412-.082 1.03 1.03 0 0 0 .335-.23c.095-.1.169-.215.222-.35a1.17 1.17 0 0 0 .081-.439c0-.159-.027-.306-.081-.44a1.06 1.06 0 0 0-.224-.351zm-.124 1.096a.72.72 0 0 1-.151.246.7.7 0 0 1-.234.166c-.092.041-.193.061-.308.061s-.216-.02-.308-.061-.17-.096-.236-.166a.7.7 0 0 1-.149-.246.9.9 0 0 1-.052-.307c0-.111.018-.213.052-.308a.7.7 0 0 1 .149-.246.74.74 0 0 1 .236-.167.76.76 0 0 1 .308-.06c.115 0 .216.021.308.06s.169.096.234.167a.72.72 0 0 1 .151.246c.034.095.052.197.052.308a.92.92 0 0 1-.052.307zm3.889-1.096c-.097-.099-.213-.176-.349-.231a1.19 1.19 0 0 0-.45-.083c-.153 0-.293.031-.421.095a1.02 1.02 0 0 0-.334.265h-.009v-.306h-.35v3.123h.35V61.77h.009c.066.117.171.219.312.303a1 1 0 0 0 .497.121c.146 0 .283-.027.413-.082a1.04 1.04 0 0 0 .334-.23 1.1 1.1 0 0 0 .223-.35 1.17 1.17 0 0 0 .081-.439c0-.159-.027-.306-.081-.44s-.13-.253-.225-.351zm-.124 1.096c-.035.094-.085.176-.15.246a.71.71 0 0 1-.234.166c-.092.041-.194.061-.308.061s-.218-.02-.309-.061a.69.69 0 0 1-.235-.166c-.065-.07-.116-.152-.15-.246a.9.9 0 0 1-.052-.307c0-.111.018-.213.052-.308s.085-.176.15-.246.145-.125.235-.167.193-.06.309-.06.216.021.308.06.169.096.234.167.115.152.15.246.052.197.052.308-.018.214-.052.307zm2.324.7c.149-.064.287-.178.412-.338l-.265-.207c-.083.105-.179.184-.283.238s-.233.08-.385.08c-.097 0-.185-.018-.265-.053s-.151-.086-.212-.146-.108-.133-.146-.215a.73.73 0 0 1-.064-.258h1.696v-.113a1.39 1.39 0 0 0-.071-.463c-.047-.136-.115-.251-.204-.346s-.193-.166-.317-.215-.257-.074-.403-.074a1.13 1.13 0 0 0-.431.081.99.99 0 0 0-.342.227 1.04 1.04 0 0 0-.224.349c-.055.137-.08.285-.08.447 0 .152.023.295.073.43a1.02 1.02 0 0 0 .21.35c.092.1.203.178.335.236s.28.086.445.086c.197-.001.371-.032.521-.096zm-.992-1.625c.12-.108.276-.162.472-.162s.346.053.457.162a.6.6 0 0 1 .175.43h-1.319a.67.67 0 0 1 .215-.43zm2.876-.135c.065 0 .129.009.188.026l.022-.354a.3.3 0 0 0-.07-.018c-.025-.003-.05-.005-.073-.005-.087 0-.168.012-.242.034s-.143.053-.202.089a.72.72 0 0 0-.154.127c-.044.048-.077.098-.102.148h-.009l-.005-.174-.004-.171h-.332l.009.229.009.27v1.601h.35v-1.023c0-.241.049-.432.146-.571s.254-.208.469-.208zm4.347.152a.51.51 0 0 1 .08.184.99.99 0 0 1 .022.211v1.255h.35v-1.274c0-.134-.014-.256-.04-.365s-.072-.203-.135-.279a.61.61 0 0 0-.246-.175c-.103-.04-.229-.061-.378-.061-.162 0-.293.035-.396.105a1 1 0 0 0-.269.294l-.069-.123c-.028-.046-.068-.09-.12-.13a.67.67 0 0 0-.19-.103c-.076-.028-.171-.043-.284-.043a.86.86 0 0 0-.243.034c-.074.022-.142.053-.201.089a.7.7 0 0 0-.155.127c-.044.048-.077.098-.102.148h-.009l-.005-.174-.004-.171h-.332l.009.229.009.27v1.601h.35v-1.023a1.29 1.29 0 0 1 .039-.327.75.75 0 0 1 .116-.256.54.54 0 0 1 .203-.166c.081-.039.18-.058.294-.058.143 0 .246.049.31.146s.093.262.093.495v1.188h.352V60.93a.74.74 0 0 1 .042-.254.61.61 0 0 1 .116-.194.51.51 0 0 1 .174-.125c.065-.03.135-.045.21-.045a.56.56 0 0 1 .252.05c.065.031.118.075.157.128zm1.395-1.085c.048-.047.071-.109.071-.184a.25.25 0 0 0-.073-.179c-.05-.051-.11-.076-.183-.076s-.132.025-.182.076-.074.111-.074.179c0 .075.024.136.072.184s.109.072.184.072.138-.024.185-.072zm-.008.637h-.351v2.099h.351v-2.099zm2.413 2.099v-1.296c0-.125-.016-.241-.047-.347a.72.72 0 0 0-.146-.272.68.68 0 0 0-.249-.174c-.101-.042-.22-.063-.356-.063a.86.86 0 0 0-.243.034.82.82 0 0 0-.201.089.7.7 0 0 0-.155.127c-.044.048-.077.098-.102.148h-.009l-.004-.174-.004-.171h-.332l.009.229.009.27v1.601h.349v-1.023a1.29 1.29 0 0 1 .039-.327.75.75 0 0 1 .116-.256.54.54 0 0 1 .202-.166c.082-.039.181-.058.295-.058.163 0 .285.051.363.153s.116.24.116.417v1.26h.35zm2.384-.498v-1.601h-.351v1.023c0 .119-.013.229-.039.326s-.064.184-.116.256-.119.129-.202.168a.71.71 0 0 1-.294.057c-.164 0-.285-.051-.364-.152s-.116-.24-.116-.418v-1.259h-.35v1.296a1.25 1.25 0 0 0 .047.348c.032.105.081.195.146.271s.149.133.25.174.22.062.356.062c.087 0 .168-.01.242-.033a.77.77 0 0 0 .202-.088.79.79 0 0 0 .154-.129c.044-.049.077-.098.102-.148h.009l.005.176.004.17h.333l-.009-.229-.009-.27zm1.553.211c-.055.012-.107.018-.157.018-.078 0-.138-.014-.18-.037s-.072-.061-.094-.104a.39.39 0 0 1-.036-.152l-.004-.191V60.34h.619v-.297h-.619v-.596h-.351v.596h-.458v.297h.458v1.152a1.92 1.92 0 0 0 .021.295c.014.086.041.16.083.221s.1.107.175.139a.76.76 0 0 0 .301.049 1.29 1.29 0 0 0 .208-.018c.073-.012.141-.031.199-.059l-.013-.316a.8.8 0 0 1-.152.051zm2.143-1.577c-.088-.093-.193-.166-.315-.215s-.258-.074-.404-.074a1.13 1.13 0 0 0-.431.081c-.132.053-.246.129-.341.227a1.01 1.01 0 0 0-.224.349c-.055.137-.081.285-.081.447 0 .152.024.295.074.43a.99.99 0 0 0 .21.35.98.98 0 0 0 .334.236c.132.057.281.086.445.086.196 0 .371-.031.52-.096s.288-.178.414-.338l-.266-.207c-.084.105-.179.184-.282.238s-.233.08-.386.08c-.097 0-.184-.018-.266-.053a.73.73 0 0 1-.211-.146c-.06-.061-.108-.133-.146-.215a.73.73 0 0 1-.064-.258h1.696v-.113a1.39 1.39 0 0 0-.07-.463.95.95 0 0 0-.206-.346zm-1.42.626a.67.67 0 0 1 .216-.43c.119-.108.277-.162.472-.162s.347.053.457.162.169.251.175.43h-1.32zm2.334.781l-.305 1.076h.345l.369-1.076h-.409zm-82.53 3.402c-.097-.1-.212-.176-.349-.232a1.19 1.19 0 0 0-.451-.082c-.152 0-.292.031-.42.094a1.01 1.01 0 0 0-.334.266h-.009v-.307h-.35v3.123h.35v-1.395h.009c.066.117.171.219.312.303s.308.121.497.121c.146 0 .284-.027.413-.082a1.04 1.04 0 0 0 .334-.23c.095-.1.168-.215.222-.35a1.17 1.17 0 0 0 .081-.439 1.16 1.16 0 0 0-.081-.439 1.06 1.06 0 0 0-.224-.351zm-.124 1.096a.72.72 0 0 1-.151.246.69.69 0 0 1-.235.166.74.74 0 0 1-.308.061c-.114 0-.216-.02-.308-.061s-.169-.096-.236-.166-.116-.152-.15-.246a.9.9 0 0 1-.051-.307.94.94 0 0 1 .051-.309c.035-.094.085-.176.15-.246s.145-.125.236-.166.194-.061.308-.061.216.021.308.061a.72.72 0 0 1 .386.412.91.91 0 0 1 .051.309c0 .109-.017.213-.051.307zm.89.742h.351v-3.391h-.351v3.391zm2.765-.498v-1.602h-.349v1.023c0 .119-.013.229-.039.326s-.064.184-.116.256a.53.53 0 0 1-.202.168.71.71 0 0 1-.294.057c-.165 0-.285-.051-.363-.152s-.117-.24-.117-.418v-1.26h-.35v1.297a1.25 1.25 0 0 0 .046.348c.032.105.081.195.146.271s.149.133.25.174.219.062.356.062c.087 0 .168-.01.243-.033s.142-.053.202-.088a.8.8 0 0 0 .155-.129.66.66 0 0 0 .101-.148h.009l.005.176.004.17h.332l-.009-.229-.01-.269zm1.774-.551a.69.69 0 0 0-.219-.115c-.084-.027-.172-.051-.265-.068l-.199-.045a1.08 1.08 0 0 1-.171-.064c-.05-.023-.088-.051-.117-.082s-.043-.068-.043-.115.013-.09.038-.127.057-.068.096-.092.083-.041.132-.055.099-.018.146-.018c.104 0 .194.023.267.07s.133.105.178.182l.292-.193c-.072-.135-.171-.232-.299-.291s-.265-.09-.415-.09c-.098 0-.195.014-.288.041s-.176.064-.251.115-.135.115-.18.193a.53.53 0 0 0-.067.27.51.51 0 0 0 .06.264c.04.07.095.125.162.168s.145.078.235.105l.283.072.166.039c.055.016.102.035.144.061a.35.35 0 0 1 .101.094c.026.035.039.082.039.139s-.014.105-.041.146-.062.074-.107.1a.49.49 0 0 1-.151.059.77.77 0 0 1-.164.018c-.126 0-.23-.025-.312-.076a.86.86 0 0 1-.227-.207l-.279.217c.105.148.223.252.353.307s.285.082.464.082a1.37 1.37 0 0 0 .308-.035.83.83 0 0 0 .269-.113c.08-.053.143-.121.191-.205s.072-.186.072-.305c0-.105-.018-.193-.054-.266a.47.47 0 0 0-.147-.18zm2.495.596h-.009l-.651-1.646h-.408l.87 2.113-.143.395c-.039.105-.085.188-.139.25s-.138.096-.251.096c-.051 0-.096-.002-.135-.008s-.076-.014-.112-.029l-.045.307a.48.48 0 0 0 .155.045l.159.006a.73.73 0 0 0 .267-.043.51.51 0 0 0 .188-.121.78.78 0 0 0 .136-.188l.11-.244 1.014-2.58h-.382l-.624 1.647zm3.075-1.393a1.03 1.03 0 0 0-.354-.227c-.137-.053-.287-.08-.448-.08s-.312.027-.449.08a1.03 1.03 0 0 0-.354.227c-.1.098-.178.213-.234.348s-.084.285-.084.449.028.312.084.447.135.252.234.348a1 1 0 0 0 .354.227c.138.055.288.08.449.08s.311-.025.448-.08.256-.129.354-.227a1.03 1.03 0 0 0 .233-.348c.057-.135.086-.283.086-.447s-.029-.314-.086-.449a1.05 1.05 0 0 0-.233-.348zm-.109 1.104c-.035.094-.084.176-.151.246a.69.69 0 0 1-.235.166c-.092.041-.194.061-.307.061s-.216-.02-.308-.061-.17-.096-.236-.166a.7.7 0 0 1-.15-.246c-.035-.094-.052-.197-.052-.307a.89.89 0 0 1 .052-.309.69.69 0 0 1 .15-.246c.066-.07.145-.125.236-.166s.194-.061.308-.061a.76.76 0 0 1 .307.061.72.72 0 0 1 .235.166c.067.07.116.152.151.246a.91.91 0 0 1 .052.309.93.93 0 0 1-.052.307zm2.69.244v-1.602h-.35v1.023c0 .119-.013.229-.039.326s-.064.184-.116.256-.12.129-.202.168-.181.057-.294.057c-.165 0-.285-.051-.364-.152s-.117-.24-.117-.418v-1.26h-.35v1.297a1.25 1.25 0 0 0 .047.348c.032.105.081.195.146.271s.149.133.25.174.219.062.356.062c.086 0 .167-.01.243-.033s.142-.053.202-.088a.8.8 0 0 0 .155-.129.63.63 0 0 0 .101-.148h.009l.005.176.004.17h.333l-.009-.229-.01-.269zm1.585-1.655c-.086 0-.167.012-.242.033s-.143.053-.202.09a.7.7 0 0 0-.155.127c-.044.049-.077.098-.102.148h-.009l-.004-.174-.004-.172h-.333l.009.229.009.27v1.602h.35V65.9c0-.24.049-.432.146-.57s.254-.209.47-.209a.69.69 0 0 1 .188.027l.022-.355a.46.46 0 0 0-.071-.018l-.072-.004zm3.466.315c-.097-.1-.212-.176-.349-.232s-.286-.082-.451-.082c-.151 0-.292.031-.419.094a.99.99 0 0 0-.334.266h-.009v-.307h-.35v3.123h.35v-1.395h.009c.066.117.17.219.312.303s.307.121.497.121c.146 0 .283-.027.413-.082s.24-.133.334-.23a1.1 1.1 0 0 0 .222-.35 1.17 1.17 0 0 0 .081-.439 1.16 1.16 0 0 0-.081-.439 1.08 1.08 0 0 0-.225-.351zm-.124 1.096a.72.72 0 0 1-.151.246.71.71 0 0 1-.235.166.74.74 0 0 1-.308.061c-.115 0-.216-.02-.308-.061s-.169-.096-.236-.166a.7.7 0 0 1-.149-.246.9.9 0 0 1-.052-.307c0-.111.018-.213.052-.309s.084-.176.149-.246a.76.76 0 0 1 .236-.166c.091-.039.193-.061.308-.061a.76.76 0 0 1 .308.061.73.73 0 0 1 .235.166.72.72 0 0 1 .151.246.91.91 0 0 1 .051.309.88.88 0 0 1-.051.307zm2.498-1.174a.69.69 0 0 0-.25-.174.94.94 0 0 0-.356-.062.81.81 0 0 0-.229.031c-.072.021-.137.049-.196.08s-.108.07-.15.109a.52.52 0 0 0-.098.125h-.01v-1.584h-.35v3.391h.35V65.9c0-.119.013-.229.039-.326a.75.75 0 0 1 .116-.256c.053-.072.12-.127.202-.166a.68.68 0 0 1 .294-.059c.164 0 .285.051.363.152s.117.24.117.418v1.26h.35v-1.297a1.25 1.25 0 0 0-.046-.348.75.75 0 0 0-.146-.27zm2.549.07c-.099-.098-.217-.172-.355-.227s-.287-.08-.448-.08-.311.027-.449.08a1.03 1.03 0 0 0-.354.227c-.1.098-.178.213-.234.348s-.085.285-.085.449.028.312.085.447.134.252.234.348a1 1 0 0 0 .354.227c.138.055.288.08.449.08s.311-.025.448-.08.256-.129.355-.227a1.03 1.03 0 0 0 .233-.348c.056-.135.085-.283.085-.447s-.029-.314-.085-.449a1.05 1.05 0 0 0-.233-.348zm-.109 1.104a.72.72 0 0 1-.151.246.69.69 0 0 1-.235.166.74.74 0 0 1-.307.061.74.74 0 0 1-.307-.061c-.092-.039-.17-.096-.236-.166a.7.7 0 0 1-.15-.246c-.035-.094-.051-.197-.051-.307s.017-.213.051-.309a.7.7 0 0 1 .15-.246c.066-.07.144-.125.236-.166a.77.77 0 0 1 .307-.061c.113 0 .216.021.307.061a.71.71 0 0 1 .235.166c.066.07.117.152.151.246a.91.91 0 0 1 .052.309c0 .109-.018.213-.052.307zm2.498-1.174c-.067-.074-.149-.131-.25-.174s-.219-.062-.356-.062c-.086 0-.167.012-.242.033s-.142.053-.202.09-.112.08-.155.127a.66.66 0 0 0-.101.148h-.009l-.005-.174-.004-.172h-.333l.009.229.009.27v1.602h.35V65.9c0-.119.013-.229.039-.326a.75.75 0 0 1 .116-.256c.052-.072.12-.127.203-.166a.68.68 0 0 1 .294-.059c.164 0 .286.051.364.152s.117.24.117.418v1.26h.35v-1.297a1.29 1.29 0 0 0-.046-.348c-.034-.104-.083-.194-.148-.27zm2.42.053c-.088-.094-.193-.166-.316-.215a1.09 1.09 0 0 0-.405-.074c-.154 0-.299.027-.43.08s-.246.129-.341.227-.17.213-.224.35-.081.285-.081.447c0 .152.024.295.074.43s.119.252.21.35a.96.96 0 0 0 .334.234 1.08 1.08 0 0 0 .445.088c.196 0 .371-.031.52-.096s.287-.178.413-.338l-.265-.207c-.084.105-.178.184-.282.238a.85.85 0 0 1-.386.08c-.097 0-.184-.018-.266-.055s-.15-.084-.211-.145-.108-.133-.146-.215a.73.73 0 0 1-.064-.258h1.696v-.113c0-.172-.023-.328-.071-.463s-.115-.252-.204-.345zm-1.42.625c.023-.18.096-.322.215-.43s.276-.162.472-.162.347.055.458.162.168.25.174.43H60.13zm3.697-.364c.059-.072.132-.127.222-.168a.77.77 0 0 1 .31-.061.68.68 0 0 1 .287.061c.087.041.168.105.242.195l.278-.246c-.104-.115-.227-.197-.365-.252a1.24 1.24 0 0 0-.442-.08 1.14 1.14 0 0 0-.442.082c-.133.057-.247.133-.344.232s-.169.215-.222.35a1.18 1.18 0 0 0-.078.439 1.19 1.19 0 0 0 .078.443c.052.135.125.252.22.35a.93.93 0 0 0 .344.229c.134.055.282.08.444.08a1.17 1.17 0 0 0 .436-.08.9.9 0 0 0 .358-.256l-.26-.246a.62.62 0 0 1-.534.26c-.108 0-.206-.02-.292-.061a.64.64 0 0 1-.222-.168.78.78 0 0 1-.143-.248.87.87 0 0 1-.052-.303c0-.109.015-.209.045-.303s.074-.176.132-.249zm3.422-.244c-.099-.098-.217-.172-.355-.227a1.24 1.24 0 0 0-.448-.08 1.24 1.24 0 0 0-.449.08c-.138.055-.256.129-.355.227a1.05 1.05 0 0 0-.233.348c-.057.135-.085.285-.085.449s.028.312.085.447a1.03 1.03 0 0 0 .233.348c.099.098.217.174.355.227a1.2 1.2 0 0 0 .449.08c.161 0 .311-.025.448-.08s.256-.129.355-.227a1.03 1.03 0 0 0 .233-.348c.056-.135.085-.283.085-.447s-.029-.314-.085-.449a1.05 1.05 0 0 0-.233-.348zm-.109 1.104a.72.72 0 0 1-.151.246c-.065.07-.144.127-.236.166s-.194.061-.307.061-.216-.02-.308-.061-.169-.096-.236-.166a.7.7 0 0 1-.15-.246c-.035-.094-.051-.197-.051-.307s.017-.213.051-.309a.7.7 0 0 1 .15-.246c.066-.07.144-.125.236-.166a.78.78 0 0 1 .308-.061.76.76 0 0 1 .307.061c.092.041.17.096.236.166a.72.72 0 0 1 .151.246.91.91 0 0 1 .051.309.93.93 0 0 1-.051.307zm3.843-1.176a.6.6 0 0 0-.246-.174c-.103-.041-.228-.061-.378-.061-.161 0-.293.035-.395.105a.97.97 0 0 0-.269.293l-.07-.123a.5.5 0 0 0-.119-.131c-.051-.039-.114-.074-.191-.102a.8.8 0 0 0-.284-.043.89.89 0 0 0-.242.033c-.075.023-.143.053-.201.09a.71.71 0 0 0-.156.127.66.66 0 0 0-.101.148h-.009l-.005-.174-.004-.172h-.332l.008.229.009.27v1.602h.35V65.9c0-.119.013-.229.039-.326a.75.75 0 0 1 .116-.256.52.52 0 0 1 .202-.166c.082-.039.181-.059.294-.059.144 0 .246.049.31.146s.094.262.094.496v1.188h.351v-1.211c0-.092.014-.178.042-.254a.61.61 0 0 1 .117-.195.55.55 0 0 1 .173-.125c.065-.029.136-.045.211-.045a.56.56 0 0 1 .252.051.4.4 0 0 1 .157.129.51.51 0 0 1 .081.184.98.98 0 0 1 .022.211v1.256h.349V65.65c0-.135-.014-.256-.039-.365a.68.68 0 0 0-.136-.279zm2.623.08a1.03 1.03 0 0 0-.35-.232 1.19 1.19 0 0 0-.45-.082c-.152 0-.292.031-.421.094a1.01 1.01 0 0 0-.334.266h-.009v-.307h-.349v3.123h.349v-1.395h.009c.066.117.171.219.312.303s.309.121.497.121c.146 0 .283-.027.413-.082s.239-.133.335-.23a1.1 1.1 0 0 0 .222-.35 1.17 1.17 0 0 0 .081-.439 1.16 1.16 0 0 0-.081-.439 1.06 1.06 0 0 0-.224-.351zm-.125 1.096c-.035.094-.085.176-.15.246a.71.71 0 0 1-.234.166c-.092.041-.194.061-.308.061a.75.75 0 0 1-.309-.061.69.69 0 0 1-.235-.166c-.065-.07-.116-.152-.15-.246a.9.9 0 0 1-.052-.307c0-.111.018-.213.052-.309s.085-.176.15-.246a.73.73 0 0 1 .235-.166.78.78 0 0 1 .309-.061c.113 0 .216.021.308.061s.169.096.234.166.115.152.15.246a.91.91 0 0 1 .053.309.88.88 0 0 1-.053.307zm2.548.379v-.9c0-.301-.069-.521-.206-.67s-.363-.219-.675-.219c-.151 0-.303.025-.45.078s-.276.133-.385.244l.221.229c.084-.078.181-.135.289-.172s.222-.057.335-.057c.165 0 .292.039.384.117s.137.193.137.346v.062h-.135l-.425.018c-.153.012-.297.043-.43.09a.81.81 0 0 0-.335.219c-.09.1-.134.236-.134.408 0 .102.02.191.062.27a.58.58 0 0 0 .169.195c.069.053.153.092.247.119s.195.039.303.039c.161 0 .3-.033.415-.102a.82.82 0 0 0 .276-.266h.009l.003.154a.7.7 0 0 0 .02.16h.337l-.022-.178-.01-.184zm-.35-.512c-.003.088-.018.168-.045.246a.59.59 0 0 1-.117.199.54.54 0 0 1-.19.135c-.076.035-.165.053-.267.053a.59.59 0 0 1-.329-.084c-.089-.055-.133-.148-.133-.279 0-.145.065-.248.196-.309s.31-.096.535-.096h.35v.135zm2.517-1.041c-.065-.074-.148-.131-.249-.174s-.219-.062-.355-.062a.9.9 0 0 0-.244.033.86.86 0 0 0-.201.09c-.061.037-.112.08-.154.127s-.077.098-.102.148h-.009l-.005-.174-.004-.172h-.333l.009.229.009.27v1.602h.351V65.9c0-.119.013-.229.039-.326a.77.77 0 0 1 .115-.256c.053-.072.12-.127.203-.166s.18-.059.294-.059c.164 0 .286.051.363.152s.117.24.117.418v1.26h.35v-1.297a1.25 1.25 0 0 0-.047-.348c-.032-.104-.081-.194-.147-.27zm1.528 1.463h-.009l-.652-1.646h-.407l.87 2.113-.144.395c-.039.105-.086.188-.139.25s-.139.096-.251.096c-.052 0-.097-.002-.136-.008s-.076-.014-.112-.029l-.044.305c.047.023.099.039.154.045s.109.008.16.008a.73.73 0 0 0 .267-.043.5.5 0 0 0 .188-.121.78.78 0 0 0 .136-.188l.11-.244 1.014-2.58h-.382l-.623 1.647zm1.507-2.721l-.301 1.074h.341l.369-1.074h-.409zm1.787 2.125a.69.69 0 0 0-.219-.115 2.11 2.11 0 0 0-.266-.068l-.199-.045c-.064-.02-.122-.039-.171-.064s-.088-.051-.116-.082-.043-.068-.043-.115.013-.09.038-.127.057-.068.096-.092.083-.041.133-.055a.62.62 0 0 1 .146-.018.49.49 0 0 1 .268.07c.073.045.133.105.178.182l.292-.193c-.072-.135-.172-.232-.299-.291a.95.95 0 0 0-.416-.09c-.098 0-.194.014-.287.041s-.176.064-.251.115a.58.58 0 0 0-.179.193.53.53 0 0 0-.067.27.51.51 0 0 0 .061.264.48.48 0 0 0 .161.168.94.94 0 0 0 .235.105l.282.072.166.039a.58.58 0 0 1 .145.061.35.35 0 0 1 .101.094c.026.035.039.082.039.139s-.014.105-.041.146-.062.074-.107.1a.5.5 0 0 1-.151.059.77.77 0 0 1-.164.018.58.58 0 0 1-.311-.076.88.88 0 0 1-.228-.207l-.279.217c.106.148.224.252.354.307a1.19 1.19 0 0 0 .464.082 1.39 1.39 0 0 0 .309-.035.83.83 0 0 0 .269-.113c.08-.053.144-.121.191-.205s.071-.186.071-.305c0-.105-.018-.193-.054-.266a.52.52 0 0 0-.151-.18zm3.402.686v-.9c0-.301-.069-.521-.206-.67s-.362-.219-.675-.219c-.151 0-.303.025-.45.078a1 1 0 0 0-.384.244l.22.229c.084-.078.181-.135.289-.172s.222-.057.335-.057c.166 0 .293.039.385.117s.136.193.136.346v.062h-.134l-.426.018c-.153.012-.297.043-.43.09a.81.81 0 0 0-.334.219c-.09.1-.136.236-.136.408 0 .102.021.191.063.27a.59.59 0 0 0 .169.195.73.73 0 0 0 .246.119c.094.025.195.039.303.039.161 0 .301-.033.416-.102s.206-.158.275-.266h.009l.003.154a.7.7 0 0 0 .02.16h.337l-.022-.178-.009-.184zm-.351-.512c-.003.088-.018.168-.045.246a.6.6 0 0 1-.116.199.54.54 0 0 1-.19.135.64.64 0 0 1-.268.053.59.59 0 0 1-.329-.084c-.089-.055-.133-.148-.133-.279 0-.145.065-.248.196-.309s.31-.096.536-.096h.349v.135zm1.315-.727c.058-.072.132-.127.222-.168s.193-.061.311-.061c.104 0 .199.021.287.061a.71.71 0 0 1 .241.195l.279-.246a.98.98 0 0 0-.366-.252 1.23 1.23 0 0 0-.441-.08c-.162 0-.311.027-.443.082a1.04 1.04 0 0 0-.343.232c-.096.098-.17.215-.223.35a1.18 1.18 0 0 0-.077.439 1.19 1.19 0 0 0 .077.443c.053.134.126.252.221.35a.93.93 0 0 0 .343.229c.135.055.283.08.445.08.151 0 .297-.025.435-.08a.9.9 0 0 0 .359-.256l-.261-.246c-.126.174-.304.26-.533.26a.68.68 0 0 1-.293-.061c-.087-.039-.161-.096-.222-.168s-.109-.154-.144-.248a.87.87 0 0 1-.052-.303c0-.109.015-.209.045-.303s.074-.176.133-.249zm2.051 0c.059-.072.133-.127.223-.168a.77.77 0 0 1 .31-.061.68.68 0 0 1 .287.061c.087.041.168.105.242.195l.279-.246c-.105-.115-.229-.197-.366-.252s-.287-.08-.442-.08c-.161 0-.31.027-.442.082s-.247.133-.344.232-.169.215-.222.35a1.18 1.18 0 0 0-.078.439 1.19 1.19 0 0 0 .078.443c.053.134.126.252.22.35a.93.93 0 0 0 .344.229c.135.055.283.08.444.08a1.17 1.17 0 0 0 .436-.08.91.91 0 0 0 .359-.256l-.263-.245c-.125.174-.303.26-.533.26-.107 0-.205-.02-.293-.061a.64.64 0 0 1-.222-.168.8.8 0 0 1-.143-.248.87.87 0 0 1-.052-.303c0-.109.015-.209.045-.303a.75.75 0 0 1 .133-.25zm3.294-.261c-.089-.094-.194-.166-.316-.215a1.08 1.08 0 0 0-.404-.074c-.154 0-.3.027-.431.08s-.245.129-.341.227-.171.213-.224.35-.081.285-.081.447c0 .152.024.295.074.43s.118.252.21.35a.95.95 0 0 0 .334.234 1.08 1.08 0 0 0 .445.088c.196 0 .371-.031.52-.096s.288-.178.414-.338l-.266-.207c-.084.105-.179.184-.282.238s-.233.08-.386.08a.63.63 0 0 1-.265-.055c-.082-.035-.151-.084-.212-.145s-.108-.133-.146-.215a.75.75 0 0 1-.063-.258h1.696v-.113c0-.172-.023-.328-.071-.463s-.117-.252-.205-.345zm-1.42.625a.67.67 0 0 1 .215-.43c.119-.107.277-.162.472-.162s.347.055.458.162.168.25.174.43h-1.319zm3.347.189c-.062-.049-.136-.088-.22-.115a2.05 2.05 0 0 0-.265-.068l-.199-.045c-.064-.02-.121-.039-.17-.064s-.09-.051-.118-.082-.043-.068-.043-.115.013-.09.038-.127a.31.31 0 0 1 .098-.092c.039-.023.083-.041.132-.055s.099-.018.146-.018c.104 0 .193.023.267.07s.132.105.177.182l.293-.193c-.073-.135-.172-.232-.3-.291a.94.94 0 0 0-.414-.09c-.099 0-.195.014-.287.041s-.178.064-.252.115-.135.115-.18.193a.53.53 0 0 0-.066.27.51.51 0 0 0 .06.264c.04.07.095.125.162.168s.145.078.236.105l.282.072.165.039a.58.58 0 0 1 .145.061c.042.027.075.057.1.094s.039.082.039.139-.014.105-.041.146a.32.32 0 0 1-.106.1.5.5 0 0 1-.151.059.76.76 0 0 1-.163.018c-.126 0-.229-.025-.312-.076s-.157-.119-.227-.207l-.278.217c.104.148.222.252.353.307s.286.082.465.082a1.38 1.38 0 0 0 .308-.035.84.84 0 0 0 .269-.113c.08-.053.143-.121.191-.205s.072-.186.072-.305c0-.105-.019-.193-.055-.266a.51.51 0 0 0-.151-.18zm1.8 0a.69.69 0 0 0-.219-.115c-.084-.027-.172-.051-.265-.068l-.2-.045c-.064-.02-.122-.039-.171-.064s-.088-.051-.116-.082-.043-.068-.043-.115.013-.09.038-.127.058-.068.096-.092.083-.041.133-.055.1-.018.146-.018c.104 0 .194.023.267.07s.133.105.178.182l.292-.193c-.072-.135-.172-.232-.299-.291s-.265-.09-.415-.09c-.098 0-.195.014-.288.041s-.176.064-.251.115a.59.59 0 0 0-.179.193.53.53 0 0 0-.067.27.51.51 0 0 0 .061.264.49.49 0 0 0 .161.168.94.94 0 0 0 .235.105l.283.072.166.039c.055.016.103.035.144.061a.35.35 0 0 1 .101.094c.026.035.039.082.039.139s-.014.105-.041.146-.062.074-.107.1-.095.047-.15.059a.77.77 0 0 1-.163.018c-.127 0-.231-.025-.312-.076a.88.88 0 0 1-.228-.207l-.278.217c.105.148.223.252.353.307s.285.082.466.082a1.37 1.37 0 0 0 .307-.035.83.83 0 0 0 .269-.113c.08-.053.144-.121.191-.205s.072-.186.072-.305c0-.105-.019-.193-.055-.266a.51.51 0 0 0-.151-.18zm2.149-.553a.59.59 0 0 1 .223-.168c.089-.039.192-.061.31-.061.104 0 .199.021.287.061a.71.71 0 0 1 .241.195l.279-.246a.97.97 0 0 0-.366-.252 1.23 1.23 0 0 0-.441-.08 1.15 1.15 0 0 0-.443.082 1.04 1.04 0 0 0-.343.232c-.096.098-.17.215-.223.35a1.18 1.18 0 0 0-.077.439 1.19 1.19 0 0 0 .077.443c.053.134.126.252.221.35a.93.93 0 0 0 .343.229 1.17 1.17 0 0 0 .445.08c.151 0 .297-.025.435-.08s.258-.139.359-.256l-.261-.246c-.126.174-.304.26-.533.26-.108 0-.206-.02-.292-.061a.62.62 0 0 1-.223-.168c-.062-.072-.109-.154-.144-.248a.87.87 0 0 1-.052-.303c0-.109.015-.209.045-.303s.075-.176.133-.249zm3.256-.314c-.067-.074-.149-.131-.25-.174a.94.94 0 0 0-.356-.062c-.081 0-.156.01-.229.031a.97.97 0 0 0-.195.08.75.75 0 0 0-.151.109.52.52 0 0 0-.098.125h-.01v-1.584h-.35v3.391h.35V65.9c0-.119.013-.229.038-.326a.76.76 0 0 1 .116-.256.53.53 0 0 1 .203-.166c.082-.039.181-.059.294-.059.164 0 .285.051.363.152s.117.24.117.418v1.26h.35v-1.297a1.25 1.25 0 0 0-.047-.348c-.03-.104-.079-.194-.145-.27zm2.433 1.553v-.9c0-.301-.068-.521-.206-.67s-.363-.219-.675-.219a1.33 1.33 0 0 0-.45.078c-.148.053-.276.133-.385.244l.221.229a.8.8 0 0 1 .29-.172c.108-.037.221-.057.334-.057.165 0 .292.039.384.117s.138.193.138.346v.062h-.136l-.424.018a1.69 1.69 0 0 0-.431.09.81.81 0 0 0-.335.219c-.089.1-.134.236-.134.408 0 .102.021.191.062.27s.098.143.168.195.153.092.247.119a1.18 1.18 0 0 0 .303.039.8.8 0 0 0 .416-.102c.114-.068.207-.158.276-.266h.009l.002.154a.7.7 0 0 0 .02.16h.337l-.022-.178-.009-.184zm-.35-.512c-.003.088-.018.168-.045.246s-.067.141-.118.199a.53.53 0 0 1-.19.135c-.076.035-.165.053-.267.053-.132 0-.241-.027-.329-.084s-.133-.148-.133-.279c0-.145.065-.248.197-.309s.31-.096.534-.096h.351v.135zm1.912-1.278c-.087 0-.168.012-.242.033s-.143.053-.202.09-.111.08-.154.127-.077.098-.102.148h-.009l-.005-.174-.004-.172h-.332l.008.229.009.27v1.602h.351V65.9c0-.24.049-.432.146-.57s.254-.209.469-.209a.68.68 0 0 1 .188.027l.023-.355a.48.48 0 0 0-.07-.018l-.074-.004zm2.101.413h-.01c-.036-.068-.081-.129-.135-.182s-.114-.096-.183-.129a.79.79 0 0 0-.208-.076c-.072-.018-.143-.025-.215-.025a1.31 1.31 0 0 0-.458.076c-.138.051-.256.123-.353.217s-.173.211-.226.348a1.24 1.24 0 0 0-.081.463c0 .154.026.299.081.43a.95.95 0 0 0 .229.34 1.03 1.03 0 0 0 .354.227c.138.053.289.08.453.08a.99.99 0 0 0 .412-.094c.135-.064.244-.162.328-.297h.01v.27a1.44 1.44 0 0 1-.036.318c-.025.102-.066.191-.126.271a.65.65 0 0 1-.245.188c-.104.047-.231.07-.388.07a.96.96 0 0 1-.429-.092 1.25 1.25 0 0 1-.353-.271l-.251.287c.149.145.308.248.473.309s.354.09.56.09c.371 0 .654-.1.851-.299s.294-.49.294-.871v-2.006h-.35v.358zm-.05.97a.71.71 0 0 1-.146.242c-.064.07-.144.127-.235.168s-.198.062-.318.062a.74.74 0 0 1-.287-.057.73.73 0 0 1-.236-.16c-.067-.068-.121-.146-.159-.238s-.058-.189-.058-.297a.89.89 0 0 1 .053-.309c.036-.094.086-.176.15-.246s.142-.125.234-.166a.76.76 0 0 1 .303-.061.81.81 0 0 1 .305.057c.093.037.172.09.238.158s.116.15.151.244.056.199.056.312a.87.87 0 0 1-.051.291zm2.611-1.093c-.089-.094-.193-.166-.316-.215s-.257-.074-.404-.074c-.155 0-.299.027-.431.08s-.245.129-.341.227a1.05 1.05 0 0 0-.225.35c-.055.137-.08.285-.08.447 0 .152.023.295.073.43s.119.252.212.35.202.178.333.234a1.08 1.08 0 0 0 .445.088c.197 0 .371-.031.521-.096s.287-.178.412-.338l-.265-.207c-.083.105-.178.184-.282.238s-.233.08-.386.08c-.097 0-.185-.018-.265-.055s-.151-.084-.212-.145a.8.8 0 0 1-.146-.215.73.73 0 0 1-.064-.258h1.695v-.113c0-.172-.023-.328-.071-.463a.93.93 0 0 0-.203-.345zm-1.42.625c.023-.18.096-.322.215-.43a.68.68 0 0 1 .472-.162c.194 0 .348.055.458.162s.169.25.175.43h-1.32z"/><path d="M14.105 37.164c-.436-.129-.943-.195-1.522-.195a3.83 3.83 0 0 0-1.617.344c-.499.23-.888.548-1.167.953-.533.798-.799 1.803-.799 3.015 0 .965.241 1.679.723 2.141s1.223.694 2.222.694c.405 0 .854-.06 1.347-.179s.765-.313.819-.579c.066-.353.1-.668.1-.948 0-.101-.04-.15-.12-.15-.02 0-.121.047-.304.14s-.429.184-.739.274a3.42 3.42 0 0 1-.963.135c-.998 0-1.497-.582-1.497-1.747 0-.918.169-1.61.509-2.075s.833-.699 1.478-.699c.499 0 .912.08 1.238.24.113.053.18.079.2.079.119 0 .274-.125.464-.375s.285-.443.285-.583c-.002-.195-.22-.356-.657-.485zm5.535 5.723c-.007 0-.044.011-.11.03s-.126.03-.179.03c-.2 0-.299-.106-.299-.32 0-.066.062-.678.189-1.836l.18-1.737c0-.166-.193-.25-.578-.25h-.12c-.24.007-.393.037-.459.09s-.129.18-.19.38c-.373-.353-.775-.529-1.208-.529-.652 0-1.185.296-1.597.888s-.619 1.368-.619 2.326c0 .692.146 1.226.438 1.603s.686.563 1.179.563c.279 0 .537-.07.773-.209s.431-.322.584-.549c.133.499.516.749 1.148.749.2 0 .389-.044.569-.134s.283-.218.309-.385l.07-.559c0-.1-.027-.151-.08-.151zm-1.897-2.051c-.014.097-.06.598-.139 1.502-.247.386-.506.579-.779.579-.453 0-.679-.333-.679-.998s.092-1.166.274-1.502.445-.504.784-.504c.233 0 .452.089.659.269l-.12.654zm4.362 2.051c-.007 0-.044.011-.11.03a.6.6 0 0 1-.18.03c-.2 0-.299-.11-.299-.33 0-.026.203-1.977.608-5.849 0-.179-.156-.269-.469-.269h-.479c-.32 0-.493.1-.52.299l-.629 6.048c0 .845.403 1.268 1.208 1.268.2 0 .389-.044.569-.134s.283-.218.309-.385l.07-.559c.002-.098-.025-.149-.078-.149zm2.815 0c-.007 0-.044.011-.11.03a.6.6 0 0 1-.18.03c-.2 0-.299-.11-.299-.33 0-.026.203-1.977.608-5.849 0-.179-.156-.269-.469-.269h-.479c-.32 0-.493.1-.52.299l-.629 6.048c0 .845.403 1.268 1.208 1.268.2 0 .389-.044.569-.134s.283-.218.309-.385l.07-.559c.002-.098-.025-.149-.078-.149zm7.858-26.273h-.348c-.482 0-.724.126-.724.378v4.724l-3.169-4.783c-.146-.213-.41-.319-.796-.319h-.519c-.481 0-.723.126-.723.378v7.559c0 .253.241.379.723.379h.35c.482 0 .724-.126.724-.379v-4.783l3.229 4.843c.144.212.41.319.795.319h.458c.481 0 .723-.126.723-.379v-7.559c0-.252-.241-.378-.723-.378zm7.044 5.487c.165-.185.247-.324.247-.419 0-.898-.211-1.629-.633-2.197s-1.084-.85-1.987-.85-1.615.259-2.134.779-.777 1.304-.777 2.35.259 1.849.777 2.405 1.308.831 2.369.831a4.9 4.9 0 0 0 1.416-.229c.502-.154.753-.36.753-.62 0-.134-.074-.317-.223-.55s-.283-.348-.404-.348a12.75 12.75 0 0 0-.506.182 2.96 2.96 0 0 1-1.036.184c-.361 0-.659-.095-.892-.283s-.37-.509-.41-.958h3.073c.08 0 .202-.092.367-.277zm-3.44-.892c.129-.795.49-1.193 1.085-1.193.289 0 .506.108.651.325s.217.505.217.868h-1.953zm9.635.892c.165-.185.247-.324.247-.419 0-.898-.211-1.629-.633-2.197s-1.084-.85-1.987-.85-1.615.259-2.134.779-.777 1.304-.777 2.35.259 1.849.777 2.405 1.307.831 2.368.831a4.9 4.9 0 0 0 1.416-.229c.502-.154.753-.36.753-.62 0-.134-.074-.317-.223-.55s-.283-.348-.403-.348a12.35 12.35 0 0 0-.507.182 2.96 2.96 0 0 1-1.036.184c-.361 0-.659-.095-.892-.283s-.37-.509-.41-.958h3.074c.079 0 .202-.092.367-.277zm-3.441-.892c.129-.795.49-1.193 1.085-1.193.289 0 .506.108.651.325s.217.505.217.868h-1.953zm9.906 1.618v-6.449c0-.251-.241-.377-.723-.377h-.337c-.482 0-.724.126-.724.377V19c-.346-.244-.756-.366-1.229-.366-.803 0-1.428.285-1.874.856s-.669 1.351-.669 2.339.209 1.764.627 2.327.961.844 1.628.844a1.9 1.9 0 0 0 .97-.248c.286-.165.5-.377.646-.637.008.023.021.088.042.194l.054.23.073.177c.031.071.073.122.126.153s.158.047.319.047.404-.031.729-.094.487-.158.487-.284l-.071-.484c-.049-.329-.074-.739-.074-1.227zm-1.783.047c-.273.466-.603.697-.988.697-.651 0-.977-.592-.977-1.777s.374-1.777 1.121-1.777c.289 0 .57.075.844.224v2.633zm8.291.697l-.325.048c-.29 0-.434-.169-.434-.508v-3h.59c.241 0 .362-.197.362-.59v-.201c0-.395-.121-.591-.362-.591h-.59v-1.122c0-.251-.201-.377-.604-.377h-.374c-.393 0-.609.126-.65.377l-.156 1.122h-.192c-.241 0-.362.197-.362.591v.201c0 .393.121.59.362.59h.192v2.977c0 1.276.586 1.913 1.76 1.913.771 0 1.157-.192 1.157-.579 0-.102-.037-.269-.109-.501s-.161-.35-.265-.35zm4.627-4.937c-.675 0-1.24.268-1.698.803v-3.06c0-.251-.241-.377-.724-.377h-.338c-.481 0-.723.126-.723.377v8.174c0 .253.241.379.723.379h.338c.482 0 .724-.126.724-.379V20.76c.24-.457.562-.686.964-.686.514 0 .771.245.771.732v3.744c0 .253.241.379.724.379h.337c.482 0 .724-.126.724-.379v-4.003c-.001-1.275-.609-1.913-1.822-1.913zm8.02 3.467c.165-.185.247-.324.247-.419 0-.898-.211-1.629-.633-2.197s-1.084-.85-1.987-.85-1.615.259-2.133.779-.778 1.304-.778 2.35.259 1.849.778 2.405 1.307.831 2.367.831a4.9 4.9 0 0 0 1.416-.229c.502-.154.753-.36.753-.62 0-.134-.074-.317-.223-.55s-.283-.348-.404-.348a12.75 12.75 0 0 0-.506.182 2.96 2.96 0 0 1-1.036.184c-.361 0-.659-.095-.892-.283s-.37-.509-.41-.958h3.073c.081 0 .203-.092.368-.277zm-3.441-.892c.129-.795.49-1.193 1.085-1.193.289 0 .506.108.651.325s.217.505.217.868h-1.953zm10.666-2.575c-.362 0-.703.086-1.024.259a2.38 2.38 0 0 0-.771.638 2.54 2.54 0 0 1-.042-.189 1.54 1.54 0 0 0-.055-.218l-.072-.166c-.032-.067-.074-.116-.126-.148s-.159-.047-.32-.047-.403.032-.729.095-.488.158-.488.282c0 .048.024.19.072.426s.072.65.072 1.24v3.744c0 .253.241.379.724.379h.337c.482 0 .723-.126.723-.379v-3.79c.241-.457.563-.686.965-.686.482 0 .724.245.724.732v3.744c0 .253.241.379.723.379h.337c.482 0 .723-.126.723-.379v-4.003c0-.654-.144-1.137-.433-1.448s-.738-.465-1.34-.465zm8.147 4.193v-3.744c0-.252-.241-.378-.724-.378h-.337c-.481 0-.723.125-.723.378v3.791c-.242.458-.563.686-.965.686-.482 0-.723-.245-.723-.733v-3.744c0-.252-.241-.378-.724-.378h-.338c-.481 0-.723.125-.723.378v4.004c0 .654.145 1.135.434 1.447s.737.466 1.339.466a2.12 2.12 0 0 0 1.031-.259c.316-.173.572-.385.765-.639a2.25 2.25 0 0 1 .042.201l.055.23.072.177c.032.075.074.128.126.159s.159.047.32.047.403-.031.729-.094.488-.158.488-.284l-.072-.484c-.049-.329-.072-.739-.072-1.227zm8.11-4.193a2.25 2.25 0 0 0-1.061.259 2.47 2.47 0 0 0-.795.638c-.233-.599-.765-.897-1.591-.897-.362 0-.701.086-1.02.259a2.42 2.42 0 0 0-.765.638 2.54 2.54 0 0 1-.042-.189 1.41 1.41 0 0 0-.055-.218l-.072-.166c-.032-.067-.074-.116-.126-.148s-.159-.047-.32-.047-.403.032-.729.095-.488.158-.488.282c0 .048.024.19.072.426s.073.65.073 1.24v3.744c0 .253.241.379.723.379h.337c.482 0 .723-.126.723-.379v-3.79c.241-.457.56-.686.953-.686.474 0 .711.245.711.732v3.744c0 .253.241.379.724.379h.337c.481 0 .723-.126.723-.379v-3.79c.241-.457.559-.686.953-.686.474 0 .711.245.711.732v3.744c0 .253.24.379.723.379h.337c.481 0 .724-.126.724-.379v-4.003c0-.654-.143-1.137-.428-1.448s-.729-.465-1.332-.465zm6.062 0c-.474 0-.884.122-1.229.366v-2.623c0-.251-.241-.377-.724-.377h-.338c-.481 0-.723.126-.723.377v8.174c0 .253.241.379.723.379h.146c.418 0 .65-.103.698-.308l.121-.508c.145.26.359.472.645.637a1.89 1.89 0 0 0 .971.248c.667 0 1.209-.28 1.627-.844s.626-1.339.626-2.327-.224-1.768-.668-2.339-1.072-.855-1.875-.855zm-.242 4.937c-.385 0-.715-.231-.987-.697V20.24c.272-.149.554-.224.844-.224.747 0 1.121.592 1.121 1.777s-.326 1.778-.978 1.778zm8.781-1.47c.164-.185.247-.324.247-.419 0-.898-.211-1.629-.633-2.197s-1.085-.85-1.988-.85-1.615.259-2.133.779-.777 1.304-.777 2.35.259 1.849.777 2.405 1.308.831 2.367.831c.442 0 .914-.077 1.417-.229s.753-.36.753-.62c0-.134-.074-.317-.223-.55s-.283-.348-.404-.348a12.07 12.07 0 0 0-.506.182c-.33.122-.675.184-1.037.184s-.659-.095-.892-.283-.369-.509-.409-.958h3.073c.08 0 .203-.092.368-.277zm-3.441-.892c.128-.795.49-1.193 1.084-1.193.29 0 .507.108.651.325s.217.505.217.868h-1.952zm7.592-2.575c-.538 0-.977.298-1.314.897a2.54 2.54 0 0 1-.042-.189c-.02-.102-.038-.175-.054-.218l-.073-.166c-.032-.067-.074-.116-.126-.148s-.159-.047-.32-.047-.402.032-.729.095-.488.158-.488.282c0 .048.024.19.072.426s.073.65.073 1.24v3.744c0 .253.241.379.723.379h.337c.482 0 .724-.126.724-.379v-3.79c.241-.394.562-.59.965-.59a1.23 1.23 0 0 1 .312.047 1.3 1.3 0 0 0 .253.047c.104 0 .193-.124.265-.372s.109-.455.109-.62-.05-.313-.151-.443-.279-.195-.536-.195zm4.929-1.524c-.466-.377-1.104-.567-1.916-.567a4.81 4.81 0 0 0-1.555.242c-.474.162-.711.4-.711.714 0 .143.089.339.266.591s.342.377.493.377c.008 0 .165-.06.472-.183s.598-.183.879-.183c.595 0 .892.221.892.661 0 .205-.221.543-.663 1.016l-.542.603c-.441.512-.663 1.031-.663 1.559 0 .228.197.342.591.342h.277c.201 0 .349-.024.446-.071s.16-.13.192-.248c.072-.361.365-.744.88-1.146a6.74 6.74 0 0 0 .626-.543c.49-.457.736-1 .736-1.63 0-.644-.234-1.156-.7-1.534zm-2.133 5.977h-.386c-.482 0-.723.126-.723.378v1.086c0 .253.24.379.723.379h.386c.482 0 .723-.126.723-.379v-1.086c0-.252-.241-.378-.723-.378z"/></g></svg>