<svg xmlns="http://www.w3.org/2000/svg" viewBox="0 0 1153.39 312.67"><g id="a50c8add-d78b-4a4d-9312-6be4a61fd36b" data-name="Layer 2"><g id="afe00935-3aa3-4666-8b65-2cac8f7ded48" data-name="Layer 1"><path d="M283.23,131.6a1.09,1.09,0,0,1-.08-.15c-.11-.12-.23-.25-.35-.36a0,0,0,0,0,0,0h0l0,0-26.93-25.92V54.82a18.3,18.3,0,0,0-18.27-18.27h-53L148.38,1.71a6.07,6.07,0,0,0-8.45,0l-36.2,34.84h-53A18.3,18.3,0,0,0,32.47,54.82v50.31l-27,26c-.1.11-.21.22-.31.34a.6.6,0,0,0-.09.15A18.08,18.08,0,0,0,0,144.16V294.4a18.29,18.29,0,0,0,6,13.48l0,0a18.17,18.17,0,0,0,12.24,4.77H270a18.2,18.2,0,0,0,12.25-4.77l0,0a18.26,18.26,0,0,0,6-13.48V144.16A18.13,18.13,0,0,0,283.23,131.6ZM255.82,122l13.87,13.36-13.87,13ZM144.15,14.55l22.86,22H121.29ZM44.65,54.82a6.1,6.1,0,0,1,6.1-6.09H237.54a6.1,6.1,0,0,1,6.09,6.09v105l-14.81,13.89-14.34,13.43H73.82L44.65,159.78ZM201.49,199.3l-22.26,20.86H109.08L86.82,199.3ZM32.47,122v26.32l-3.11-2.91L18.62,135.37ZM12.18,293.92V146L34.4,166.86l63,59Zm11.3,6.57,85.33-68.15h70.7l85.32,68.15Zm252.64-6.57-85.18-68,62.95-59L276.12,146ZM72.32,94.74H216a6.1,6.1,0,0,0,0-12.19H72.32a6.1,6.1,0,0,0,0,12.19Zm0,34.85H216a6.09,6.09,0,0,0,0-12.18H72.31a6.09,6.09,0,0,0,0,12.18ZM222,158.35a6.09,6.09,0,0,0-6.09-6.09H72.31a6.09,6.09,0,1,0,0,12.18H216A6.08,6.08,0,0,0,222,158.35Z" style="fill:#3e73b8"/><path d="M433,159.75l-8.66-24.3H376.58L368,159.75H349.05L389.3,50.43h22.31l40.25,109.32Zm-50.83-40h36.65L400.5,68.07Z" style="fill:#14263e"/><path d="M510.27,42H527.9V159.75H511l-.46-12.26a24.83,24.83,0,0,1-10.31,10.27,31.54,31.54,0,0,1-15.37,3.76,35.75,35.75,0,0,1-25.76-10.77,36.45,36.45,0,0,1-7.9-12.73,46.62,46.62,0,0,1-2.91-16.75,46.13,46.13,0,0,1,2.91-16.64A36.5,36.5,0,0,1,459.14,92,35.89,35.89,0,0,1,484.9,81.17,31.82,31.82,0,0,1,500,84.74a24.79,24.79,0,0,1,10.31,9.77Zm-37.76,97.59a21.46,21.46,0,0,0,16.3,7,21.13,21.13,0,0,0,16.25-7.13q6.51-7.12,6.51-18.17T505,103.18a21.11,21.11,0,0,0-16.21-7.13,21.49,21.49,0,0,0-16.3,6.94Q466,109.92,466,121.27T472.51,139.59Z" style="fill:#14263e"/><path d="M596.07,42H613.7V159.75H596.84l-.46-12.26a24.8,24.8,0,0,1-10.32,10.27,31.49,31.49,0,0,1-15.37,3.76,35.8,35.8,0,0,1-25.76-10.77A36.58,36.58,0,0,1,537,138a46.62,46.62,0,0,1-2.91-16.75A46.13,46.13,0,0,1,537,104.63,36.63,36.63,0,0,1,544.93,92a35.93,35.93,0,0,1,25.76-10.78,31.89,31.89,0,0,1,15.07,3.57,24.79,24.79,0,0,1,10.31,9.77Zm-37.76,97.59a21.45,21.45,0,0,0,16.29,7,21.15,21.15,0,0,0,16.26-7.13q6.51-7.12,6.51-18.17t-6.55-18.09a21.13,21.13,0,0,0-16.22-7.13A21.48,21.48,0,0,0,558.31,103q-6.55,6.93-6.55,18.28T558.31,139.59Z" style="fill:#14263e"/><path d="M640,95.59a23.27,23.27,0,0,1,9.78-9.82,30.51,30.51,0,0,1,15.06-4v16.1q-12.27,0-18.21,5.17t-5.94,17.37v39.32H623V82.63h17Z" style="fill:#14263e"/><path d="M742,119.89l-.23,4.45H683.16q.47,11,6.75,16.86A22,22,0,0,0,705.47,147a21.2,21.2,0,0,0,11.46-3.14,19.86,19.86,0,0,0,7.63-9l16.1,2.76A33.93,33.93,0,0,1,727.32,155a38.33,38.33,0,0,1-21.7,6.21q-18,0-28.9-10.65t-10.88-29.37q0-18.63,10.88-29.36T705.09,81.1q16.63,0,26.75,9.85T742,119.89ZM705.16,94.21q-8.35,0-13.91,4.18t-7.32,12.76h40.4q-1-8.36-6.13-12.65T705.16,94.21Z" style="fill:#14263e"/><path d="M780.3,161.21q-13,0-21.62-5.48a22.87,22.87,0,0,1-10.58-15.91l14.95-4.21a15.94,15.94,0,0,0,6.06,9.69,18.57,18.57,0,0,0,11.19,3.26,17.78,17.78,0,0,0,9.35-2.3q3.84-2.3,3.76-7.43a7.16,7.16,0,0,0-1-3.8,10.29,10.29,0,0,0-2.37-2.76,16.5,16.5,0,0,0-3.95-2.18,44.18,44.18,0,0,0-4.68-1.69l-5.71-1.69c-2.4-.71-4.4-1.33-6-1.84a54.72,54.72,0,0,1-7.36-2.83,34.94,34.94,0,0,1-6.06-3.84,14.91,14.91,0,0,1-4.63-6,21.16,21.16,0,0,1-1.58-8.47A20.35,20.35,0,0,1,754,91.06a22.26,22.26,0,0,1,10.28-7.47,42,42,0,0,1,14.56-2.34q11.58,0,19.51,5t9.85,15.26l-14,3.3a13.87,13.87,0,0,0-5.56-8.59,19,19,0,0,0-18.7-.57,7.2,7.2,0,0,0-3.64,6.63,8.93,8.93,0,0,0,.26,2.26,4.44,4.44,0,0,0,1,1.88c.51.56,1,1.06,1.38,1.49a7.07,7.07,0,0,0,2,1.34c.92.46,1.66.82,2.23,1.08a26.36,26.36,0,0,0,2.76,1l2.83.84q.93.27,3.18.84l3.19.81c2.86.76,5.3,1.48,7.32,2.14a43.11,43.11,0,0,1,6.67,2.95,23.45,23.45,0,0,1,5.9,4.34,19.22,19.22,0,0,1,3.79,6.17,22.26,22.26,0,0,1,1.54,8.47A22.85,22.85,0,0,1,808,148.68a18.63,18.63,0,0,1-6.7,7.28,33.07,33.07,0,0,1-9.51,3.95A47.46,47.46,0,0,1,780.3,161.21Z" style="fill:#14263e"/><path d="M848.31,161.21q-13,0-21.62-5.48a22.84,22.84,0,0,1-10.58-15.91l14.95-4.21a16,16,0,0,0,6.05,9.69,18.62,18.62,0,0,0,11.2,3.26,17.81,17.81,0,0,0,9.35-2.3c2.55-1.53,3.81-4,3.75-7.43a7.25,7.25,0,0,0-1-3.8,10.51,10.51,0,0,0-2.38-2.76,16.3,16.3,0,0,0-3.95-2.18,44.08,44.08,0,0,0-4.67-1.69l-5.71-1.69c-2.41-.71-4.4-1.33-6-1.84a54.2,54.2,0,0,1-7.36-2.83,34.2,34.2,0,0,1-6.06-3.84,15,15,0,0,1-4.64-6,21.16,21.16,0,0,1-1.57-8.47A20.28,20.28,0,0,1,822,91.06a22.28,22.28,0,0,1,10.27-7.47,42.06,42.06,0,0,1,14.57-2.34q11.58,0,19.51,5t9.85,15.26l-14,3.3a13.91,13.91,0,0,0-5.56-8.59A19,19,0,0,0,838,95.63a7.22,7.22,0,0,0-3.64,6.63,8.92,8.92,0,0,0,.27,2.26,4.34,4.34,0,0,0,1,1.88c.51.56,1,1.06,1.38,1.49a6.93,6.93,0,0,0,2,1.34q1.38.69,2.22,1.08a26.36,26.36,0,0,0,2.76,1l2.84.84q.92.27,3.18.84l3.18.81c2.86.76,5.3,1.48,7.32,2.14a42.69,42.69,0,0,1,6.67,2.95,23.33,23.33,0,0,1,5.91,4.34,19.39,19.39,0,0,1,3.79,6.17,22.46,22.46,0,0,1,1.53,8.47A22.85,22.85,0,0,1,876,148.68a18.58,18.58,0,0,1-6.71,7.28,32.89,32.89,0,0,1-9.5,3.95A47.46,47.46,0,0,1,848.31,161.21Z" style="fill:#14263e"/><path d="M960.55,119.89l-.23,4.45H901.67q.47,11,6.75,16.86A22,22,0,0,0,924,147a21.2,21.2,0,0,0,11.46-3.14,19.86,19.86,0,0,0,7.63-9l16.1,2.76A33.93,33.93,0,0,1,945.83,155a38.33,38.33,0,0,1-21.7,6.21q-18,0-28.9-10.65t-10.89-29.37q0-18.63,10.89-29.36T923.6,81.1q16.62,0,26.75,9.85T960.55,119.89ZM923.67,94.21q-8.35,0-13.91,4.18t-7.32,12.76h40.4q-1-8.36-6.14-12.65T923.67,94.21Z" style="fill:#14263e"/><path d="M998.81,161.21q-13,0-21.62-5.48a22.87,22.87,0,0,1-10.58-15.91l14.95-4.21a16,16,0,0,0,6.05,9.69,18.62,18.62,0,0,0,11.2,3.26,17.81,17.81,0,0,0,9.35-2.3q3.84-2.3,3.76-7.43a7.26,7.26,0,0,0-1-3.8,10.32,10.32,0,0,0-2.38-2.76,16.4,16.4,0,0,0-3.94-2.18,45,45,0,0,0-4.68-1.69l-5.71-1.69c-2.41-.71-4.4-1.33-6-1.84a54.2,54.2,0,0,1-7.36-2.83,34.56,34.56,0,0,1-6.06-3.84,15,15,0,0,1-4.64-6,21.33,21.33,0,0,1-1.57-8.47,20.35,20.35,0,0,1,3.91-12.65,22.26,22.26,0,0,1,10.28-7.47,42,42,0,0,1,14.56-2.34q11.58,0,19.51,5t9.85,15.26l-14,3.3a13.87,13.87,0,0,0-5.56-8.59,19,19,0,0,0-18.7-.57,7.2,7.2,0,0,0-3.64,6.63,8.93,8.93,0,0,0,.26,2.26,4.44,4.44,0,0,0,1,1.88c.51.56,1,1.06,1.38,1.49a7.07,7.07,0,0,0,2,1.34c.92.46,1.66.82,2.23,1.08a26.85,26.85,0,0,0,2.75,1l2.84.84q.92.27,3.18.84l3.18.81c2.87.76,5.31,1.48,7.33,2.14a43.53,43.53,0,0,1,6.67,2.95,23.45,23.45,0,0,1,5.9,4.34,19.22,19.22,0,0,1,3.79,6.17,22.26,22.26,0,0,1,1.54,8.47,22.85,22.85,0,0,1-2.46,10.85,18.63,18.63,0,0,1-6.7,7.28,33.07,33.07,0,0,1-9.51,3.95A47.46,47.46,0,0,1,998.81,161.21Z" style="fill:#14263e"/><path d="M442.09,291.24H421.55l-8-10.28a58.93,58.93,0,0,1-35.65,11.81q-16.19,0-26.41-8.09T341.28,262a28.64,28.64,0,0,1,1.31-8.81,29.48,29.48,0,0,1,3.41-7.29,34.26,34.26,0,0,1,6.13-6.74,97.4,97.4,0,0,1,8.05-6.37q4-2.84,10.54-6.9l-.15-.15a82.17,82.17,0,0,1-8.78-13.34A23.65,23.65,0,0,1,359.22,202a19,19,0,0,1,8-16q7.44-5.67,19.24-5.67,12.35,0,20,6a19.25,19.25,0,0,1,7.67,15.91,21.1,21.1,0,0,1-5,13.61q-5,6.16-16.37,13.07l22.38,28.29a55.42,55.42,0,0,0,7.1-14.26,47.13,47.13,0,0,0,2.49-14.72h16.17a62.14,62.14,0,0,1-4.1,22.19A65.84,65.84,0,0,1,425.3,270Zm-63.47-13.19a40.61,40.61,0,0,0,25.6-9.12l-24.91-32c-2.71,1.69-4.79,3-6.25,3.95s-3.16,2.12-5.1,3.52a29.59,29.59,0,0,0-4.41,3.76,43.52,43.52,0,0,0-3,3.8,13.66,13.66,0,0,0-2.14,4.48,19.67,19.67,0,0,0-.62,5q0,8.06,5.72,12.31T378.62,278.05Zm.23-82.8a9.56,9.56,0,0,0-2.84,7.29,12.27,12.27,0,0,0,1.53,5.9,77.57,77.57,0,0,0,5.83,8.51l1.3,1.69q13.57-8.44,13.57-16.56a8.72,8.72,0,0,0-3.26-7.17,12.31,12.31,0,0,0-8-2.65A11.14,11.14,0,0,0,378.85,195.25Z" style="fill:#14263e"/><path d="M532.5,181.92a33.94,33.94,0,0,1,17.78,4.63A31,31,0,0,1,562.09,199a37,37,0,0,1,4.06,17.33q0,14.79-9.24,24.45t-24.41,9.66H507.35v40.79H489V181.92Zm-2.92,52.89q9,0,13.88-5.06t4.83-13.64q0-8.36-4.87-13.53t-13.84-5.18H507.35v37.41Z" style="fill:#14263e"/><path d="M604.8,292.69q-17.87,0-29.21-10.84T564.25,252.6q0-18.24,11.34-29.09t29.21-10.85q17.94,0,29.29,10.81t11.34,29.13q0,18.39-11.34,29.25T604.8,292.69Zm-.15-14.26a21.63,21.63,0,0,0,16.71-7.12q6.51-7.14,6.52-18.71t-6.52-18.67a21.67,21.67,0,0,0-16.71-7.09,21.17,21.17,0,0,0-16.41,7.09q-6.43,7.09-6.44,18.67t6.4,18.71A21.11,21.11,0,0,0,604.65,278.43Z" style="fill:#14263e"/><path d="M680.4,292.69q-13,0-21.62-5.48a22.85,22.85,0,0,1-10.58-15.9l14.95-4.22a16,16,0,0,0,6.06,9.7A18.63,18.63,0,0,0,680.4,280a17.78,17.78,0,0,0,9.35-2.3q3.84-2.3,3.76-7.43a7.16,7.16,0,0,0-1-3.8,10.29,10.29,0,0,0-2.37-2.76,16.5,16.5,0,0,0-3.95-2.18,44.18,44.18,0,0,0-4.68-1.69l-5.71-1.69c-2.4-.71-4.4-1.32-6-1.84a53.4,53.4,0,0,1-7.36-2.83,35.46,35.46,0,0,1-6.06-3.83,15,15,0,0,1-4.63-6,21.19,21.19,0,0,1-1.58-8.47,20.3,20.3,0,0,1,3.91-12.65,22.21,22.21,0,0,1,10.28-7.48,42,42,0,0,1,14.56-2.34q11.58,0,19.51,5T708.31,233l-14,3.3a13.9,13.9,0,0,0-5.56-8.59,19,19,0,0,0-18.7-.57,7.21,7.21,0,0,0-3.64,6.63,8.92,8.92,0,0,0,.27,2.26,4.31,4.31,0,0,0,1,1.88c.51.56,1,1.06,1.38,1.49a7.07,7.07,0,0,0,2,1.35c.92.46,1.66.81,2.23,1.07a24.19,24.19,0,0,0,2.76,1l2.83.84q.93.27,3.18.84l3.19.81c2.86.77,5.3,1.48,7.32,2.15a41.27,41.27,0,0,1,6.67,3,23.43,23.43,0,0,1,5.9,4.33,19.41,19.41,0,0,1,3.8,6.17,22.46,22.46,0,0,1,1.53,8.47,22.94,22.94,0,0,1-2.45,10.85,18.72,18.72,0,0,1-6.71,7.28,32.79,32.79,0,0,1-9.51,3.95A47.46,47.46,0,0,1,680.4,292.69Z" style="fill:#14263e"/><path d="M746.18,291.24q-10.42,0-16.25-5.91t-5.82-16.63V227.91H708.7v-13.8H714q6.28,0,9.08-3t2.8-10.31v-12H742v25.22h16.79v13.8H742v39q0,5.29,2.64,8a9.57,9.57,0,0,0,7.17,2.72h7v13.65Z" style="fill:#14263e"/><path d="M800.32,292.62q-17.57,0-28.75-11.08T760.38,252.6q0-17.86,11.23-28.9t28.71-11q13.88,0,23.65,7.09t12.92,19.82l-16.41,2.14a20.59,20.59,0,0,0-7.55-11,21.31,21.31,0,0,0-12.76-3.83,20.22,20.22,0,0,0-15.95,7.09Q778,241,778,252.6t6.21,18.67a20.25,20.25,0,0,0,15.95,7.09,21.43,21.43,0,0,0,12.76-3.8,20.33,20.33,0,0,0,7.55-11l16.41,2.07q-3.15,12.74-13,19.86T800.32,292.62Z" style="fill:#14263e"/><path d="M879.37,292.69q-17.86,0-29.21-10.84T838.81,252.6q0-18.24,11.35-29.09t29.21-10.85q17.94,0,29.28,10.81T920,252.6q0,18.39-11.35,29.25T879.37,292.69Zm-.16-14.26a21.65,21.65,0,0,0,16.72-7.12q6.51-7.14,6.51-18.71t-6.51-18.67a21.69,21.69,0,0,0-16.72-7.09,21.16,21.16,0,0,0-16.4,7.09q-6.43,7.09-6.44,18.67t6.4,18.71A21.1,21.1,0,0,0,879.21,278.43Z" style="fill:#14263e"/><path d="M984.94,173.48h17.63V291.24H985.71L985.25,279a24.78,24.78,0,0,1-10.31,10.27A31.43,31.43,0,0,1,959.57,293a35.75,35.75,0,0,1-25.76-10.77,36.6,36.6,0,0,1-7.9-12.73A46.62,46.62,0,0,1,923,252.75a46.07,46.07,0,0,1,2.91-16.63,36.7,36.7,0,0,1,7.9-12.69,35.82,35.82,0,0,1,25.76-10.77,31.93,31.93,0,0,1,15.06,3.56A24.81,24.81,0,0,1,984.94,226Zm-37.76,97.6a21.48,21.48,0,0,0,16.3,7,21.13,21.13,0,0,0,16.25-7.13q6.51-7.12,6.52-18.17t-6.56-18.09a21.15,21.15,0,0,0-16.21-7.13,21.52,21.52,0,0,0-16.3,6.94q-6.54,6.93-6.55,18.28T947.18,271.08Z" style="fill:#14263e"/><path d="M1088.14,251.37l-.23,4.45h-58.65q.46,11,6.75,16.86a22,22,0,0,0,15.56,5.83,21.2,21.2,0,0,0,11.46-3.14,19.86,19.86,0,0,0,7.63-9l16.1,2.76a33.87,33.87,0,0,1-13.34,17.32,38.32,38.32,0,0,1-21.69,6.21q-18,0-28.91-10.65t-10.88-29.36q0-18.63,10.88-29.37t28.37-10.73q16.63,0,26.75,9.85T1088.14,251.37Zm-36.87-25.68q-8.37,0-13.92,4.18T1030,242.63h40.4q-1-8.35-6.13-12.65T1051.27,225.69Z" style="fill:#14263e"/><path d="M1123.26,292.69q-13,0-21.62-5.48a22.88,22.88,0,0,1-10.58-15.9l15-4.22a16,16,0,0,0,6.06,9.7,18.63,18.63,0,0,0,11.19,3.25,17.78,17.78,0,0,0,9.35-2.3q3.84-2.3,3.76-7.43a7.16,7.16,0,0,0-1-3.8,10.29,10.29,0,0,0-2.37-2.76,16.5,16.5,0,0,0-4-2.18,43.4,43.4,0,0,0-4.68-1.69l-5.71-1.69c-2.4-.71-4.4-1.32-6-1.84a53.4,53.4,0,0,1-7.36-2.83,35.46,35.46,0,0,1-6.06-3.83,15,15,0,0,1-4.63-6,21.19,21.19,0,0,1-1.57-8.47,20.24,20.24,0,0,1,3.91-12.65,22.18,22.18,0,0,1,10.27-7.48,42,42,0,0,1,14.56-2.34q11.58,0,19.52,5t9.85,15.25l-14,3.3a13.93,13.93,0,0,0-5.55-8.59,19,19,0,0,0-18.71-.57,7.21,7.21,0,0,0-3.64,6.63,8.92,8.92,0,0,0,.27,2.26,4.31,4.31,0,0,0,1,1.88c.51.56,1,1.06,1.38,1.49a7.07,7.07,0,0,0,2,1.35c.92.46,1.66.81,2.23,1.07a24.19,24.19,0,0,0,2.76,1l2.83.84c.62.18,1.68.46,3.19.84l3.18.81c2.86.77,5.3,1.48,7.32,2.15a41.27,41.27,0,0,1,6.67,3,23.43,23.43,0,0,1,5.9,4.33,19.41,19.41,0,0,1,3.8,6.17,22.46,22.46,0,0,1,1.53,8.47,22.94,22.94,0,0,1-2.45,10.85,18.72,18.72,0,0,1-6.71,7.28,32.79,32.79,0,0,1-9.51,3.95A47.46,47.46,0,0,1,1123.26,292.69Z" style="fill:#14263e"/></g></g></svg>