    <svg xmlns="http://www.w3.org/2000/svg" width="135" height="95" xmlns:v="https://vecta.io/nano"><path fill-rule="evenodd" fill="#cd1428" d="M134.977 49.082c-.305-6.646-1.643-13.062-4.214-19.231-1.786-4.285-4.016-8.324-6.871-12.025C115.299 6.688 103.713 1.034 89.615.131c-4.957-.316-9.932-.014-14.882.414-8.631.748-17.144 2.186-25.515 4.385C40.016 7.345 31.1 10.476 22.81 15.137c-4.225 2.373-8.169 5.117-11.449 8.679-2.467 2.678-4.417 5.676-5.145 9.246-.465 2.264-.617 4.595-.852 6.899-.383 3.726-.482 7.45.066 11.175.808 5.483 3.154 10.179 7.364 13.948 3.13 2.802 6.784 4.766 10.663 6.364.983.405 1.979.776 3.04 1.189C20.394 83.188 11.675 90.654 0 94.82c.142.127.179.182.206.18.271-.031.543-.06.812-.111 9.693-1.759 18.907-4.878 27.666-9.303 5.34-2.695 10.388-5.84 15.07-9.526.423-.334.832-.452 1.368-.421 3.313.178 6.627.415 9.942.467 13.399.193 26.769-.394 40.09-1.856 5.984-.659 11.92-1.616 17.731-3.196 4.804-1.308 9.452-2.979 13.596-5.767 5.812-3.905 8.82-9.204 8.496-16.205z"/><g fill="#fff"><path d="M47.999 49.313c-.057.115.232 0 .174-.058s-.174.058-.174.058zm-21.301 2.084c.058-.056.115 0 .173-.056-.115 0-.173-.057-.173.056zm-2.544.058c.81-.171 1.734-.229 2.659-.286.463-.571 1.271 0 1.85-.629-.404-.114-.115-.457-.404-.572-.578-.171-1.271-.113-1.734-.229-2.081-.571-5.318 0-7.398.058.166-.11.122-.481.376-.562-.056.037-.111.16.086.16.058-.228-.058-.171-.058-.343.693-.687 1.156-1.544 1.676-2.401.348-.229.521-.629.81-.914.347-.23.578-.457.693-.916.405-.285.578-.742.925-1.029 0 .115-.115.115-.058.287.116-.172.289-.287.347-.516h-.058c0 .057-.173.057-.173 0 .058-.113.23-.344.23 0 1.099-.971 1.562-2.572 2.659-3.488.174-.457.463-.801.694-1.201.058-.057.115.059.23.059l.982-1.715c.174-1.83-1.444-2.287-1.907-3.545-.289-.059-.289-.287-.404-.402-.231 0-.174-.17-.405-.113-2.485.686-3.872 2.459-5.838 3.66-.289.342-.636.57-.578 1.314.289.285.521.742 1.214.742.058.516.694.572.867 1.145-2.139 3.373-4.45 6.518-6.069 10.407-.231.057-.289.229-.462.286-1.619.285-3.063.743-4.451 1.258-.578-.114-1.156.285-1.445.686-.115.915.867 1.373 1.388 2.06.462 0 5.491-1.772 8.901-2.345.347.057.404-.115.867 0 .174-.171.404-.229.751-.171.059-.058 0-.172.116-.172.867-.058 1.907-.458 3.121-.343.058-.116-.173-.23 0-.23zm28.529 1.42c-.116 0-.116.114-.289.058.057.113.289.113.289-.058zm-30.725-.848c.058-.058.115 0 .174-.058-.116 0-.174-.057-.174.058zm46.043-14.603c0-.057.232-.172.059-.23 0 .058-.232.174-.059.23zm-31.007 14.89c.058-.058.116 0 .174-.058-.116 0-.174-.056-.174.058zm6.301-2.059c-.578-.171-1.271-.114-1.733-.229-2.082-.572-5.318 0-7.399.058.167-.11.122-.482.376-.562-.056.037-.111.161.086.161.059-.229-.058-.172-.058-.344.694-.686 1.156-1.545 1.677-2.402.347-.229.52-.629.809-.914.348-.229.578-.457.693-.916.405-.285.578-.742.926-1.029 0 .115-.116.115-.059.287.116-.172.289-.287.348-.514h-.059c0 .055-.173.055-.173 0 .058-.115.231-.344.231 0 1.098-.973 1.561-2.574 2.658-3.488.174-.459.463-.801.694-1.201.058-.059.115.057.231.057.346-.572.635-1.201.982-1.715.174-1.83-1.445-2.287-1.908-3.545-.289-.059-.289-.287-.404-.402-.23 0-.174-.17-.404-.113-2.486.686-3.873 2.459-5.838 3.66-.289.342-.637.57-.578 1.314.289.285.52.744 1.213.744.059.514.694.572.867 1.143-2.139 3.373-4.45 6.52-6.069 10.408-.231.058-.289.229-.462.285-1.619.286-3.063.743-4.451 1.258-.578-.114-1.156.286-1.445.687-.115.915.867 1.373 1.388 2.059.462 0 5.491-1.772 8.901-2.345.348.058.404-.114.867 0 .174-.171.404-.229.752-.171.058-.058 0-.172.115-.172.867-.058 1.908-.457 3.121-.343.059-.114-.173-.229 0-.229.81-.171 1.734-.228 2.66-.285.462-.572 1.271 0 1.85-.63-.405-.114-.116-.457-.405-.572zm-1.561 1.43c.058-.057.116 0 .173-.057-.115 0-.173-.057-.173.057zm8.116 1.706h.116v-.114h-.116v.114zM68.175 36.85h-.174c0 .115-.057.115-.173.115 0 .172-.058.229-.289.229.116-.113.116-.229.289-.229.058-.059.116-.115.173-.115 0-.172.174-.115.116-.287-.173-.057-.058.229-.289.172 0-.287.231-.346.347-.518-.058-.287 0-.344 0-.631-.058 0-.058 0-.115-.059.115-.285.23-.574.058-.918.058.115 0 .115-.116.115.059-.115.059-.633-.173-.344.058-.289.173-.576 0-.805-.521.516-1.272.861-1.907 1.264-.174-.115-.174-.402-.348-.518 0 .059 0 .172-.058.172l-.289-.287c-1.271-.402-2.948-.344-4.22-.344-.115.057-.231.057-.404.115-2.14-.059-5.088.861-7.342 1.205-.116.172-.521.172-.694.344-1.503.23-3.353.861-4.394 1.953-.174 2.643.867 4.537 2.602 5.457-2.254 1.723-4.74 3.273-6.416 5.629 0 .113.115.113.057.229-.982 1.035 0 2.299.289 3.39.578.632 1.734 1.379 2.66 1.092.52.229.925.057 1.329-.058 0 .114-.058.114-.058.229.463-.058.578-.115.867 0 0-.115-.059-.115-.059-.229.289.287.521-.287.752.114 0-.114.059-.173.115-.173 0 .059 0 .173.059.173.23-.057.578-.173.809-.057.116-.116.174-.173.231-.288.116.345.81.115.81-.114.115 0 .115.058.174.058.058-.288.462-.115.578-.172.058.114-.059.114-.059.172.348-.23.463-.402.867-.172 0-.116-.058-.116-.058-.23.289.058.578-.058.81-.172.115.286.174 0 .404.114.231-.459 1.041-.402 1.388-.747 0 .058.058.116.058.116 0-.173.115-.173.174-.23 1.098-.459 1.85-.977 2.254-1.953.059-.172-.115-.114-.115-.229.115 0 .115-.173.174-.229-.231-1.724-.405-2.757-.982-4.251-.348-.518-.867-.918-1.215-1.492.289.057.348-.172.404-.289.983-.229 1.445-.688 2.197-1.09.752-.115 1.619-.861 2.312-.977.058-.059.058-.172.115-.172.521 0 .637-.574 1.099-.402v-.115c-.058 0 0-.115 0 0 .867-.402 1.677-.805 2.602-1.264.115-.172-.174-.23 0-.287.115 0 .058.174.173.174l2.197-1.381c-.059-.401.289-.459.404-.803zm-17.401 6.834c.115.059 0 .115 0 .172-.057-.057 0-.113 0-.172zm.521.69c.173.057-.058.115 0 .23-.578.115-.983.688-1.388.803.405-.516.983-.688 1.388-1.033zm-.347-.172c0-.172.174-.172.289-.172-.058.115-.115.172-.289.172zm.636-.403c-.058-.23.289-.057.231-.23.174.058-.058.287-.231.23 0 .115-.174.115-.231.23-.115 0 0-.23-.058-.287.173.001.115.114.289.057zm-.289-.287c0-.115.115-.115.173-.115 0 .059-.058.115-.173.115zm.173 2.584c0 .231-.231 0 0 0 .174-.23.463-.287.521-.631.173.057.288.057.288-.115.174 0 .116.115.289.057 0-.057 0-.057.058-.057.059-.172.231.057 0 0 0 .057 0 .057-.058.057-.346.23-.635.517-1.098.689zm.232.115c0 .059-.059.059-.116.059 0-.059.116-.059.116-.059zm-.463-1.435c.058-.057.115-.115.173-.115 0 .058-.057.115-.173.115zm.116 1.666c0 .057-.058.057-.115.057-.001-.057.115-.057.115-.057zm.404-2.412c.174.057 0 .229-.173.172 0-.116.231-.057.173-.172zm-.578 2.24c-.115.172-.23.344-.52.4.174-.171.289-.343.52-.4zm-.52.631v.115h-.115c0 .057-.059.057 0 0 0-.058.057-.115.115-.115zm-.693.23c.115-.115.289-.174.289-.402.173 0 .173.115.23-.059.116.174-.23.403-.519.461zm.751-3.216c-.058.115-.116.23-.231.115.058-.059.115-.115.231-.115zm-.289.171c-.058.172-.405.402-.578.344.172-.113.289-.228.578-.344zm-.521.633c.348.172.289-.289.578-.289-.115.402-.52.518-.867.748 0 .113-.058.113-.23.113.057-.113.115-.113.23-.113 0-.23.289-.23.289-.459zm-.463.057c.116-.115.116-.23.289-.23 0 .173-.115.173-.289.23-.057.115-.173.23-.346.23a1.21 1.21 0 0 1 .346-.23zm-.519.344s.115-.113.174-.057c.115.057-.348.229-.174.057zm.174.23c.115-.059.115-.23.23-.23-.058.23.115.346-.23.402v-.057c-.116 0-.174.057-.232.115-.174-.115.115-.23.232-.23zm-.289.344h.115v.115h-.115v-.115zm-.117-.402c.173.115-.116.23-.231.23 0-.172.231-.115.231-.23zm.058.289c0 .057-.058.057-.115.057 0-.057.115-.057.115-.057zm-.115.113c-.059.115-.115.172-.289.172.115-.057.174-.172.289-.172zm-.347-.057c0 .115-.058.229-.231.229.115-.114.057-.285.231-.229zm-.174-.23c0 .059-.058 0-.116 0 .059-.057.116-.057.116 0zm-.289.976h.116c0 .059 0 .059.057.059 0-.115.059-.172.174-.172.059.113 0 .172-.174.172.059.113-.23.057-.173-.059zm.173.461c.232-.23.405-.461.694-.574.289-.404.751-.633 1.156-.863-.289.346-.694.633-1.156.863-.116.285-.404.459-.694.574 0 .113-.057.229-.23.229 0-.172.173-.172.23-.229zm1.678.516c-.116.23-.405.346-.637.518.059-.115.115-.23.115-.346.289.058.289-.172.522-.172zm-.348-1.205c.059-.059.059-.059.059-.115h.115c.058.115-.059.115-.174.115zm-.925.803c-.058-.172.231-.402.405-.459.001.23-.288.287-.405.459zm.058 1.207c.174 0 .115-.115.289-.057.059.113-.289.287-.289.057zm-.809.861c0 .229-.231 0 0 0 .173-.172.173-.459.404-.518.058.059 0 .115.058.115a.56.56 0 0 1-.462.403zm0 .517c0 .058-.058.058 0 0 .057-.23.289 0 0 0zm-.463-3.101c.058 0 .058 0 .058-.059h.116v.115c-.059 0-.059 0-.059.057h-.115v-.113zm-.057.516c0 .059-.058 0-.116 0 .058-.057.116-.057.116 0zm-.925.861c0-.057.115-.057.115-.057 0 .057-.057.057-.115.057zm1.502-1.264c.059.461-.577.748-.924 1.035.057-.402.751-.632.924-1.035zm-.693 1.264h-.115v-.113h.115v.113zm.058 1.782c-.174-.173.23-.229.23-.402.174.173-.172.229-.23.402zm.404-2.298c-.058.172-.174.229-.347.287.058-.172.232-.23.347-.287 0-.059.058-.115.058-.172.116 0 .116.229-.058.172zm2.313 5.686c0-.057.115-.057.115-.057 0 .057-.057.057-.115.057zm1.792.057c-.058 0-.058-.114-.058-.229-.059 0 0-.115 0 0 .116.058.174.172.058.229zm.173-.057c.059-.114.116-.114.232-.114.057.171-.116.114-.232.114zm.058-.287c.058-.058.058-.058.058-.114.173-.001.058.287-.058.114zm.231 0c0-.058.116-.058.116-.058 0 .058-.058.058-.116.058zm.405-.058h-.116v-.114h.116v.114zm.751-.114c-.058 0-.058-.115-.058-.172h.174c.058.114-.116.057-.116.172zm.926-.231v-.114c.058 0 .058 0 .058-.058.115 0 .115.231-.058.172zm.519-.172c.059-.058.115-.114.174-.114 0 .057-.058.114-.174.114zm.521-.171c-.058-.23.231-.058.173-.173.174.058-.057.173-.173.173zm.636-.288c0-.058.115-.058.115-.058 0 .058-.057.058-.115.058zm.404-.171c0 .171-.23-.058 0 0 0-.058.116-.058 0 0zm.752-4.596c-.52 1.148-2.139 1.607-3.642 2.01-2.023.575-3.642.861-5.781.861.231-.114.405-.286.405-.573 2.023-1.437 3.699-2.872 5.838-4.021 0-.059 0-.172-.058-.172 0-.059.058-.059.058-.059.116.23.348-.057.578 0l2.602 1.954zm-3.988-1.723h-.059c0 .172-.23-.059 0 0v-.23c.174 0 .174.172.059.23zm.057-.23c.058-.057.115-.115.115-.172.058 0 .058.115.058.172h-.173zm.636-.287c.058.172-.174.059-.174.23-.115-.058.059-.23.174-.23zm1.272-3.043c-.058.229-.289.229-.463.344-.116-.172.289-.288.463-.344zm-.116-.231v-.115h.115v.115c.001 0-.057 0-.115 0zm.463.057c-.059.059-.059.174-.231.174.057-.116.115-.174.231-.174 0-.057.057-.113.057-.172.059 0 .116.059.116.059v.113h-.173zm.115.459v.115h-.115v-.115h.115zm.579-.861c0 .059-.059.115-.059.174-.057 0-.173-.059-.23.057-.116-.116.115-.231.289-.231zm.289-.114c-.059.113-.115.229-.231.113.057-.113.115-.113.231-.113.058-.115.174-.115.23-.23.174.115-.115.23-.23.23zm.115 2.239c0 .059-.058.059-.058.117 0 0-.058-.059-.116-.059.059-.059.059-.059.059-.115.057 0 .057.057.115.057zm.174-.114v-.23c.115.059.174.059.174.23h-.174zm.404-.115h-.115v-.115h.115v.115zm-.115-2.297c.058-.059.115-.115.115-.172.174 0 0 .229-.115.172zm.404 2.125h-.115v-.115h.115v.115zm-.115-2.642c.058-.057.115-.115.23-.115-.056.115-.115.23-.23.115zm.346.23c0 .057-.058.057-.116.057 0-.057.116-.057.116-.057zm-.116 2.699c-.115 0 0-.172 0-.23.174 0 .059.172 0 .23zm-.056-.402c.289-.346.982-.287 1.098-.748.058 0 .058.059.058.115-.233.346-.637.518-1.156.633zm.289-2.297v-.115h.115v.115h-.115zm1.444 1.838h-.116v-.115h.116v.115zm0-.402c-.058.172-.288.113-.404.287-.116-.116.173-.346.404-.287 0-.231.231 0 0 0zm-.231-1.61v-.113h.115v.113h-.115zm.404-.574c-.057 0-.173 0-.173.059-.116 0 0-.172 0-.23.058.058.231-.001.173.171zm-5.723 1.781c-.867-.574-1.907-.977-2.658-1.666 1.156-.459 2.022-.861 3.353-1.092.115 0 .115-.172.173-.229.289.057.578-.059.752.057.115-.172.404-.229.578-.344.174.115.174.057.289.115.115 0 .058-.174.174-.174.346.174.751 0 .982-.229.058 0 .058.115.058.172.982-.229 1.618-.172 2.37-.518.463.172.693-.057 1.214 0-2.428 1.324-5.03 2.416-7.285 3.908zm6.013.574h-.116c.059-.059 0-.059-.058-.059 0-.112.289-.112.174.059zm.058-.459c0 .229-.115.057-.289.172-.001-.172.115-.172.289-.172 0-.058.115-.058 0 0zm.289 0h-.115v-.115h.115v.115zm.115-.115c0-.287.289-.287.463-.402-.058.23-.232.287-.463.402zm.347-2.412v-.115h.115c.058-.115.174-.172.347-.172-.058.115-.116.172-.347.172a.09.09 0 0 1-.115.115zm.231 2.125c0-.23.289-.115.289-.287.174.115-.115.287-.289.287zm.637-.402v-.115h.23c.059.173-.115.115-.23.115zm.345-.229h-.115v-.115h.115v.115zm.059.172c.115-.23.347-.287.578-.346-.115.174-.404.231-.578.346zm.867-.517c.058-.057.174-.057.115-.172.115 0 .115.057.174.057 0 .115-.115.115-.289.115zm.231-2.354c0-.059.116-.059.116-.059 0 .059-.058.059-.116.059zm.232 2.125c0 .229-.232 0 0 0 0-.059.115-.059 0 0zm-.059-2.184c0-.172.174-.23.348-.23 0 .172-.174.172-.348.23zm.348 2.067c.057-.113.173-.229.346-.229-.058.116-.173.229-.346.229zm.577-.229c-.058-.057 0-.115 0-.172.116.057 0 .116 0 .172zm.406-.23c-.174-.113.115-.229.23-.229.059.172-.173.116-.23.229zm.693-.344h-.115v-.115h.115v.115zm.463-.23c-.174-.115.115-.229.23-.229 0 .172-.23.057-.23.229zm1.676-1.149c0-.172.115-.229.231-.229-.058.057-.058.229-.231.229zm.289-.228c0-.059.115-.059.115-.059 0 .059-.057.059-.115.059zm.231-2.758c.116 0 .116.057.058.172h-.115c.057-.057.057-.115.057-.172zm-18.44 10.74v.115c.115 0 .056-.115 0-.115zm64.461 1.059c.059 0 .059.059.115 0 0-.057-.115-.057-.115 0zm12.716-13.381s-.059 0-.117.057c.059-.001.117-.001.117-.057zm2.551.693h-.117v.117h.117v-.117zm-37.947 3.99c0-.115.174-.115.115-.232-.115.059-.29.174-.115.232zm.231-.691c-.116-.117-.116.057-.29.057 0 .289.174 0 .29-.057zm-3.293-3.705s-.058 0-.116.059c.059 0 .116 0 .116-.059zm7.006 11.25c.058 0 .058-.057.116-.115-.116 0-.116.058-.116.115zM90.369 34.01h-.116v.115h.116v-.115zm17.216 13.262c0 .059.232.23.29.117-.175 0-.175-.174 0-.174 0 .057.058.115 0 .174.058 0 .058 0 .116.057.115-.115.406-.057.521-.174-.115 0-.232.059-.174-.115.58-.057.812-.113 1.508-.057.465-.461 1.393 0 1.799-.52-.291.117-.696.117-.812 0 .348-.057.87.059 1.102-.172-.231.059-.348-.057-.463.059-.059-.174-.059-.115-.174-.232.115-.057.463 0 .58-.287-.117-.115-.465.115-.523-.115.465.057.871-.23 1.219-.461-.232 0-.174.059-.116-.23-.231 0-.348.059-.405 0 .058-.174.231-.057.463-.115-.58-.402-1.334 0-2.146-.172-.058-.059-.058-.059-.058-.115.058 0 .115-.059.174-.115-.29 0-.232.057-.406 0-.059.115.058.115 0 .172-.174 0-.059-.287-.232-.23-.057.289-.348-.057-.464.115 0-.172 0-.23-.174-.23.058.115.174.346-.058.289.058-.059 0-.289-.117-.289.059.115 0 .174-.057.23-.174-.115.057-.23-.174-.172-.175 0-.059.172-.117.172-.058.059-.058.115-.115.115 0-.057 0-.115.115-.115v-.115c-.348-.057-.58-.115-.754.115-.289-.346-.406 0-.754-.057 0 .115.059.344-.115.344-.059-.172.058-.172.058-.287a16.68 16.68 0 0 0-4.292.52c-.175 0-.696-.174-.639.23.174 0 .116-.23.29-.174-.058.115.058.115.058.174-.174.057-.521.115-.58.115-.115-.232.116-.115.175-.232-1.16-.113-1.683.289-2.61.232-1.799.459-3.133.402-4.988 1.035 0-.057-.059-.113-.059-.113-.986.057-2.088.518-2.842.576.406-.404.87-.635 1.45-1.096-.059 0-.059-.059-.116-.115.058-.057.348.057.29-.057-.058-.059.058-.23.058-.289.059 0 .116-.057.232-.057v.172c.406-.346.754-.691 1.276-1.037-.116-.057-.116-.057-.116-.174.058 0 .116-.057.174-.057 0 0 .059.057.059.115 1.508-.979 3.016-1.959 4.176-3.227 1.044-.576 1.799-1.439 2.437-2.359-.116 0-.116 0-.116-.059.059-.289.348-.172.464-.346-.058-.059-.116-.059-.116-.115.174 0 .174-.174.349-.289-.059-.057-.059-.057-.059-.113-.116.113-.174-.117-.058-.174.116 0-.116.115.058.174h.059c.058-.117-.059-.23 0-.463.231 0 .058-.346.231-.459-.406-1.729-1.624-3.285-3.538-3.227-.116.115-.231.115-.348 0 .116.172-.522.287-.464.115-.232 0-.58.461-.754.115v.174c-.812.113-1.277.346-1.799.518 0 .346.174.057.232.287-.349-.115-.349.117-.465.23-.058-.287-.289.232-.405 0 0 .115-.059.232-.116.232-.232-.289-.58.402-.87.229-.754.635-1.683.807-2.437 1.557.174.057.291-.289.406-.117-.115.059-.232.174-.29.289-.058-.115-.173-.057-.116-.172-.231-.059-.116.172-.116.287.06 0 .06.059 0 0-.058 0-.058-.059-.115-.059-.175.289-.58.576-.755.576 0-.172.232-.113.29-.287-.464.23-.869.461-1.044.865 0 0 .116 0 .116.057-.058 0-.116 0-.116-.057-.231 0-.289.172-.348.402.116-.059 0 .174-.059.174 0-.059 0-.117.059-.174-.232-.059-.116.174-.232.174.232-.635.755-.98 1.16-1.557-.638.346-.986.98-1.449 1.383.115.23-.059.23-.116.346.116.115.231-.115.348-.172 0 .057.058.057.116.113-.58.52-.58 1.268-.116 1.9.522-.229 1.276.463 1.741-.172.637 0 1.102-.518 1.391-1.037.175.059.116.115.349.059-.058-.289-.232.057-.232-.117 0-.113.116-.113.232-.172-.058.172.116.115.174.172 0-.113.116-.113.116-.287-.059-.057-.116.115-.116 0 .174-.115.348-.459.522-.346-.059.115-.232.059-.175.174.812-.346 1.799-1.209 2.669-1.441.058-.172-.116-.23.058-.287.116-.057.058.057.116.174.986-.346 1.798-.75 2.668-.809-1.973 1.844-4.118 3.572-6.381 5.07-.174.23-.289.461-.58.461-.87.922-2.088 1.498-2.958 2.361a8.16 8.16 0 0 0-1.565 1.209c-.696.52-1.625.98-1.566 1.959.115.52.521.98.812 1.556.232-.057.232.173.29.462 1.045.806 2.494.518 3.364.403.116-.058.116.114.29.057 0-.114-.058-.229.059-.229.405-.173.521.229.87.057 0-.114-.116-.114-.059-.229 1.16-.23 2.494-.289 3.713-.807 0-.059 0-.059.116-.059-.059.059-.059.059-.116.059v.058c.754-.23 1.914-.058 2.784-.576 0 .114.348.173.406.058.058.057.115.229.231.173.116-.289.696-.52.929-.173.23-.058.521-.116.695-.347-.058.115-.058.174-.058.23.174-.172.348-.23.58-.115-.059-.115 0-.115.116-.115 0-.057.058-.115.115-.057-.058.057-.058.057-.115.057s0 .115 0 .115c.928-.518 2.204-.287 3.074-.863.058.057.058.23.174.23.174-.174.696-.289 1.219-.174.058-.115.173-.172.289-.287-.174 0 .059-.23 0 0 .636.116 1.622-.115 2.318-.404zm3.944-1.842c0-.059.116-.117.231-.117-.057.117-.173.174-.231.117zm.638.115c0 .057-.115.057-.115.057 0-.057.057-.057.115-.057zm-.232-.519v.174c-.231 0-.289-.115-.463 0 .115-.289.231-.059.463-.174zm-1.914 1.728c-.057-.115.059-.115.175-.115-.059.059-.117.115-.175.115zm.174-.23h-.175v-.115s.059 0 .059-.057h.116v.172zm.29.23h-.116c0-.057-.058-.057-.058-.057-.058-.116.232-.116.174.057zm.464-.519c0 .232.405 0 .405.232-.348 0-.695 0-.869.057-.232-.231.464-.057.464-.289zm-.29-1.094c.059 0 .116-.057.232-.057.058.172-.174.115-.232.172v-.115zm.059 1.037c.174 0-.175.23-.232.115-.117-.171.232.059.232-.115zm-.291-.345c.174.115-.174.172-.29.172-.058-.229.232-.116.29-.172zm-.406-.633c0-.059 0-.059.059 0 .058 0 0 .057 0 0h-.059c-.057.172-.231-.116 0 0zm-.057-.346c0 .057-.117.113-.117.113 0-.056.058-.113.117-.113zm-.406 1.67c0 .115-.349.115-.232-.057.057 0 .173 0 .232.057.057-.231.173.174 0 0zm-.059-1.268c0-.057.059-.057.116-.057 0 .057-.116.057-.116.057zm.174-.402c-.174.172-.406.113-.58.057.116-.116.406-.172.58-.057zm-.754 1.67c.059 0 .059.057.174.057 0 .058-.289.058-.174-.057zm-.464-1.9c0 .172-.175.115-.231.172-.059-.116.115-.172.231-.172zm-.231.287c.057.174-.175.174-.232.174v-.117c.057-.001.114-.001.232-.057-.059 0 .056-.057 0 0zm-.349-.116c0-.057.116-.115.231-.057.118.001-.347.173-.231.057zm.231.577c0 .115-.289 0-.289 0 .058-.116.174 0 .289 0zm0 1.267c0 .115-.231 0-.289.059 0-.117.174-.174.289-.059zm-.58-.058c.059 0 .059.059.174.059 0 .114-.289.058-.174-.059zm-.231-1.786c.116-.057.231-.057.405-.057 0 .229-.289.057-.405.172v-.115zm-.29.059c-.059.057-.174 0-.174.113-.174-.056.115-.228.174-.113zm-.522-.059c.058-.057.115 0 .115.115-.115.057-.115 0-.174 0 .001-.056.059-.056.059-.115zm-.291.059h.116c0 .113-.116.113-.174.113.001-.056.058-.056.058-.113zm-.347.057c0 .174-.232.115-.232.23-.175-.115.058-.287.232-.23zm-16.009-6.336c0-.059.058-.059.058-.115h.116c0 .115-.116.115-.174.115zm.348-.346c0 .287-.29.059 0 0-.058 0 .057-.059 0 0zm5.684-3.342c0-.172.29-.172.348 0-.174-.115-.174.059-.348 0zm.406 0c-.059-.057-.059-.172-.059-.23.232.059.232-.113.465-.113-.059.057 0 .113.058.113-.29.115-.348.058-.464.23zm.754-.402c0-.059.058-.115.058-.174.116-.057.058.059.116.174h-.174zm.58.058c0-.174.174-.174.348-.174.059.231-.232.057-.348.174zm.464-.058c-.058 0-.058 0-.058-.059v-.115s.058.059.174.059c-.058.056-.116.056-.116.115zm.174-.059c0-.057.058-.057.058-.115h.116c0 .115-.116.115-.174.115zm-3.364 9.678c.059.059-.058.059-.058.059-.058-.059 0-.059.058-.059zm-.638.404c.058 0 .058.057.116.057 0-.057 0-.057.058-.057-.058-.059.058-.059 0 0 0 .057-.058.057-.058.057 0 .059.058.059.058.174-.116.172-.232-.174-.232 0-.174-.059.058-.174.058-.231zm-.87.748c-.059.057-.059 0-.116 0 0-.056.116-.056.116 0zm-.522.289c0 .057-.116.057-.116.057-.001-.057.058-.057.116-.057zm-1.741 1.44c-.058 0-.058-.059-.058-.115s.058 0 .174 0c-.057.056-.116.056-.116.115zm.29-.346c0-.059.059-.059.116-.059.001.059-.116.059-.116.059zm1.508 3.054c0-.23.465-.116.58-.23.059.23-.405.403-.58.23zm1.509-.346h-.116v-.116h.116v.116zm5.394-3.514c-.116-.057-.059-.23.116-.23.058.173.001.23-.116.23zm.871 0c0 .056-.117.115 0 0-.059-.057.057-.057 0 0zm2.32-.403c-.059-.117.058-.117.174-.174-.059.057-.116.174-.174.174zm.464-.174c0-.172.231-.172.231.057-.115-.113-.115.059-.231-.057zm.347-.115s.059.059.116.059c-.057.113-.289.056-.116-.059zm.349-.057c0-.059.115-.059.174 0 0 .116-.233.116-.174 0zm.754-.117c.116-.057.174.289.231 0 .059-.057.175.174.232 0 .232.174-.579.289-.463 0zm6.207-.172c0-.057 0-.115.057-.172-.115 0-.289 0-.289.115.115.116.115-.058.232.057zm-17.635.981c-.058-.117.059-.117.059-.174-.233-.057-.233.174-.059.174zm1.74-10.774c-.231-.057.291-.057.175-.287-1.393.576-2.843 1.094-3.829 1.959-.115.057-.464.115-.29.287.696-.576 1.624-1.037 2.495-1.439 0 .057.058.115.058.172.29-.461 1.044-.633 1.391-.692zm-2.667 1.383s.116-.057.116-.115c-.058.059-.116.059-.116.115zm-1.508.981c-.059.113 0 .113.116.113v-.113h-.116zm-5.496 7.695c-.406-1.91-1.508-3.877-3.42-4.688-.928-.289-2.146-.463-3.479-.693 0 .115-.174.115-.29.172-.927-.404-2.435.059-3.304-.057 1.159-1.1 2.551-2.199 4.405-2.373a41.45 41.45 0 0 1 8.696-1.793c.984-.23 1.797-.174 2.376-.637-.058-.174-.058-.289 0-.463l-.348-.174c.058-.057.116-.057.116-.115-.232-.057-.116-.115-.29-.289-.231.059-.464.059-.696-.059.175 0 .291-.057.291-.115-.116-.059-.639 0-.406-.289-.58.057-1.16.115-1.682-.174.059.115 0 .23-.115.23 0-.115.058-.172-.116-.172-.058 0 0 .115-.116.115-.638-.289-1.623.23-2.377 0-.174.174-.115 0-.463 0 0-.52-.986.174-1.449-.115.115.23-.116.172-.232.23-1.102-.463-3.421 1.1-4.116-.059-.87.639-1.971 1.217-2.956 1.621-.232.752-1.044.867-1.565 1.389 0-.059 0-.115-.116-.115-1.043.752-2.145 1.504-3.072 2.371-.464.926-1.275 1.447-2.145 2.025-.059.174-.117.289-.232.404.059.695.348 1.158.29 1.852.464.406.638 1.041 1.101 1.389.059-.059.117-.059.117 0 .231 0 .405-.174.579-.289 1.333-.637 3.015-1.1 4.349-1.215.927-.115 1.738 0 2.434-.174v.115c.117 0 .117-.057.175-.115 2.376.289 4.173.174 5.796 1.447-.579 1.678-2.434 2.486-3.999 3.24-.812.637-2.028 1.039-3.015 1.387-.464-.23-1.217.349-1.391.521-.116 0 .058-.289-.175-.173 0 .058.059.173-.058.173-.638.231-1.334.464-2.145.521.058-.116-.059-.174-.117-.058 0 .289-.753.058-1.043.347-.869-.173-2.377.289-3.246-.173.115-.232.115-.521 0-.753-.174.059-.059.463-.29.579-.231-.348.348-1.274-.058-1.563-.059-.057-.232.348-.521.289 0-.115.115-.115.058-.23-.522.811-.638 2.199-.175 3.009.406.578 1.044.811 1.334 1.331.521.173 1.16.173 1.391.462.696-.347.928.348 1.393-.057.174 0-.059.173.115.173.812-.231 1.797 0 2.492-.463.117 0 .059.116.117.116.174-.116.289-.059.463-.059 2.957-.752 5.797-2.198 8.349-3.702.985-.869 2.087-1.562 2.667-2.836 0-.289.115-.346.115-.52-.06-.228.056-.402-.001-.748zm7.7 5.035s.116 0 .058-.058c-.058.001-.116.001-.058.058zm-2.901-12.443c.116-.115.232-.23.407-.346-.233 0-.464.115-.407.346zm22.216 7.547c.115 0 .059.287.29.23 0-.117 0-.174-.058-.289-.117 0-.232 0-.232.059zm-.521.689c0 .059-.059.115-.059.174.116 0 .232.059.348.115-.115-.174-.289-.174-.289-.289zm-3.248 1.442l.174.059c.115-.118-.233-.175-.174-.059zm3.479-1.038c0 .287-.349-.115-.29.23.29-.115.58.057.812-.172-.232.001-.464.058-.522-.058zm16.718-12.05l-.348-.174c.057-.059.115-.059.115-.115-.232-.059-.115-.115-.289-.289-.232.057-.465.057-.695-.059.174 0 .289-.059.289-.115-.115-.059-.639 0-.406-.289-.58.057-1.158.115-1.682-.174.059.115 0 .23-.115.23 0-.115.059-.174-.115-.174-.059 0 0 .117-.117.117-.637-.289-1.623.23-2.377 0-.174.174-.115 0-.463 0 0-.521-.984.174-1.449-.117.115.232-.115.174-.232.232-1.102-.463-3.42 1.098-4.115-.059-.869.637-1.971 1.215-2.957 1.621-.231.752-1.043.867-1.564 1.389 0-.059 0-.115-.116-.115-1.044.75-2.146 1.502-3.073 2.371-.463.926-1.275 1.445-2.145 2.025a.92.92 0 0 1-.231.404c.058.695.348 1.156.29 1.852.463.404.637 1.041 1.102 1.389.058-.059.115-.059.115 0 .232 0 .406-.174.58-.289 1.333-.637 3.014-1.1 4.348-1.215.928-.115 1.739 0 2.435-.174v.115c.116 0 .116-.057.175-.115 2.377.289 4.174.174 5.797 1.445-.58 1.678-2.436 2.488-4 3.242-.812.635-2.029 1.039-3.015 1.387-.464-.23-1.218.348-1.392.521-.115 0 .059-.289-.174-.174 0 .059.059.174-.059.174-.637.231-1.332.463-2.145.521.059-.115-.059-.173-.115-.058 0 .289-.754.058-1.044.347-.87-.173-2.377.29-3.247-.173a.85.85 0 0 0 0-.752c-.174.058-.057.463-.289.578-.232-.348.348-1.273-.059-1.562-.058-.059-.231.348-.521.289 0-.115.116-.115.059-.23-.522.809-.639 2.199-.174 3.009.405.578 1.043.81 1.333 1.331.521.173 1.159.173 1.392.462.695-.347.928.348 1.391-.058.174 0-.058.173.116.173.812-.23 1.797 0 2.493-.462.115 0 .058.115.115.115.174-.115.29-.058.464-.058 2.957-.752 5.798-2.198 8.349-3.704.984-.867 2.086-1.561 2.666-2.834 0-.289.115-.348.115-.521-.057-.232.059-.404 0-.752-.406-1.908-1.506-3.877-3.42-4.686-.928-.289-2.145-.463-3.479-.693 0 .115-.174.115-.289.172-.928-.404-2.435.059-3.305-.057 1.16-1.1 2.551-2.199 4.406-2.373a41.44 41.44 0 0 1 8.695-1.793c.986-.232 1.797-.174 2.377-.637-.06-.172-.06-.289-.001-.461zm-17.472 10.322c-.058.174-.231-.115-.231.115.115.115.348-.056.231-.115zm1.159 1.67c.059 0 .059.059.117.059.116-.116-.117-.172-.117-.059zm.175-1.381h-.175v.172h.117c.001-.059.058-.059.058-.172z"/><path d="M27.886 61.758c-.153.076-.326.113-.521.113-.18 0-.343-.035-.491-.102s-.276-.164-.382-.281-.188-.258-.25-.418-.089-.332-.089-.517c0-.173.03-.34.089-.5a1.35 1.35 0 0 1 .252-.421c.107-.122.235-.218.383-.289s.31-.108.487-.108c.153 0 .3.032.44.096s.259.161.354.289l.328-.238c-.134-.176-.301-.303-.5-.381s-.406-.116-.623-.116c-.236 0-.453.043-.651.129s-.368.206-.512.354a1.58 1.58 0 0 0-.333.529 1.77 1.77 0 0 0-.119.655c0 .242.041.464.123.667a1.6 1.6 0 0 0 .341.527 1.57 1.57 0 0 0 .514.348c.198.084.41.125.637.125.255 0 .483-.045.685-.133a1.31 1.31 0 0 0 .518-.422l-.282-.238c-.113.144-.245.256-.398.332zm2.72.019v-.901c0-.3-.069-.521-.207-.668s-.362-.22-.674-.22a1.33 1.33 0 0 0-.451.079.98.98 0 0 0-.383.244l.22.229a.78.78 0 0 1 .29-.172 1.01 1.01 0 0 1 .334-.056c.165 0 .292.039.384.117s.136.193.136.346v.062h-.134l-.425.019a1.71 1.71 0 0 0-.431.089c-.133.048-.244.121-.333.219s-.134.236-.134.408c0 .102.021.191.062.27s.099.143.168.195a.75.75 0 0 0 .246.119c.095.025.196.039.303.039.162 0 .3-.033.416-.102s.207-.158.275-.266h.009l.003.154a.7.7 0 0 0 .02.16h.337l-.022-.178-.009-.186zm-.351-.511c-.003.088-.017.168-.044.246a.62.62 0 0 1-.117.199c-.051.057-.114.102-.191.135s-.165.053-.267.053a.61.61 0 0 1-.329-.082c-.089-.057-.133-.15-.133-.281 0-.145.065-.248.197-.309s.31-.096.535-.096h.349v.135zm1.262-2.516h-.351v3.391h.351V58.75zm.97 0h-.351v3.391h.351V58.75zm1.804 2.342c-.062-.049-.135-.087-.219-.115a1.9 1.9 0 0 0-.265-.069l-.199-.045c-.064-.019-.122-.039-.17-.063s-.089-.051-.117-.083-.043-.069-.043-.115.013-.09.038-.127.058-.068.097-.092.083-.042.132-.054a.62.62 0 0 1 .146-.018c.104 0 .194.023.267.069a.55.55 0 0 1 .177.182l.292-.193a.66.66 0 0 0-.299-.292c-.126-.06-.265-.09-.415-.09-.099 0-.195.014-.287.041s-.177.065-.251.116-.134.116-.179.194-.067.167-.067.269c0 .108.02.195.061.265a.48.48 0 0 0 .162.168.95.95 0 0 0 .236.104l.282.072.166.041a.57.57 0 0 1 .144.059c.042.027.075.057.1.094s.039.082.039.139-.014.105-.041.146-.062.074-.107.1a.49.49 0 0 1-.151.059c-.056.012-.11.018-.164.018-.125 0-.229-.025-.312-.076a.86.86 0 0 1-.227-.207l-.278.217c.105.148.222.252.353.307s.285.082.464.082a1.37 1.37 0 0 0 .308-.035.82.82 0 0 0 .269-.113c.08-.053.144-.121.191-.205s.072-.186.072-.305c0-.105-.019-.193-.054-.264s-.088-.134-.151-.181zm3.474.765l-.26-.246c-.125.174-.304.26-.534.26a.67.67 0 0 1-.292-.061c-.087-.039-.161-.096-.222-.168s-.109-.154-.144-.248a.87.87 0 0 1-.051-.303c0-.108.015-.209.044-.303s.075-.177.133-.249.132-.127.222-.168a.75.75 0 0 1 .31-.06.7.7 0 0 1 .287.06c.086.041.167.105.242.196l.278-.247c-.104-.114-.227-.198-.365-.251a1.22 1.22 0 0 0-.442-.081 1.14 1.14 0 0 0-.442.083 1.01 1.01 0 0 0-.344.231 1.05 1.05 0 0 0-.222.349c-.053.134-.078.281-.078.44a1.19 1.19 0 0 0 .078.443c.052.135.125.252.22.35a.94.94 0 0 0 .344.229c.134.055.282.08.444.08a1.17 1.17 0 0 0 .435-.08c.138-.052.258-.138.359-.256zm2.415-.765a1.14 1.14 0 0 0-.086-.449c-.056-.135-.134-.25-.234-.348a1.03 1.03 0 0 0-.354-.227c-.138-.054-.287-.081-.448-.081s-.312.027-.449.081-.256.129-.355.227a1.04 1.04 0 0 0-.233.348c-.057.134-.084.284-.084.449a1.17 1.17 0 0 0 .084.449c.057.133.134.25.233.346s.217.174.355.227a1.2 1.2 0 0 0 .449.08c.161 0 .31-.025.448-.08s.256-.129.354-.227.178-.213.234-.346a1.15 1.15 0 0 0 .086-.449zm-.429.306a.72.72 0 0 1-.151.246c-.065.07-.144.127-.236.166s-.194.061-.307.061-.217-.02-.308-.061a.7.7 0 0 1-.385-.412c-.035-.094-.052-.197-.052-.307a.88.88 0 0 1 .052-.308.7.7 0 0 1 .15-.246c.066-.071.144-.125.235-.167a.76.76 0 0 1 .308-.06.78.78 0 0 1 .307.06c.092.041.17.096.236.167a.72.72 0 0 1 .151.246c.034.095.051.197.051.308a.87.87 0 0 1-.051.307zm1.758.397a.49.49 0 0 1-.151.059.77.77 0 0 1-.164.018c-.125 0-.229-.025-.312-.076a.86.86 0 0 1-.227-.207l-.279.217c.106.148.223.252.353.307a1.19 1.19 0 0 0 .464.082 1.37 1.37 0 0 0 .308-.035.82.82 0 0 0 .269-.113c.08-.053.143-.121.191-.205s.072-.186.072-.305a.58.58 0 0 0-.054-.264.49.49 0 0 0-.148-.18c-.062-.049-.135-.087-.219-.115a1.9 1.9 0 0 0-.265-.069l-.199-.045c-.064-.019-.122-.039-.17-.063s-.089-.051-.117-.083-.043-.069-.043-.115.013-.09.038-.127.057-.068.097-.092.083-.042.132-.054.099-.018.146-.018c.104 0 .194.023.267.069a.55.55 0 0 1 .177.182l.292-.193c-.073-.134-.172-.231-.299-.292s-.265-.09-.415-.09a1.02 1.02 0 0 0-.287.041c-.093.026-.177.065-.251.116s-.134.116-.179.194-.067.167-.067.269c0 .108.02.195.06.265a.49.49 0 0 0 .162.168.95.95 0 0 0 .236.104l.282.072.166.041a.58.58 0 0 1 .145.059c.042.027.075.057.1.094s.039.082.039.139-.014.105-.041.146-.064.074-.109.099zm1.081-.305c0 .107.006.205.02.295s.041.16.083.221.1.107.175.139a.76.76 0 0 0 .301.049 1.29 1.29 0 0 0 .208-.018c.073-.012.141-.031.2-.059l-.013-.316a.72.72 0 0 1-.152.053c-.055.012-.107.018-.158.018-.078 0-.137-.014-.179-.037s-.073-.061-.094-.104a.39.39 0 0 1-.036-.152l-.004-.191V60.34h.62v-.297h-.62v-.596h-.351v.596h-.458v.297h.458v1.15zm3.237-1.793c.018-.096.05-.178.095-.247a.45.45 0 0 1 .178-.159c.073-.038.165-.056.275-.056.099 0 .187.019.265.058s.151.092.22.162l.247-.265c-.095-.095-.207-.167-.332-.211a1.17 1.17 0 0 0-.391-.067c-.134 0-.261.021-.378.06a.76.76 0 0 0-.305.194.92.92 0 0 0-.202.341c-.049.139-.075.305-.075.5v.358h-.43v.296h.43v1.131h-.484v.35h1.966v-.35H45.8V60.66h.728v-.296H45.8v-.349c0-.117.01-.223.027-.318zm1.89 2.084l.979-.918.23-.227a1.83 1.83 0 0 0 .198-.243 1.11 1.11 0 0 0 .139-.28c.034-.101.052-.215.052-.34a.83.83 0 0 0-.079-.372c-.052-.108-.123-.197-.211-.27s-.19-.126-.307-.164-.242-.056-.374-.056-.248.018-.358.051a1 1 0 0 0-.299.151c-.087.065-.162.148-.22.249s-.098.215-.119.343l.409.036a.63.63 0 0 1 .201-.368c.104-.093.238-.139.399-.139.081 0 .157.012.228.038s.131.062.184.108a.49.49 0 0 1 .123.168.53.53 0 0 1 .045.224c0 .078-.01.148-.027.211a.67.67 0 0 1-.083.181c-.038.058-.084.119-.142.179l-.197.2-1.199 1.167v.43h2.047v-.35h-1.621v-.009zm2.542.309c.055-.053.083-.117.083-.191s-.026-.139-.079-.191-.116-.078-.19-.078-.14.027-.191.078a.26.26 0 0 0-.079.191c0 .074.027.139.083.191s.118.078.188.078.13-.027.185-.078zm2.606-.977a3.67 3.67 0 0 0 .045-.56 3.67 3.67 0 0 0-.045-.561 1.73 1.73 0 0 0-.167-.531c-.081-.161-.19-.292-.329-.395s-.318-.155-.537-.155-.398.051-.537.155-.248.234-.329.395-.136.337-.167.531a3.66 3.66 0 0 0-.045.561 3.67 3.67 0 0 0 .045.56 1.73 1.73 0 0 0 .167.531 1.12 1.12 0 0 0 .329.395c.139.104.319.154.537.154s.397-.051.537-.154.249-.234.329-.395.136-.337.167-.531zm-.341-.3l-.034.289a1.8 1.8 0 0 1-.072.285c-.031.094-.073.176-.125.246s-.116.131-.189.174-.165.064-.27.064-.195-.021-.269-.064a.59.59 0 0 1-.191-.174c-.053-.07-.094-.152-.125-.246s-.056-.188-.072-.285-.027-.193-.034-.289l-.009-.26.009-.26.034-.29c.017-.097.04-.192.072-.284a.91.91 0 0 1 .125-.247c.052-.071.116-.129.191-.172s.163-.065.269-.065.194.021.27.065a.61.61 0 0 1 .189.172c.053.072.095.154.125.247s.056.187.072.284l.034.29.009.26-.009.26zm2.628.841c.053-.115.078-.244.078-.389a.9.9 0 0 0-.044-.284c-.029-.091-.071-.173-.126-.244a.76.76 0 0 0-.197-.182.79.79 0 0 0-.261-.105v-.009c.081-.021.154-.056.218-.103s.119-.104.164-.167.079-.131.104-.207a.73.73 0 0 0 .036-.224c0-.125-.023-.239-.07-.341s-.109-.188-.19-.261-.177-.127-.287-.168-.231-.06-.359-.06-.249.021-.36.06-.206.098-.287.168-.145.159-.19.261-.07.215-.07.341a.73.73 0 0 0 .036.224c.024.075.058.144.103.207s.099.118.164.167.137.082.218.103v.009a.79.79 0 0 0-.261.105c-.077.05-.144.11-.197.182a.76.76 0 0 0-.125.244c-.03.091-.045.187-.045.284a.92.92 0 0 0 .078.389.88.88 0 0 0 .215.293c.092.082.2.143.323.184s.258.062.398.062.272-.02.397-.062.231-.102.323-.184a.87.87 0 0 0 .214-.293zm-1.466-1.895c0-.153.049-.278.146-.377a.52.52 0 0 1 .384-.147.52.52 0 0 1 .384.147c.097.099.146.224.146.377a.51.51 0 0 1-.146.376c-.098.099-.225.148-.384.148s-.287-.049-.384-.148a.51.51 0 0 1-.146-.376zm1.118 1.735c-.033.078-.079.145-.137.201s-.126.098-.202.129a.66.66 0 0 1-.249.047.66.66 0 0 1-.25-.047.64.64 0 0 1-.201-.129.6.6 0 0 1-.137-.201c-.032-.076-.049-.162-.049-.254s.017-.18.049-.257a.6.6 0 0 1 .137-.2.66.66 0 0 1 .451-.176.68.68 0 0 1 .249.046c.076.032.144.075.202.13s.104.122.137.2.049.163.049.257-.017.178-.049.254zm3.578.617a1.03 1.03 0 0 0 .334-.23 1.1 1.1 0 0 0 .222-.35 1.17 1.17 0 0 0 .081-.439c0-.159-.027-.306-.081-.44s-.128-.251-.224-.349-.213-.176-.349-.231a1.19 1.19 0 0 0-.451-.083c-.152 0-.292.031-.42.095s-.238.15-.333.265h-.009v-.306h-.35v3.123h.35V61.77h.009a.84.84 0 0 0 .311.303 1 1 0 0 0 .497.121c.147-.001.284-.028.413-.083zm-.793-.3c-.091-.039-.169-.096-.236-.166s-.116-.152-.15-.246a.9.9 0 0 1-.051-.307.93.93 0 0 1 .051-.308c.034-.094.085-.176.15-.246a.74.74 0 0 1 .236-.167c.092-.04.194-.06.308-.06s.217.021.308.06a.72.72 0 0 1 .235.167.7.7 0 0 1 .15.246.88.88 0 0 1 .052.308c0 .109-.018.213-.052.307a.7.7 0 0 1-.15.246.69.69 0 0 1-.235.166c-.091.041-.194.061-.308.061s-.216-.02-.308-.061zm2.804.382c.196 0 .371-.031.52-.096s.288-.178.413-.338l-.265-.207c-.084.105-.178.184-.282.238a.85.85 0 0 1-.386.08c-.097 0-.184-.018-.265-.053s-.151-.086-.211-.146-.108-.133-.146-.215a.73.73 0 0 1-.064-.258h1.696v-.113a1.39 1.39 0 0 0-.071-.463.97.97 0 0 0-.205-.346.88.88 0 0 0-.316-.215c-.123-.049-.258-.074-.404-.074a1.13 1.13 0 0 0-.431.081c-.131.053-.246.129-.341.227a1.01 1.01 0 0 0-.224.349c-.055.137-.081.285-.081.447 0 .152.024.295.074.43s.119.252.21.35a.99.99 0 0 0 .334.236c.132.057.281.086.445.086zm-.472-1.72c.12-.108.277-.162.472-.162s.347.053.458.162.168.251.174.43h-1.319c.023-.179.096-.323.215-.43zm2.945-.485a.87.87 0 0 0-.243.034c-.076.022-.142.053-.202.089s-.112.08-.155.127a.64.64 0 0 0-.101.148h-.009l-.005-.174-.004-.171h-.333l.009.229.009.27v1.601h.35v-1.023c0-.241.048-.432.146-.571s.254-.208.469-.208c.065 0 .129.009.188.026l.022-.354a.31.31 0 0 0-.071-.018c-.022-.003-.046-.005-.07-.005zm1.748 1.897a.93.93 0 0 0 .344.229 1.16 1.16 0 0 0 .444.08 1.17 1.17 0 0 0 .436-.08.9.9 0 0 0 .358-.256l-.26-.246c-.125.174-.304.26-.534.26-.108 0-.206-.02-.292-.061a.63.63 0 0 1-.222-.168.78.78 0 0 1-.143-.248.87.87 0 0 1-.052-.303.99.99 0 0 1 .045-.303c.029-.094.074-.177.132-.249s.132-.127.222-.168.193-.06.31-.06c.104 0 .199.021.288.06a.7.7 0 0 1 .241.196l.279-.247c-.104-.114-.227-.198-.365-.251s-.288-.081-.442-.081a1.14 1.14 0 0 0-.442.083 1.02 1.02 0 0 0-.344.231c-.096.098-.169.215-.222.349s-.078.281-.078.44a1.19 1.19 0 0 0 .078.443 1.05 1.05 0 0 0 .219.35zm3.571.078l-.009-.186v-.901c0-.3-.069-.521-.206-.668s-.363-.22-.674-.22a1.33 1.33 0 0 0-.451.079.98.98 0 0 0-.384.244l.22.229a.8.8 0 0 1 .29-.172 1.01 1.01 0 0 1 .335-.056c.165 0 .292.039.384.117s.137.193.137.346v.062h-.135l-.424.019a1.69 1.69 0 0 0-.431.089.82.82 0 0 0-.334.219c-.089.1-.134.236-.134.408 0 .102.021.191.062.27s.098.143.168.195.153.092.247.119a1.17 1.17 0 0 0 .302.039c.162 0 .3-.033.416-.102a.82.82 0 0 0 .276-.266h.008l.003.154a.7.7 0 0 0 .02.16h.337c-.01-.053-.018-.114-.023-.178zm-.359-.697c-.003.088-.018.168-.045.246a.62.62 0 0 1-.117.199c-.051.057-.114.102-.191.135s-.165.053-.267.053c-.132 0-.242-.027-.33-.082s-.132-.15-.132-.281c0-.145.065-.248.197-.309s.31-.096.535-.096h.35v.135zm1.262-2.516h-.351v3.391h.351V58.75zm.969 0h-.35v3.391h.35V58.75zm.486 4.01h.344l.368-1.076h-.407l-.305 1.076zm3.37-.906c-.055.012-.107.018-.158.018-.078 0-.137-.014-.179-.037s-.074-.061-.096-.104a.39.39 0 0 1-.036-.152l-.004-.191V60.34h.62v-.297h-.62v-.596h-.35v.596h-.458v.297h.458v1.152c0 .107.007.205.02.295s.041.16.083.221.101.107.176.139a.76.76 0 0 0 .301.049 1.3 1.3 0 0 0 .209-.018c.072-.012.14-.031.199-.059l-.014-.316a.81.81 0 0 1-.151.051zm2.109-1.629c-.066-.074-.148-.132-.249-.174s-.219-.063-.357-.063a.86.86 0 0 0-.229.031.96.96 0 0 0-.195.081c-.059.033-.108.07-.15.11s-.074.082-.098.124h-.01V58.75h-.351v3.391h.351v-1.023a1.29 1.29 0 0 1 .039-.327.73.73 0 0 1 .115-.256c.053-.071.12-.126.202-.166s.181-.058.294-.058c.165 0 .286.051.364.153s.117.24.117.417v1.26h.349v-1.296a1.27 1.27 0 0 0-.046-.347c-.031-.107-.08-.198-.146-.273zm2.074 1.566c-.105.053-.233.08-.386.08a.66.66 0 0 1-.266-.053.73.73 0 0 1-.211-.146c-.06-.061-.108-.133-.146-.215a.73.73 0 0 1-.063-.258h1.695v-.113a1.39 1.39 0 0 0-.07-.463.97.97 0 0 0-.206-.346c-.088-.093-.193-.166-.315-.215a1.08 1.08 0 0 0-.404-.074c-.155 0-.3.027-.431.081s-.246.129-.341.227a1.01 1.01 0 0 0-.224.349c-.055.137-.081.285-.081.447 0 .152.024.295.074.43a.99.99 0 0 0 .21.35.98.98 0 0 0 .334.236 1.11 1.11 0 0 0 .445.086c.196 0 .371-.031.52-.096s.287-.178.414-.338l-.266-.207c-.084.105-.179.183-.282.238zm-.858-1.318c.119-.108.276-.162.472-.162s.347.053.457.162.169.251.175.43h-1.318c.022-.179.094-.323.214-.43zm1.912.067v1.601h.35v-1.023a1.29 1.29 0 0 1 .039-.327c.024-.098.064-.184.116-.256s.12-.126.202-.166.181-.058.294-.058c.164 0 .285.051.363.153s.118.24.118.417v1.26h.349v-1.296a1.27 1.27 0 0 0-.046-.347c-.032-.106-.081-.197-.146-.272a.67.67 0 0 0-.25-.174.92.92 0 0 0-.356-.063.86.86 0 0 0-.242.034.84.84 0 0 0-.201.089c-.061.037-.112.08-.156.127a.67.67 0 0 0-.101.148h-.009l-.005-.174-.004-.171h-.332l.009.229.008.269zm5.427.255c-.048-.123-.114-.229-.2-.316a.86.86 0 0 0-.305-.205c-.117-.048-.246-.072-.383-.072a1.25 1.25 0 0 0-.218.022.74.74 0 0 0-.21.072l-.009-.009.854-1.323h-.439l-.844 1.34a2.83 2.83 0 0 0-.217.413 1.25 1.25 0 0 0-.085.48 1.02 1.02 0 0 0 .081.416c.054.123.129.227.225.312s.209.15.339.197.27.068.419.068a1.28 1.28 0 0 0 .421-.068c.13-.047.242-.111.338-.197s.171-.189.225-.312.081-.262.081-.416c-.001-.144-.026-.279-.073-.402zm-.358.684a.66.66 0 0 1-.146.211.62.62 0 0 1-.217.135.78.78 0 0 1-.271.047.77.77 0 0 1-.269-.047c-.084-.031-.156-.076-.218-.135s-.11-.129-.146-.211a.71.71 0 0 1-.053-.279c0-.102.018-.194.053-.278s.085-.155.146-.213a.63.63 0 0 1 .218-.134c.084-.032.173-.048.269-.048s.186.016.271.048.156.076.217.134a.63.63 0 0 1 .146.213c.036.083.054.176.054.278a.71.71 0 0 1-.054.279zm2.774.312h-1.621v-.01l.979-.918.23-.227c.073-.076.141-.157.199-.243a1.11 1.11 0 0 0 .139-.28c.034-.101.052-.215.052-.34a.83.83 0 0 0-.079-.372.78.78 0 0 0-.211-.27.94.94 0 0 0-.308-.164 1.19 1.19 0 0 0-.372-.056c-.129 0-.249.018-.359.051a1 1 0 0 0-.299.151c-.088.065-.162.148-.22.249s-.098.215-.119.343l.409.036a.63.63 0 0 1 .201-.368.58.58 0 0 1 .399-.139c.081 0 .157.012.228.038s.131.062.184.108a.49.49 0 0 1 .123.168c.029.065.045.14.045.224a.85.85 0 0 1-.026.211c-.019.062-.046.123-.083.181s-.085.119-.143.179l-.196.2-1.199 1.167v.43h2.048v-.349zm.736.377c.068 0 .131-.027.187-.078s.082-.117.082-.191-.025-.139-.078-.191-.116-.078-.19-.078-.14.027-.191.078a.26.26 0 0 0-.079.191c0 .074.027.139.083.191s.117.078.186.078zm2.093-.051a1.01 1.01 0 0 0 .346-.213.96.96 0 0 0 .229-.332c.056-.129.083-.273.083-.432 0-.149-.023-.288-.071-.415a1.02 1.02 0 0 0-.206-.332.96.96 0 0 0-.321-.22c-.124-.052-.263-.078-.416-.078a1.39 1.39 0 0 0-.208.016.61.61 0 0 0-.199.061l.013-.856h1.297v-.35h-1.664l-.033 1.65c.098-.057.201-.104.315-.141s.224-.056.332-.056.214.016.31.047a.72.72 0 0 1 .25.139.65.65 0 0 1 .165.226c.041.091.061.194.061.31 0 .111-.018.211-.054.301a.71.71 0 0 1-.146.23.64.64 0 0 1-.217.148c-.081.033-.171.051-.267.051a.6.6 0 0 1-.355-.109c-.104-.074-.183-.17-.236-.289l-.377.143c.086.178.203.318.353.422s.343.156.585.156c.153-.001.297-.026.431-.077zm3.029-1.815a1.01 1.01 0 0 0-.35-.231c-.135-.055-.286-.083-.45-.083-.151 0-.292.031-.421.095s-.238.15-.333.265h-.009v-.306h-.35v3.123h.35V61.77h.009c.065.117.17.219.312.303a1 1 0 0 0 .497.121 1.04 1.04 0 0 0 .412-.082 1.03 1.03 0 0 0 .335-.23c.095-.1.169-.215.222-.35a1.17 1.17 0 0 0 .081-.439c0-.159-.027-.306-.081-.44a1.06 1.06 0 0 0-.224-.351zm-.124 1.096a.72.72 0 0 1-.151.246.7.7 0 0 1-.234.166c-.092.041-.193.061-.308.061s-.216-.02-.308-.061-.17-.096-.236-.166a.7.7 0 0 1-.149-.246.9.9 0 0 1-.052-.307c0-.111.018-.213.052-.308a.7.7 0 0 1 .149-.246.74.74 0 0 1 .236-.167.76.76 0 0 1 .308-.06c.115 0 .216.021.308.06s.169.096.234.167a.72.72 0 0 1 .151.246c.034.095.052.197.052.308a.92.92 0 0 1-.052.307zm3.889-1.096c-.097-.099-.213-.176-.349-.231a1.19 1.19 0 0 0-.45-.083c-.153 0-.293.031-.421.095a1.02 1.02 0 0 0-.334.265h-.009v-.306h-.35v3.123h.35V61.77h.009c.066.117.171.219.312.303a1 1 0 0 0 .497.121c.146 0 .283-.027.413-.082a1.04 1.04 0 0 0 .334-.23 1.1 1.1 0 0 0 .223-.35 1.17 1.17 0 0 0 .081-.439c0-.159-.027-.306-.081-.44s-.13-.253-.225-.351zm-.124 1.096c-.035.094-.085.176-.15.246a.71.71 0 0 1-.234.166c-.092.041-.194.061-.308.061s-.218-.02-.309-.061a.69.69 0 0 1-.235-.166c-.065-.07-.116-.152-.15-.246a.9.9 0 0 1-.052-.307c0-.111.018-.213.052-.308s.085-.176.15-.246.145-.125.235-.167.193-.06.309-.06.216.021.308.06.169.096.234.167.115.152.15.246.052.197.052.308-.018.214-.052.307zm2.324.7c.149-.064.287-.178.412-.338l-.265-.207c-.083.105-.179.184-.283.238s-.233.08-.385.08c-.097 0-.185-.018-.265-.053s-.151-.086-.212-.146-.108-.133-.146-.215a.73.73 0 0 1-.064-.258h1.696v-.113a1.39 1.39 0 0 0-.071-.463c-.047-.136-.115-.251-.204-.346s-.193-.166-.317-.215-.257-.074-.403-.074a1.13 1.13 0 0 0-.431.081.99.99 0 0 0-.342.227 1.04 1.04 0 0 0-.224.349c-.055.137-.08.285-.08.447 0 .152.023.295.073.43a1.02 1.02 0 0 0 .21.35c.092.1.203.178.335.236s.28.086.445.086c.197-.001.371-.032.521-.096zm-.992-1.625c.12-.108.276-.162.472-.162s.346.053.457.162a.6.6 0 0 1 .175.43h-1.319a.67.67 0 0 1 .215-.43zm2.876-.135c.065 0 .129.009.188.026l.022-.354a.3.3 0 0 0-.07-.018c-.025-.003-.05-.005-.073-.005-.087 0-.168.012-.242.034s-.143.053-.202.089a.72.72 0 0 0-.154.127c-.044.048-.077.098-.102.148h-.009l-.005-.174-.004-.171h-.332l.009.229.009.27v1.601h.35v-1.023c0-.241.049-.432.146-.571s.254-.208.469-.208zm4.347.152a.51.51 0 0 1 .08.184.99.99 0 0 1 .022.211v1.255h.35v-1.274c0-.134-.014-.256-.04-.365s-.072-.203-.135-.279a.61.61 0 0 0-.246-.175c-.103-.04-.229-.061-.378-.061-.162 0-.293.035-.396.105a1 1 0 0 0-.269.294l-.069-.123c-.028-.046-.068-.09-.12-.13a.67.67 0 0 0-.19-.103c-.076-.028-.171-.043-.284-.043a.86.86 0 0 0-.243.034c-.074.022-.142.053-.201.089a.7.7 0 0 0-.155.127c-.044.048-.077.098-.102.148h-.009l-.005-.174-.004-.171h-.332l.009.229.009.27v1.601h.35v-1.023a1.29 1.29 0 0 1 .039-.327.75.75 0 0 1 .116-.256.54.54 0 0 1 .203-.166c.081-.039.18-.058.294-.058.143 0 .246.049.31.146s.093.262.093.495v1.188h.352V60.93a.74.74 0 0 1 .042-.254.61.61 0 0 1 .116-.194.51.51 0 0 1 .174-.125c.065-.03.135-.045.21-.045a.56.56 0 0 1 .252.05c.065.031.118.075.157.128zm1.395-1.085c.048-.047.071-.109.071-.184a.25.25 0 0 0-.073-.179c-.05-.051-.11-.076-.183-.076s-.132.025-.182.076-.074.111-.074.179c0 .075.024.136.072.184s.109.072.184.072.138-.024.185-.072zm-.008.637h-.351v2.099h.351v-2.099zm2.413 2.099v-1.296c0-.125-.016-.241-.047-.347a.72.72 0 0 0-.146-.272.68.68 0 0 0-.249-.174c-.101-.042-.22-.063-.356-.063a.86.86 0 0 0-.243.034.82.82 0 0 0-.201.089.7.7 0 0 0-.155.127c-.044.048-.077.098-.102.148h-.009l-.004-.174-.004-.171h-.332l.009.229.009.27v1.601h.349v-1.023a1.29 1.29 0 0 1 .039-.327.75.75 0 0 1 .116-.256.54.54 0 0 1 .202-.166c.082-.039.181-.058.295-.058.163 0 .285.051.363.153s.116.24.116.417v1.26h.35zm2.384-.498v-1.601h-.351v1.023c0 .119-.013.229-.039.326s-.064.184-.116.256-.119.129-.202.168a.71.71 0 0 1-.294.057c-.164 0-.285-.051-.364-.152s-.116-.24-.116-.418v-1.259h-.35v1.296a1.25 1.25 0 0 0 .047.348c.032.105.081.195.146.271s.149.133.25.174.22.062.356.062c.087 0 .168-.01.242-.033a.77.77 0 0 0 .202-.088.79.79 0 0 0 .154-.129c.044-.049.077-.098.102-.148h.009l.005.176.004.17h.333l-.009-.229-.009-.27zm1.553.211c-.055.012-.107.018-.157.018-.078 0-.138-.014-.18-.037s-.072-.061-.094-.104a.39.39 0 0 1-.036-.152l-.004-.191V60.34h.619v-.297h-.619v-.596h-.351v.596h-.458v.297h.458v1.152a1.92 1.92 0 0 0 .021.295c.014.086.041.16.083.221s.1.107.175.139a.76.76 0 0 0 .301.049 1.29 1.29 0 0 0 .208-.018c.073-.012.141-.031.199-.059l-.013-.316a.8.8 0 0 1-.152.051zm2.143-1.577c-.088-.093-.193-.166-.315-.215s-.258-.074-.404-.074a1.13 1.13 0 0 0-.431.081c-.132.053-.246.129-.341.227a1.01 1.01 0 0 0-.224.349c-.055.137-.081.285-.081.447 0 .152.024.295.074.43a.99.99 0 0 0 .21.35.98.98 0 0 0 .334.236c.132.057.281.086.445.086.196 0 .371-.031.52-.096s.288-.178.414-.338l-.266-.207c-.084.105-.179.184-.282.238s-.233.08-.386.08c-.097 0-.184-.018-.266-.053a.73.73 0 0 1-.211-.146c-.06-.061-.108-.133-.146-.215a.73.73 0 0 1-.064-.258h1.696v-.113a1.39 1.39 0 0 0-.07-.463.95.95 0 0 0-.206-.346zm-1.42.626a.67.67 0 0 1 .216-.43c.119-.108.277-.162.472-.162s.347.053.457.162.169.251.175.43h-1.32zm2.334.781l-.305 1.076h.345l.369-1.076h-.409zm-82.53 3.402c-.097-.1-.212-.176-.349-.232a1.19 1.19 0 0 0-.451-.082c-.152 0-.292.031-.42.094a1.01 1.01 0 0 0-.334.266h-.009v-.307h-.35v3.123h.35v-1.395h.009c.066.117.171.219.312.303s.308.121.497.121c.146 0 .284-.027.413-.082a1.04 1.04 0 0 0 .334-.23c.095-.1.168-.215.222-.35a1.17 1.17 0 0 0 .081-.439 1.16 1.16 0 0 0-.081-.439 1.06 1.06 0 0 0-.224-.351zm-.124 1.096a.72.72 0 0 1-.151.246.69.69 0 0 1-.235.166.74.74 0 0 1-.308.061c-.114 0-.216-.02-.308-.061s-.169-.096-.236-.166-.116-.152-.15-.246a.9.9 0 0 1-.051-.307.94.94 0 0 1 .051-.309c.035-.094.085-.176.15-.246s.145-.125.236-.166.194-.061.308-.061.216.021.308.061a.72.72 0 0 1 .386.412.91.91 0 0 1 .051.309c0 .109-.017.213-.051.307zm.89.742h.351v-3.391h-.351v3.391zm2.765-.498v-1.602h-.349v1.023c0 .119-.013.229-.039.326s-.064.184-.116.256a.53.53 0 0 1-.202.168.71.71 0 0 1-.294.057c-.165 0-.285-.051-.363-.152s-.117-.24-.117-.418v-1.26h-.35v1.297a1.25 1.25 0 0 0 .046.348c.032.105.081.195.146.271s.149.133.25.174.219.062.356.062c.087 0 .168-.01.243-.033s.142-.053.202-.088a.8.8 0 0 0 .155-.129.66.66 0 0 0 .101-.148h.009l.005.176.004.17h.332l-.009-.229-.01-.269zm1.774-.551a.69.69 0 0 0-.219-.115c-.084-.027-.172-.051-.265-.068l-.199-.045a1.08 1.08 0 0 1-.171-.064c-.05-.023-.088-.051-.117-.082s-.043-.068-.043-.115.013-.09.038-.127.057-.068.096-.092.083-.041.132-.055.099-.018.146-.018c.104 0 .194.023.267.07s.133.105.178.182l.292-.193c-.072-.135-.171-.232-.299-.291s-.265-.09-.415-.09c-.098 0-.195.014-.288.041s-.176.064-.251.115-.135.115-.18.193a.53.53 0 0 0-.067.27.51.51 0 0 0 .06.264c.04.07.095.125.162.168s.145.078.235.105l.283.072.166.039c.055.016.102.035.144.061a.35.35 0 0 1 .101.094c.026.035.039.082.039.139s-.014.105-.041.146-.062.074-.107.1a.49.49 0 0 1-.151.059.77.77 0 0 1-.164.018c-.126 0-.23-.025-.312-.076a.86.86 0 0 1-.227-.207l-.279.217c.105.148.223.252.353.307s.285.082.464.082a1.37 1.37 0 0 0 .308-.035.83.83 0 0 0 .269-.113c.08-.053.143-.121.191-.205s.072-.186.072-.305c0-.105-.018-.193-.054-.266a.47.47 0 0 0-.147-.18zm2.495.596h-.009l-.651-1.646h-.408l.87 2.113-.143.395c-.039.105-.085.188-.139.25s-.138.096-.251.096c-.051 0-.096-.002-.135-.008s-.076-.014-.112-.029l-.045.307a.48.48 0 0 0 .155.045l.159.006a.73.73 0 0 0 .267-.043.51.51 0 0 0 .188-.121.78.78 0 0 0 .136-.188l.11-.244 1.014-2.58h-.382l-.624 1.647zm3.075-1.393a1.03 1.03 0 0 0-.354-.227c-.137-.053-.287-.08-.448-.08s-.312.027-.449.08a1.03 1.03 0 0 0-.354.227c-.1.098-.178.213-.234.348s-.084.285-.084.449.028.312.084.447.135.252.234.348a1 1 0 0 0 .354.227c.138.055.288.08.449.08s.311-.025.448-.08.256-.129.354-.227a1.03 1.03 0 0 0 .233-.348c.057-.135.086-.283.086-.447s-.029-.314-.086-.449a1.05 1.05 0 0 0-.233-.348zm-.109 1.104c-.035.094-.084.176-.151.246a.69.69 0 0 1-.235.166c-.092.041-.194.061-.307.061s-.216-.02-.308-.061-.17-.096-.236-.166a.7.7 0 0 1-.15-.246c-.035-.094-.052-.197-.052-.307a.89.89 0 0 1 .052-.309.69.69 0 0 1 .15-.246c.066-.07.145-.125.236-.166s.194-.061.308-.061a.76.76 0 0 1 .307.061.72.72 0 0 1 .235.166c.067.07.116.152.151.246a.91.91 0 0 1 .052.309.93.93 0 0 1-.052.307zm2.69.244v-1.602h-.35v1.023c0 .119-.013.229-.039.326s-.064.184-.116.256-.12.129-.202.168-.181.057-.294.057c-.165 0-.285-.051-.364-.152s-.117-.24-.117-.418v-1.26h-.35v1.297a1.25 1.25 0 0 0 .047.348c.032.105.081.195.146.271s.149.133.25.174.219.062.356.062c.086 0 .167-.01.243-.033s.142-.053.202-.088a.8.8 0 0 0 .155-.129.63.63 0 0 0 .101-.148h.009l.005.176.004.17h.333l-.009-.229-.01-.269zm1.585-1.655c-.086 0-.167.012-.242.033s-.143.053-.202.09a.7.7 0 0 0-.155.127c-.044.049-.077.098-.102.148h-.009l-.004-.174-.004-.172h-.333l.009.229.009.27v1.602h.35V65.9c0-.24.049-.432.146-.57s.254-.209.47-.209a.69.69 0 0 1 .188.027l.022-.355a.46.46 0 0 0-.071-.018l-.072-.004zm3.466.315c-.097-.1-.212-.176-.349-.232s-.286-.082-.451-.082c-.151 0-.292.031-.419.094a.99.99 0 0 0-.334.266h-.009v-.307h-.35v3.123h.35v-1.395h.009c.066.117.17.219.312.303s.307.121.497.121c.146 0 .283-.027.413-.082s.24-.133.334-.23a1.1 1.1 0 0 0 .222-.35 1.17 1.17 0 0 0 .081-.439 1.16 1.16 0 0 0-.081-.439 1.08 1.08 0 0 0-.225-.351zm-.124 1.096a.72.72 0 0 1-.151.246.71.71 0 0 1-.235.166.74.74 0 0 1-.308.061c-.115 0-.216-.02-.308-.061s-.169-.096-.236-.166a.7.7 0 0 1-.149-.246.9.9 0 0 1-.052-.307c0-.111.018-.213.052-.309s.084-.176.149-.246a.76.76 0 0 1 .236-.166c.091-.039.193-.061.308-.061a.76.76 0 0 1 .308.061.73.73 0 0 1 .235.166.72.72 0 0 1 .151.246.91.91 0 0 1 .051.309.88.88 0 0 1-.051.307zm2.498-1.174a.69.69 0 0 0-.25-.174.94.94 0 0 0-.356-.062.81.81 0 0 0-.229.031c-.072.021-.137.049-.196.08s-.108.07-.15.109a.52.52 0 0 0-.098.125h-.01v-1.584h-.35v3.391h.35V65.9c0-.119.013-.229.039-.326a.75.75 0 0 1 .116-.256c.053-.072.12-.127.202-.166a.68.68 0 0 1 .294-.059c.164 0 .285.051.363.152s.117.24.117.418v1.26h.35v-1.297a1.25 1.25 0 0 0-.046-.348.75.75 0 0 0-.146-.27zm2.549.07c-.099-.098-.217-.172-.355-.227s-.287-.08-.448-.08-.311.027-.449.08a1.03 1.03 0 0 0-.354.227c-.1.098-.178.213-.234.348s-.085.285-.085.449.028.312.085.447.134.252.234.348a1 1 0 0 0 .354.227c.138.055.288.08.449.08s.311-.025.448-.08.256-.129.355-.227a1.03 1.03 0 0 0 .233-.348c.056-.135.085-.283.085-.447s-.029-.314-.085-.449a1.05 1.05 0 0 0-.233-.348zm-.109 1.104a.72.72 0 0 1-.151.246.69.69 0 0 1-.235.166.74.74 0 0 1-.307.061.74.74 0 0 1-.307-.061c-.092-.039-.17-.096-.236-.166a.7.7 0 0 1-.15-.246c-.035-.094-.051-.197-.051-.307s.017-.213.051-.309a.7.7 0 0 1 .15-.246c.066-.07.144-.125.236-.166a.77.77 0 0 1 .307-.061c.113 0 .216.021.307.061a.71.71 0 0 1 .235.166c.066.07.117.152.151.246a.91.91 0 0 1 .052.309c0 .109-.018.213-.052.307zm2.498-1.174c-.067-.074-.149-.131-.25-.174s-.219-.062-.356-.062c-.086 0-.167.012-.242.033s-.142.053-.202.09-.112.08-.155.127a.66.66 0 0 0-.101.148h-.009l-.005-.174-.004-.172h-.333l.009.229.009.27v1.602h.35V65.9c0-.119.013-.229.039-.326a.75.75 0 0 1 .116-.256c.052-.072.12-.127.203-.166a.68.68 0 0 1 .294-.059c.164 0 .286.051.364.152s.117.24.117.418v1.26h.35v-1.297a1.29 1.29 0 0 0-.046-.348c-.034-.104-.083-.194-.148-.27zm2.42.053c-.088-.094-.193-.166-.316-.215a1.09 1.09 0 0 0-.405-.074c-.154 0-.299.027-.43.08s-.246.129-.341.227-.17.213-.224.35-.081.285-.081.447c0 .152.024.295.074.43s.119.252.21.35a.96.96 0 0 0 .334.234 1.08 1.08 0 0 0 .445.088c.196 0 .371-.031.52-.096s.287-.178.413-.338l-.265-.207c-.084.105-.178.184-.282.238a.85.85 0 0 1-.386.08c-.097 0-.184-.018-.266-.055s-.15-.084-.211-.145-.108-.133-.146-.215a.73.73 0 0 1-.064-.258h1.696v-.113c0-.172-.023-.328-.071-.463s-.115-.252-.204-.345zm-1.42.625c.023-.18.096-.322.215-.43s.276-.162.472-.162.347.055.458.162.168.25.174.43H60.13zm3.697-.364c.059-.072.132-.127.222-.168a.77.77 0 0 1 .31-.061.68.68 0 0 1 .287.061c.087.041.168.105.242.195l.278-.246c-.104-.115-.227-.197-.365-.252a1.24 1.24 0 0 0-.442-.08 1.14 1.14 0 0 0-.442.082c-.133.057-.247.133-.344.232s-.169.215-.222.35a1.18 1.18 0 0 0-.078.439 1.19 1.19 0 0 0 .078.443c.052.135.125.252.22.35a.93.93 0 0 0 .344.229c.134.055.282.08.444.08a1.17 1.17 0 0 0 .436-.08.9.9 0 0 0 .358-.256l-.26-.246a.62.62 0 0 1-.534.26c-.108 0-.206-.02-.292-.061a.64.64 0 0 1-.222-.168.78.78 0 0 1-.143-.248.87.87 0 0 1-.052-.303c0-.109.015-.209.045-.303s.074-.176.132-.249zm3.422-.244c-.099-.098-.217-.172-.355-.227a1.24 1.24 0 0 0-.448-.08 1.24 1.24 0 0 0-.449.08c-.138.055-.256.129-.355.227a1.05 1.05 0 0 0-.233.348c-.057.135-.085.285-.085.449s.028.312.085.447a1.03 1.03 0 0 0 .233.348c.099.098.217.174.355.227a1.2 1.2 0 0 0 .449.08c.161 0 .311-.025.448-.08s.256-.129.355-.227a1.03 1.03 0 0 0 .233-.348c.056-.135.085-.283.085-.447s-.029-.314-.085-.449a1.05 1.05 0 0 0-.233-.348zm-.109 1.104a.72.72 0 0 1-.151.246c-.065.07-.144.127-.236.166s-.194.061-.307.061-.216-.02-.308-.061-.169-.096-.236-.166a.7.7 0 0 1-.15-.246c-.035-.094-.051-.197-.051-.307s.017-.213.051-.309a.7.7 0 0 1 .15-.246c.066-.07.144-.125.236-.166a.78.78 0 0 1 .308-.061.76.76 0 0 1 .307.061c.092.041.17.096.236.166a.72.72 0 0 1 .151.246.91.91 0 0 1 .051.309.93.93 0 0 1-.051.307zm3.843-1.176a.6.6 0 0 0-.246-.174c-.103-.041-.228-.061-.378-.061-.161 0-.293.035-.395.105a.97.97 0 0 0-.269.293l-.07-.123a.5.5 0 0 0-.119-.131c-.051-.039-.114-.074-.191-.102a.8.8 0 0 0-.284-.043.89.89 0 0 0-.242.033c-.075.023-.143.053-.201.09a.71.71 0 0 0-.156.127.66.66 0 0 0-.101.148h-.009l-.005-.174-.004-.172h-.332l.008.229.009.27v1.602h.35V65.9c0-.119.013-.229.039-.326a.75.75 0 0 1 .116-.256.52.52 0 0 1 .202-.166c.082-.039.181-.059.294-.059.144 0 .246.049.31.146s.094.262.094.496v1.188h.351v-1.211c0-.092.014-.178.042-.254a.61.61 0 0 1 .117-.195.55.55 0 0 1 .173-.125c.065-.029.136-.045.211-.045a.56.56 0 0 1 .252.051.4.4 0 0 1 .157.129.51.51 0 0 1 .081.184.98.98 0 0 1 .022.211v1.256h.349V65.65c0-.135-.014-.256-.039-.365a.68.68 0 0 0-.136-.279zm2.623.08a1.03 1.03 0 0 0-.35-.232 1.19 1.19 0 0 0-.45-.082c-.152 0-.292.031-.421.094a1.01 1.01 0 0 0-.334.266h-.009v-.307h-.349v3.123h.349v-1.395h.009c.066.117.171.219.312.303s.309.121.497.121c.146 0 .283-.027.413-.082s.239-.133.335-.23a1.1 1.1 0 0 0 .222-.35 1.17 1.17 0 0 0 .081-.439 1.16 1.16 0 0 0-.081-.439 1.06 1.06 0 0 0-.224-.351zm-.125 1.096c-.035.094-.085.176-.15.246a.71.71 0 0 1-.234.166c-.092.041-.194.061-.308.061a.75.75 0 0 1-.309-.061.69.69 0 0 1-.235-.166c-.065-.07-.116-.152-.15-.246a.9.9 0 0 1-.052-.307c0-.111.018-.213.052-.309s.085-.176.15-.246a.73.73 0 0 1 .235-.166.78.78 0 0 1 .309-.061c.113 0 .216.021.308.061s.169.096.234.166.115.152.15.246a.91.91 0 0 1 .053.309.88.88 0 0 1-.053.307zm2.548.379v-.9c0-.301-.069-.521-.206-.67s-.363-.219-.675-.219c-.151 0-.303.025-.45.078s-.276.133-.385.244l.221.229c.084-.078.181-.135.289-.172s.222-.057.335-.057c.165 0 .292.039.384.117s.137.193.137.346v.062h-.135l-.425.018c-.153.012-.297.043-.43.09a.81.81 0 0 0-.335.219c-.09.1-.134.236-.134.408 0 .102.02.191.062.27a.58.58 0 0 0 .169.195c.069.053.153.092.247.119s.195.039.303.039c.161 0 .3-.033.415-.102a.82.82 0 0 0 .276-.266h.009l.003.154a.7.7 0 0 0 .02.16h.337l-.022-.178-.01-.184zm-.35-.512c-.003.088-.018.168-.045.246a.59.59 0 0 1-.117.199.54.54 0 0 1-.19.135c-.076.035-.165.053-.267.053a.59.59 0 0 1-.329-.084c-.089-.055-.133-.148-.133-.279 0-.145.065-.248.196-.309s.31-.096.535-.096h.35v.135zm2.517-1.041c-.065-.074-.148-.131-.249-.174s-.219-.062-.355-.062a.9.9 0 0 0-.244.033.86.86 0 0 0-.201.09c-.061.037-.112.08-.154.127s-.077.098-.102.148h-.009l-.005-.174-.004-.172h-.333l.009.229.009.27v1.602h.351V65.9c0-.119.013-.229.039-.326a.77.77 0 0 1 .115-.256c.053-.072.12-.127.203-.166s.18-.059.294-.059c.164 0 .286.051.363.152s.117.24.117.418v1.26h.35v-1.297a1.25 1.25 0 0 0-.047-.348c-.032-.104-.081-.194-.147-.27zm1.528 1.463h-.009l-.652-1.646h-.407l.87 2.113-.144.395c-.039.105-.086.188-.139.25s-.139.096-.251.096c-.052 0-.097-.002-.136-.008s-.076-.014-.112-.029l-.044.305c.047.023.099.039.154.045s.109.008.16.008a.73.73 0 0 0 .267-.043.5.5 0 0 0 .188-.121.78.78 0 0 0 .136-.188l.11-.244 1.014-2.58h-.382l-.623 1.647zm1.507-2.721l-.301 1.074h.341l.369-1.074h-.409zm1.787 2.125a.69.69 0 0 0-.219-.115 2.11 2.11 0 0 0-.266-.068l-.199-.045c-.064-.02-.122-.039-.171-.064s-.088-.051-.116-.082-.043-.068-.043-.115.013-.09.038-.127.057-.068.096-.092.083-.041.133-.055a.62.62 0 0 1 .146-.018.49.49 0 0 1 .268.07c.073.045.133.105.178.182l.292-.193c-.072-.135-.172-.232-.299-.291a.95.95 0 0 0-.416-.09c-.098 0-.194.014-.287.041s-.176.064-.251.115a.58.58 0 0 0-.179.193.53.53 0 0 0-.067.27.51.51 0 0 0 .061.264.48.48 0 0 0 .161.168.94.94 0 0 0 .235.105l.282.072.166.039a.58.58 0 0 1 .145.061.35.35 0 0 1 .101.094c.026.035.039.082.039.139s-.014.105-.041.146-.062.074-.107.1a.5.5 0 0 1-.151.059.77.77 0 0 1-.164.018.58.58 0 0 1-.311-.076.88.88 0 0 1-.228-.207l-.279.217c.106.148.224.252.354.307a1.19 1.19 0 0 0 .464.082 1.39 1.39 0 0 0 .309-.035.83.83 0 0 0 .269-.113c.08-.053.144-.121.191-.205s.071-.186.071-.305c0-.105-.018-.193-.054-.266a.52.52 0 0 0-.151-.18zm3.402.686v-.9c0-.301-.069-.521-.206-.67s-.362-.219-.675-.219c-.151 0-.303.025-.45.078a1 1 0 0 0-.384.244l.22.229c.084-.078.181-.135.289-.172s.222-.057.335-.057c.166 0 .293.039.385.117s.136.193.136.346v.062h-.134l-.426.018c-.153.012-.297.043-.43.09a.81.81 0 0 0-.334.219c-.09.1-.136.236-.136.408 0 .102.021.191.063.27a.59.59 0 0 0 .169.195.73.73 0 0 0 .246.119c.094.025.195.039.303.039.161 0 .301-.033.416-.102s.206-.158.275-.266h.009l.003.154a.7.7 0 0 0 .02.16h.337l-.022-.178-.009-.184zm-.351-.512c-.003.088-.018.168-.045.246a.6.6 0 0 1-.116.199.54.54 0 0 1-.19.135.64.64 0 0 1-.268.053.59.59 0 0 1-.329-.084c-.089-.055-.133-.148-.133-.279 0-.145.065-.248.196-.309s.31-.096.536-.096h.349v.135zm1.315-.727c.058-.072.132-.127.222-.168s.193-.061.311-.061c.104 0 .199.021.287.061a.71.71 0 0 1 .241.195l.279-.246a.98.98 0 0 0-.366-.252 1.23 1.23 0 0 0-.441-.08c-.162 0-.311.027-.443.082a1.04 1.04 0 0 0-.343.232c-.096.098-.17.215-.223.35a1.18 1.18 0 0 0-.077.439 1.19 1.19 0 0 0 .077.443c.053.134.126.252.221.35a.93.93 0 0 0 .343.229c.135.055.283.08.445.08.151 0 .297-.025.435-.08a.9.9 0 0 0 .359-.256l-.261-.246c-.126.174-.304.26-.533.26a.68.68 0 0 1-.293-.061c-.087-.039-.161-.096-.222-.168s-.109-.154-.144-.248a.87.87 0 0 1-.052-.303c0-.109.015-.209.045-.303s.074-.176.133-.249zm2.051 0c.059-.072.133-.127.223-.168a.77.77 0 0 1 .31-.061.68.68 0 0 1 .287.061c.087.041.168.105.242.195l.279-.246c-.105-.115-.229-.197-.366-.252s-.287-.08-.442-.08c-.161 0-.31.027-.442.082s-.247.133-.344.232-.169.215-.222.35a1.18 1.18 0 0 0-.078.439 1.19 1.19 0 0 0 .078.443c.053.134.126.252.22.35a.93.93 0 0 0 .344.229c.135.055.283.08.444.08a1.17 1.17 0 0 0 .436-.08.91.91 0 0 0 .359-.256l-.263-.245c-.125.174-.303.26-.533.26-.107 0-.205-.02-.293-.061a.64.64 0 0 1-.222-.168.8.8 0 0 1-.143-.248.87.87 0 0 1-.052-.303c0-.109.015-.209.045-.303a.75.75 0 0 1 .133-.25zm3.294-.261c-.089-.094-.194-.166-.316-.215a1.08 1.08 0 0 0-.404-.074c-.154 0-.3.027-.431.08s-.245.129-.341.227-.171.213-.224.35-.081.285-.081.447c0 .152.024.295.074.43s.118.252.21.35a.95.95 0 0 0 .334.234 1.08 1.08 0 0 0 .445.088c.196 0 .371-.031.52-.096s.288-.178.414-.338l-.266-.207c-.084.105-.179.184-.282.238s-.233.08-.386.08a.63.63 0 0 1-.265-.055c-.082-.035-.151-.084-.212-.145s-.108-.133-.146-.215a.75.75 0 0 1-.063-.258h1.696v-.113c0-.172-.023-.328-.071-.463s-.117-.252-.205-.345zm-1.42.625a.67.67 0 0 1 .215-.43c.119-.107.277-.162.472-.162s.347.055.458.162.168.25.174.43h-1.319zm3.347.189c-.062-.049-.136-.088-.22-.115a2.05 2.05 0 0 0-.265-.068l-.199-.045c-.064-.02-.121-.039-.17-.064s-.09-.051-.118-.082-.043-.068-.043-.115.013-.09.038-.127a.31.31 0 0 1 .098-.092c.039-.023.083-.041.132-.055s.099-.018.146-.018c.104 0 .193.023.267.07s.132.105.177.182l.293-.193c-.073-.135-.172-.232-.3-.291a.94.94 0 0 0-.414-.09c-.099 0-.195.014-.287.041s-.178.064-.252.115-.135.115-.18.193a.53.53 0 0 0-.066.27.51.51 0 0 0 .06.264c.04.07.095.125.162.168s.145.078.236.105l.282.072.165.039a.58.58 0 0 1 .145.061c.042.027.075.057.1.094s.039.082.039.139-.014.105-.041.146a.32.32 0 0 1-.106.1.5.5 0 0 1-.151.059.76.76 0 0 1-.163.018c-.126 0-.229-.025-.312-.076s-.157-.119-.227-.207l-.278.217c.104.148.222.252.353.307s.286.082.465.082a1.38 1.38 0 0 0 .308-.035.84.84 0 0 0 .269-.113c.08-.053.143-.121.191-.205s.072-.186.072-.305c0-.105-.019-.193-.055-.266a.51.51 0 0 0-.151-.18zm1.8 0a.69.69 0 0 0-.219-.115c-.084-.027-.172-.051-.265-.068l-.2-.045c-.064-.02-.122-.039-.171-.064s-.088-.051-.116-.082-.043-.068-.043-.115.013-.09.038-.127.058-.068.096-.092.083-.041.133-.055.1-.018.146-.018c.104 0 .194.023.267.07s.133.105.178.182l.292-.193c-.072-.135-.172-.232-.299-.291s-.265-.09-.415-.09c-.098 0-.195.014-.288.041s-.176.064-.251.115a.59.59 0 0 0-.179.193.53.53 0 0 0-.067.27.51.51 0 0 0 .061.264.49.49 0 0 0 .161.168.94.94 0 0 0 .235.105l.283.072.166.039c.055.016.103.035.144.061a.35.35 0 0 1 .101.094c.026.035.039.082.039.139s-.014.105-.041.146-.062.074-.107.1-.095.047-.15.059a.77.77 0 0 1-.163.018c-.127 0-.231-.025-.312-.076a.88.88 0 0 1-.228-.207l-.278.217c.105.148.223.252.353.307s.285.082.466.082a1.37 1.37 0 0 0 .307-.035.83.83 0 0 0 .269-.113c.08-.053.144-.121.191-.205s.072-.186.072-.305c0-.105-.019-.193-.055-.266a.51.51 0 0 0-.151-.18zm2.149-.553a.59.59 0 0 1 .223-.168c.089-.039.192-.061.31-.061.104 0 .199.021.287.061a.71.71 0 0 1 .241.195l.279-.246a.97.97 0 0 0-.366-.252 1.23 1.23 0 0 0-.441-.08 1.15 1.15 0 0 0-.443.082 1.04 1.04 0 0 0-.343.232c-.096.098-.17.215-.223.35a1.18 1.18 0 0 0-.077.439 1.19 1.19 0 0 0 .077.443c.053.134.126.252.221.35a.93.93 0 0 0 .343.229 1.17 1.17 0 0 0 .445.08c.151 0 .297-.025.435-.08s.258-.139.359-.256l-.261-.246c-.126.174-.304.26-.533.26-.108 0-.206-.02-.292-.061a.62.62 0 0 1-.223-.168c-.062-.072-.109-.154-.144-.248a.87.87 0 0 1-.052-.303c0-.109.015-.209.045-.303s.075-.176.133-.249zm3.256-.314c-.067-.074-.149-.131-.25-.174a.94.94 0 0 0-.356-.062c-.081 0-.156.01-.229.031a.97.97 0 0 0-.195.08.75.75 0 0 0-.151.109.52.52 0 0 0-.098.125h-.01v-1.584h-.35v3.391h.35V65.9c0-.119.013-.229.038-.326a.76.76 0 0 1 .116-.256.53.53 0 0 1 .203-.166c.082-.039.181-.059.294-.059.164 0 .285.051.363.152s.117.24.117.418v1.26h.35v-1.297a1.25 1.25 0 0 0-.047-.348c-.03-.104-.079-.194-.145-.27zm2.433 1.553v-.9c0-.301-.068-.521-.206-.67s-.363-.219-.675-.219a1.33 1.33 0 0 0-.45.078c-.148.053-.276.133-.385.244l.221.229a.8.8 0 0 1 .29-.172c.108-.037.221-.057.334-.057.165 0 .292.039.384.117s.138.193.138.346v.062h-.136l-.424.018a1.69 1.69 0 0 0-.431.09.81.81 0 0 0-.335.219c-.089.1-.134.236-.134.408 0 .102.021.191.062.27s.098.143.168.195.153.092.247.119a1.18 1.18 0 0 0 .303.039.8.8 0 0 0 .416-.102c.114-.068.207-.158.276-.266h.009l.002.154a.7.7 0 0 0 .02.16h.337l-.022-.178-.009-.184zm-.35-.512c-.003.088-.018.168-.045.246s-.067.141-.118.199a.53.53 0 0 1-.19.135c-.076.035-.165.053-.267.053-.132 0-.241-.027-.329-.084s-.133-.148-.133-.279c0-.145.065-.248.197-.309s.31-.096.534-.096h.351v.135zm1.912-1.278c-.087 0-.168.012-.242.033s-.143.053-.202.09-.111.08-.154.127-.077.098-.102.148h-.009l-.005-.174-.004-.172h-.332l.008.229.009.27v1.602h.351V65.9c0-.24.049-.432.146-.57s.254-.209.469-.209a.68.68 0 0 1 .188.027l.023-.355a.48.48 0 0 0-.07-.018l-.074-.004zm2.101.413h-.01c-.036-.068-.081-.129-.135-.182s-.114-.096-.183-.129a.79.79 0 0 0-.208-.076c-.072-.018-.143-.025-.215-.025a1.31 1.31 0 0 0-.458.076c-.138.051-.256.123-.353.217s-.173.211-.226.348a1.24 1.24 0 0 0-.081.463c0 .154.026.299.081.43a.95.95 0 0 0 .229.34 1.03 1.03 0 0 0 .354.227c.138.053.289.08.453.08a.99.99 0 0 0 .412-.094c.135-.064.244-.162.328-.297h.01v.27a1.44 1.44 0 0 1-.036.318c-.025.102-.066.191-.126.271a.65.65 0 0 1-.245.188c-.104.047-.231.07-.388.07a.96.96 0 0 1-.429-.092 1.25 1.25 0 0 1-.353-.271l-.251.287c.149.145.308.248.473.309s.354.09.56.09c.371 0 .654-.1.851-.299s.294-.49.294-.871v-2.006h-.35v.358zm-.05.97a.71.71 0 0 1-.146.242c-.064.07-.144.127-.235.168s-.198.062-.318.062a.74.74 0 0 1-.287-.057.73.73 0 0 1-.236-.16c-.067-.068-.121-.146-.159-.238s-.058-.189-.058-.297a.89.89 0 0 1 .053-.309c.036-.094.086-.176.15-.246s.142-.125.234-.166a.76.76 0 0 1 .303-.061.81.81 0 0 1 .305.057c.093.037.172.09.238.158s.116.15.151.244.056.199.056.312a.87.87 0 0 1-.051.291zm2.611-1.093c-.089-.094-.193-.166-.316-.215s-.257-.074-.404-.074c-.155 0-.299.027-.431.08s-.245.129-.341.227a1.05 1.05 0 0 0-.225.35c-.055.137-.08.285-.08.447 0 .152.023.295.073.43s.119.252.212.35.202.178.333.234a1.08 1.08 0 0 0 .445.088c.197 0 .371-.031.521-.096s.287-.178.412-.338l-.265-.207c-.083.105-.178.184-.282.238s-.233.08-.386.08c-.097 0-.185-.018-.265-.055s-.151-.084-.212-.145a.8.8 0 0 1-.146-.215.73.73 0 0 1-.064-.258h1.695v-.113c0-.172-.023-.328-.071-.463a.93.93 0 0 0-.203-.345zm-1.42.625c.023-.18.096-.322.215-.43a.68.68 0 0 1 .472-.162c.194 0 .348.055.458.162s.169.25.175.43h-1.32z"/><path d="M31.285 17.966h-.406c-.559 0-.839.147-.839.441v5.511l-3.677-5.581c-.168-.248-.475-.372-.923-.372h-.602c-.559 0-.839.147-.839.441v8.819c0 .294.28.441.839.441h.406c.56 0 .839-.146.839-.441v-5.581l3.747 5.65c.167.248.476.372.922.372h.532c.56 0 .839-.146.839-.441v-8.819c.001-.293-.279-.44-.838-.44zm8.172 6.401c.191-.215.287-.379.287-.489 0-1.047-.245-1.901-.733-2.562s-1.259-.992-2.308-.992-1.874.302-2.475.909-.902 1.521-.902 2.743.3 2.156.902 2.804 1.517.972 2.748.972a5.58 5.58 0 0 0 1.643-.269c.582-.179.874-.42.874-.724 0-.156-.085-.369-.258-.641s-.329-.407-.468-.407a13.81 13.81 0 0 0-.587.214 3.4 3.4 0 0 1-1.203.213c-.42 0-.765-.109-1.035-.331s-.429-.592-.475-1.116h3.565c.092-.001.234-.108.425-.324zm-3.991-1.04c.148-.928.567-1.392 1.258-1.392.335 0 .587.125.755.379s.251.59.251 1.013h-2.264zm11.178 1.04c.191-.215.287-.379.287-.489 0-1.047-.245-1.901-.733-2.562s-1.259-.992-2.308-.992-1.874.302-2.475.909-.902 1.521-.902 2.743.3 2.156.902 2.804 1.517.972 2.748.972a5.58 5.58 0 0 0 1.643-.269c.582-.179.874-.42.874-.724 0-.156-.085-.369-.258-.641s-.329-.407-.468-.407a13.81 13.81 0 0 0-.587.214 3.4 3.4 0 0 1-1.203.213c-.42 0-.765-.109-1.035-.331s-.429-.592-.475-1.116h3.565c.092-.001.234-.108.425-.324zm-3.991-1.04c.148-.928.568-1.392 1.258-1.392.335 0 .587.125.755.379s.251.59.251 1.013h-2.264zm11.492 1.887V17.69c0-.293-.28-.44-.839-.44h-.392c-.559 0-.839.147-.839.44v3.06c-.401-.285-.875-.427-1.426-.427-.933 0-1.657.333-2.174.998s-.776 1.576-.776 2.728.243 2.058.728 2.716 1.114.985 1.887.985c.419 0 .795-.097 1.125-.289s.58-.441.748-.745c.009.028.025.104.049.228l.063.269.083.207c.037.083.086.143.146.179s.185.055.371.055.468-.037.846-.109.566-.184.566-.331l-.083-.565c-.055-.388-.083-.865-.083-1.435zm-2.07.056c-.317.542-.699.812-1.146.812-.755 0-1.132-.691-1.132-2.074s.433-2.073 1.3-2.073c.335 0 .661.087.978.261v3.074zm12.262-.056v-2.59c0-1.534-1.001-2.301-3.006-2.301-.746 0-1.377.096-1.894.289s-.776.413-.776.661c0 .166.086.39.258.675s.329.428.468.428c.028 0 .126-.037.293-.11.485-.22.984-.331 1.496-.331.728 0 1.092.261 1.092.785v.455c-1.306 0-2.289.193-2.951.579a1.97 1.97 0 0 0-.671.6c-.168.243-.275.471-.322.682s-.07.446-.07.704c0 .605.166 1.093.497 1.46s.855.551 1.573.551c.382 0 .778-.102 1.188-.304s.699-.45.867-.744c.01.028.025.105.049.234s.045.219.063.268l.084.207c.037.088.086.15.146.187s.185.055.371.055.469-.037.847-.109.566-.184.566-.331l-.084-.565c-.056-.388-.084-.865-.084-1.435zm-2.068.056c-.112.248-.285.454-.518.62s-.471.248-.713.248-.424-.055-.545-.165-.181-.257-.181-.44c0-.681.651-1.02 1.958-1.02v.757zm10.584-4.947a2.47 2.47 0 0 0-1.189.302c-.372.202-.671.45-.894.744-.01-.028-.026-.101-.049-.22s-.045-.205-.063-.255-.047-.115-.084-.193-.086-.136-.146-.172-.185-.056-.37-.056-.47.038-.847.111-.566.184-.566.331c0 .055.027.22.084.496s.084.758.084 1.446v4.369c0 .294.28.441.839.441h.392c.56 0 .839-.146.839-.441v-4.423c.279-.532.652-.799 1.118-.799.56 0 .84.285.84.854v4.369c0 .294.279.441.839.441h.391c.561 0 .839-.146.839-.441v-4.671c0-.762-.168-1.325-.503-1.688s-.855-.545-1.554-.545zm9.451 4.891v-4.369c0-.293-.278-.44-.838-.44h-.392c-.56 0-.839.147-.839.44v4.424c-.279.533-.652.8-1.118.8-.561 0-.839-.285-.839-.855v-4.369c0-.293-.28-.44-.84-.44h-.392c-.559 0-.839.147-.839.44v4.671c0 .763.168 1.325.504 1.688s.853.545 1.552.545c.429 0 .827-.102 1.195-.304s.664-.45.888-.744c.01.028.025.105.049.234s.045.219.063.268l.084.207c.037.088.086.15.147.187s.183.055.369.055.469-.037.847-.109.565-.184.565-.331l-.084-.565c-.054-.386-.082-.863-.082-1.433zm9.411-4.891a2.6 2.6 0 0 0-1.23.302c-.383.202-.689.45-.923.744-.271-.698-.886-1.046-1.846-1.046-.419 0-.813.101-1.182.302s-.664.45-.888.744c-.01-.028-.026-.101-.049-.22s-.045-.205-.063-.255-.047-.115-.084-.193-.086-.136-.146-.172-.185-.056-.371-.056-.469.038-.847.111-.565.184-.565.331c0 .055.027.22.084.496s.084.758.084 1.446v4.369c0 .294.279.441.839.441h.391c.56 0 .84-.146.84-.441v-4.423c.279-.532.647-.799 1.104-.799.551 0 .825.285.825.854v4.369c0 .294.28.441.839.441h.392c.56 0 .84-.146.84-.441v-4.423c.278-.532.647-.799 1.104-.799.551 0 .825.285.825.854v4.369c0 .294.28.441.839.441h.393c.559 0 .838-.146.838-.441v-4.671c0-.762-.165-1.325-.496-1.688s-.849-.546-1.547-.546zm7.032 0c-.55 0-1.025.142-1.426.427v-3.06c0-.293-.28-.44-.839-.44h-.392c-.559 0-.839.147-.839.44v9.536c0 .294.28.441.839.441h.168c.485 0 .756-.119.812-.358l.14-.593c.168.304.417.552.748.745s.706.289 1.125.289c.773 0 1.404-.329 1.889-.985s.727-1.562.727-2.716-.259-2.062-.776-2.728-1.243-.998-2.176-.998zm-.28 5.759c-.446 0-.829-.271-1.146-.812v-3.073c.316-.174.643-.261.978-.261.867 0 1.302.691 1.302 2.073s-.378 2.073-1.134 2.073zm10.186-1.715c.191-.215.287-.379.287-.489 0-1.047-.245-1.901-.734-2.562s-1.259-.992-2.307-.992-1.874.302-2.475.909-.902 1.521-.902 2.743.301 2.156.902 2.804 1.517.972 2.747.972c.512 0 1.061-.089 1.643-.269s.874-.42.874-.724c0-.156-.086-.369-.259-.641s-.328-.407-.468-.407a13.81 13.81 0 0 0-.587.214c-.383.143-.783.213-1.203.213s-.765-.109-1.034-.331-.43-.592-.476-1.116h3.564c.095-.001.237-.108.428-.324zm-3.991-1.04c.148-.928.567-1.392 1.258-1.392.336 0 .588.125.755.379s.252.59.252 1.013h-2.265zm8.808-3.004c-.625 0-1.133.349-1.523 1.046-.01-.028-.026-.101-.049-.22s-.045-.205-.063-.255-.047-.115-.084-.193-.086-.136-.146-.172-.185-.056-.37-.056-.47.038-.847.111-.566.184-.566.331c0 .055.027.22.084.496s.084.758.084 1.446v4.369c0 .294.28.441.839.441h.392c.56 0 .839-.146.839-.441v-4.423c.279-.459.652-.689 1.118-.689.103 0 .225.019.363.056s.238.055.294.055c.121 0 .225-.145.309-.435s.126-.531.126-.723-.059-.365-.176-.517-.326-.227-.624-.227zm5.718-1.778c-.54-.441-1.281-.662-2.223-.662-.652 0-1.254.094-1.804.283s-.825.466-.825.833c0 .166.103.395.308.69s.396.44.573.44c.009 0 .191-.071.546-.213s.694-.215 1.021-.215c.689 0 1.034.258 1.034.772 0 .24-.257.635-.769 1.185l-.629.703c-.514.598-.77 1.204-.77 1.82 0 .266.228.398.686.398h.321c.232 0 .405-.026.518-.082s.186-.151.223-.29c.084-.422.425-.868 1.021-1.336.252-.193.493-.405.727-.634.568-.533.854-1.166.854-1.901 0-.753-.271-1.35-.812-1.791zm-2.474 6.972h-.447c-.559 0-.839.147-.839.441v1.268c0 .294.28.441.839.441h.447c.56 0 .839-.146.839-.441v-1.268c0-.293-.28-.441-.839-.441z"/></g></svg>
