<?xml version="1.0" encoding="utf-8"?>
<!-- Generator: Adobe Illustrator 16.0.0, SVG Export Plug-In . SVG Version: 6.00 Build 0)  -->
<!DOCTYPE svg PUBLIC "-//W3C//DTD SVG 1.1//EN" "http://www.w3.org/Graphics/SVG/1.1/DTD/svg11.dtd">
<svg version="1.1" id="Layer_1" xmlns="http://www.w3.org/2000/svg" xmlns:xlink="http://www.w3.org/1999/xlink" x="0px" y="0px"
	 width="71px" height="77px" viewBox="0 0 71 77" enable-background="new 0 0 71 77" xml:space="preserve">
<path fill="#ffffff" d="M69.75,32.407c-0.009-0.011-0.012-0.025-0.021-0.036c-0.027-0.031-0.056-0.061-0.085-0.089
	c-0.001-0.002-0.003-0.004-0.005-0.006c0,0,0,0-0.001-0.001c-0.003-0.003-0.005-0.006-0.009-0.009l-6.631-6.382V13.5
	c0-2.481-2.02-4.5-4.5-4.5H45.456L36.54,0.419c-0.58-0.56-1.5-0.56-2.08,0L25.544,9H12.497c-2.481,0-4.5,2.019-4.5,4.5v12.388
	L1.35,32.287c-0.026,0.026-0.053,0.055-0.078,0.083c-0.01,0.012-0.013,0.026-0.022,0.037C0.45,33.248,0,34.333,0,35.5V72.5
	c0,1.255,0.539,2.465,1.478,3.32c0.002,0.002,0.005,0.002,0.007,0.004C2.319,76.583,3.389,77,4.5,77h62
	c1.11,0,2.181-0.417,3.016-1.176c0.002-0.002,0.004-0.002,0.006-0.004C70.461,74.965,71,73.755,71,72.5V35.5
	C71,34.333,70.549,33.247,69.75,32.407z M62.999,30.047l3.416,3.288l-3.416,3.203V30.047z M35.5,3.583L41.129,9H29.87L35.5,3.583z
	 M10.997,13.5c0-0.827,0.673-1.5,1.5-1.5h46.001c0.826,0,1.5,0.673,1.5,1.5v25.85l-3.648,3.42l-3.53,3.309H18.18l-7.183-6.732V13.5z
	 M49.62,49.079l-5.482,5.139H26.863l-5.482-5.139H49.62z M7.997,30.051v6.482L7.23,35.815l-2.645-2.479L7.997,30.051z M3,72.382
	V35.961l5.471,5.129l15.508,14.536L3,72.382z M5.782,74l21.013-16.783h17.411L65.218,74H5.782z M68,72.382L47.021,55.626
	l15.503-14.531L68,35.961V72.382z M17.811,23.329h35.374c0.829,0,1.5-0.671,1.5-1.5c0-0.828-0.671-1.5-1.5-1.5H17.811
	c-0.829,0-1.5,0.672-1.5,1.5C16.311,22.658,16.982,23.329,17.811,23.329z M17.808,31.912h35.374c0.828,0,1.5-0.671,1.5-1.5
	c0-0.828-0.672-1.5-1.5-1.5H17.808c-0.829,0-1.5,0.672-1.5,1.5C16.308,31.241,16.979,31.912,17.808,31.912z M54.682,38.996
	c0-0.829-0.672-1.5-1.5-1.5H17.808c-0.829,0-1.5,0.671-1.5,1.5s0.671,1.5,1.5,1.5h35.374C54.01,40.496,54.682,39.825,54.682,38.996z
	"/>
</svg>
